%TF.GenerationSoftware,KiCad,Pcbnew,8.0.1-rc1*%
%TF.CreationDate,2024-05-21T21:17:26-06:00*%
%TF.ProjectId,screamer,73637265-616d-4657-922e-6b696361645f,V0.1.1*%
%TF.SameCoordinates,Original*%
%TF.FileFunction,Copper,L2,Inr*%
%TF.FilePolarity,Positive*%
%FSLAX46Y46*%
G04 Gerber Fmt 4.6, Leading zero omitted, Abs format (unit mm)*
G04 Created by KiCad (PCBNEW 8.0.1-rc1) date 2024-05-21 21:17:26*
%MOMM*%
%LPD*%
G01*
G04 APERTURE LIST*
G04 Aperture macros list*
%AMRoundRect*
0 Rectangle with rounded corners*
0 $1 Rounding radius*
0 $2 $3 $4 $5 $6 $7 $8 $9 X,Y pos of 4 corners*
0 Add a 4 corners polygon primitive as box body*
4,1,4,$2,$3,$4,$5,$6,$7,$8,$9,$2,$3,0*
0 Add four circle primitives for the rounded corners*
1,1,$1+$1,$2,$3*
1,1,$1+$1,$4,$5*
1,1,$1+$1,$6,$7*
1,1,$1+$1,$8,$9*
0 Add four rect primitives between the rounded corners*
20,1,$1+$1,$2,$3,$4,$5,0*
20,1,$1+$1,$4,$5,$6,$7,0*
20,1,$1+$1,$6,$7,$8,$9,0*
20,1,$1+$1,$8,$9,$2,$3,0*%
G04 Aperture macros list end*
%TA.AperFunction,ComponentPad*%
%ADD10RoundRect,0.250001X-1.131369X0.000000X0.000000X-1.131369X1.131369X0.000000X0.000000X1.131369X0*%
%TD*%
%TA.AperFunction,ComponentPad*%
%ADD11R,1.350000X1.350000*%
%TD*%
%TA.AperFunction,ComponentPad*%
%ADD12O,1.350000X1.350000*%
%TD*%
%TA.AperFunction,ViaPad*%
%ADD13C,0.600000*%
%TD*%
G04 APERTURE END LIST*
D10*
%TO.N,RF_OUT*%
%TO.C,AE1*%
X166000000Y-88000000D03*
%TD*%
D11*
%TO.N,/BT+*%
%TO.C,J1*%
X166500000Y-93000000D03*
D12*
%TO.N,/BT-*%
X164500000Y-93000000D03*
%TD*%
D13*
%TO.N,V_{B}*%
X157500000Y-89500000D03*
%TO.N,GND*%
X152000000Y-93000000D03*
X154000000Y-93000000D03*
X161000000Y-89000000D03*
%TO.N,Net-(U1-BP)*%
X157225000Y-87073226D03*
%TO.N,V_{TUNE}*%
X155674999Y-91500000D03*
%TO.N,RF_OUT*%
X155500457Y-89595891D03*
%TO.N,VCC*%
X160725000Y-86971612D03*
X153250000Y-90000000D03*
X152000000Y-88250000D03*
%TO.N,/BT+*%
X158000000Y-95000000D03*
%TO.N,/BT-*%
X160000000Y-95000000D03*
%TD*%
%TA.AperFunction,Conductor*%
%TO.N,VCC*%
G36*
X156482137Y-86520185D02*
G01*
X156527892Y-86572989D01*
X156537836Y-86642147D01*
X156520092Y-86690472D01*
X156499211Y-86723703D01*
X156439631Y-86893971D01*
X156439630Y-86893976D01*
X156419435Y-87073222D01*
X156419435Y-87073229D01*
X156439630Y-87252475D01*
X156439631Y-87252480D01*
X156499211Y-87422749D01*
X156595184Y-87575488D01*
X156722738Y-87703042D01*
X156875478Y-87799015D01*
X157045745Y-87858594D01*
X157045750Y-87858595D01*
X157224996Y-87878791D01*
X157225000Y-87878791D01*
X157225004Y-87878791D01*
X157404249Y-87858595D01*
X157404252Y-87858594D01*
X157404255Y-87858594D01*
X157574522Y-87799015D01*
X157727262Y-87703042D01*
X157854816Y-87575488D01*
X157950789Y-87422748D01*
X158010368Y-87252481D01*
X158028103Y-87095081D01*
X158030565Y-87073229D01*
X158030565Y-87073222D01*
X158010369Y-86893976D01*
X158010368Y-86893971D01*
X157950789Y-86723704D01*
X157929908Y-86690472D01*
X157910908Y-86623236D01*
X157931275Y-86556401D01*
X157984543Y-86511186D01*
X158034902Y-86500500D01*
X165007400Y-86500500D01*
X165074439Y-86520185D01*
X165120194Y-86572989D01*
X165130138Y-86642147D01*
X165101113Y-86705703D01*
X165095081Y-86712181D01*
X164302592Y-87504669D01*
X164302576Y-87504687D01*
X164237328Y-87584782D01*
X164158589Y-87741565D01*
X164118130Y-87912280D01*
X164118130Y-88087719D01*
X164158589Y-88258434D01*
X164237328Y-88415217D01*
X164302576Y-88495312D01*
X164302585Y-88495323D01*
X165504677Y-89697415D01*
X165504687Y-89697423D01*
X165584782Y-89762671D01*
X165584783Y-89762671D01*
X165584785Y-89762673D01*
X165741567Y-89841411D01*
X165912279Y-89881870D01*
X165912281Y-89881870D01*
X166087719Y-89881870D01*
X166087721Y-89881870D01*
X166258433Y-89841411D01*
X166415215Y-89762673D01*
X166495323Y-89697415D01*
X167287819Y-88904919D01*
X167349142Y-88871434D01*
X167418834Y-88876418D01*
X167474767Y-88918290D01*
X167499184Y-88983754D01*
X167499500Y-88992600D01*
X167499500Y-91733257D01*
X167479815Y-91800296D01*
X167427011Y-91846051D01*
X167357853Y-91855995D01*
X167332168Y-91849439D01*
X167282485Y-91830909D01*
X167282483Y-91830908D01*
X167222883Y-91824501D01*
X167222881Y-91824500D01*
X167222873Y-91824500D01*
X167222864Y-91824500D01*
X165777129Y-91824500D01*
X165777123Y-91824501D01*
X165717516Y-91830908D01*
X165582671Y-91881202D01*
X165582664Y-91881206D01*
X165467455Y-91967452D01*
X165405214Y-92050594D01*
X165349279Y-92092465D01*
X165279588Y-92097448D01*
X165222411Y-92067920D01*
X165211434Y-92057913D01*
X165211429Y-92057910D01*
X165026213Y-91943229D01*
X165026207Y-91943226D01*
X164941113Y-91910260D01*
X164823069Y-91864530D01*
X164608926Y-91824500D01*
X164391074Y-91824500D01*
X164176931Y-91864530D01*
X164133896Y-91881202D01*
X163973792Y-91943226D01*
X163973786Y-91943229D01*
X163788576Y-92057906D01*
X163788566Y-92057913D01*
X163627574Y-92204676D01*
X163496288Y-92378527D01*
X163399184Y-92573537D01*
X163339564Y-92783081D01*
X163319464Y-92999999D01*
X163319464Y-93000000D01*
X163339564Y-93216918D01*
X163339564Y-93216920D01*
X163339565Y-93216923D01*
X163399183Y-93426459D01*
X163496288Y-93621472D01*
X163627573Y-93795322D01*
X163788568Y-93942088D01*
X163788575Y-93942092D01*
X163788576Y-93942093D01*
X163973786Y-94056770D01*
X163973792Y-94056773D01*
X163996664Y-94065633D01*
X164176931Y-94135470D01*
X164391074Y-94175500D01*
X164391076Y-94175500D01*
X164608924Y-94175500D01*
X164608926Y-94175500D01*
X164823069Y-94135470D01*
X165026210Y-94056772D01*
X165211432Y-93942088D01*
X165222407Y-93932082D01*
X165285207Y-93901463D01*
X165354594Y-93909657D01*
X165405214Y-93949405D01*
X165467452Y-94032544D01*
X165467455Y-94032547D01*
X165582664Y-94118793D01*
X165582671Y-94118797D01*
X165717517Y-94169091D01*
X165717516Y-94169091D01*
X165724444Y-94169835D01*
X165777127Y-94175500D01*
X167222872Y-94175499D01*
X167282483Y-94169091D01*
X167332167Y-94150559D01*
X167401858Y-94145576D01*
X167463181Y-94179061D01*
X167496666Y-94240384D01*
X167499500Y-94266742D01*
X167499500Y-96870579D01*
X167479815Y-96937618D01*
X167427011Y-96983373D01*
X167357853Y-96993317D01*
X167294297Y-96964292D01*
X167257845Y-96907572D01*
X167257357Y-96907738D01*
X167256690Y-96905775D01*
X167256523Y-96905514D01*
X167256143Y-96904163D01*
X167256054Y-96903901D01*
X167256052Y-96903895D01*
X167163224Y-96679788D01*
X167041936Y-96469711D01*
X166894265Y-96277262D01*
X166894260Y-96277256D01*
X166722743Y-96105739D01*
X166722736Y-96105733D01*
X166530293Y-95958067D01*
X166530292Y-95958066D01*
X166530289Y-95958064D01*
X166320212Y-95836776D01*
X166244862Y-95805565D01*
X166096104Y-95743947D01*
X165861785Y-95681161D01*
X165621289Y-95649500D01*
X165621288Y-95649500D01*
X165378712Y-95649500D01*
X165378711Y-95649500D01*
X165138214Y-95681161D01*
X164903895Y-95743947D01*
X164679794Y-95836773D01*
X164679785Y-95836777D01*
X164469706Y-95958067D01*
X164277263Y-96105733D01*
X164277256Y-96105739D01*
X164105739Y-96277256D01*
X164105733Y-96277263D01*
X163958067Y-96469706D01*
X163836777Y-96679785D01*
X163836773Y-96679794D01*
X163743947Y-96903895D01*
X163681161Y-97138214D01*
X163649500Y-97378711D01*
X163649500Y-97621288D01*
X163681161Y-97861785D01*
X163743947Y-98096104D01*
X163836773Y-98320205D01*
X163836776Y-98320212D01*
X163958064Y-98530289D01*
X163958066Y-98530292D01*
X163958067Y-98530293D01*
X164105733Y-98722736D01*
X164105739Y-98722743D01*
X164277256Y-98894260D01*
X164277262Y-98894265D01*
X164469711Y-99041936D01*
X164679788Y-99163224D01*
X164903900Y-99256054D01*
X164903904Y-99256055D01*
X164907738Y-99257357D01*
X164907328Y-99258564D01*
X164962330Y-99292086D01*
X164992862Y-99354932D01*
X164984570Y-99424308D01*
X164940087Y-99478188D01*
X164873536Y-99499465D01*
X164870580Y-99499500D01*
X153129420Y-99499500D01*
X153062381Y-99479815D01*
X153016626Y-99427011D01*
X153006682Y-99357853D01*
X153035707Y-99294297D01*
X153092427Y-99257845D01*
X153092262Y-99257357D01*
X153094222Y-99256691D01*
X153094485Y-99256523D01*
X153095838Y-99256143D01*
X153096090Y-99256056D01*
X153096100Y-99256054D01*
X153320212Y-99163224D01*
X153530289Y-99041936D01*
X153722738Y-98894265D01*
X153894265Y-98722738D01*
X154041936Y-98530289D01*
X154163224Y-98320212D01*
X154256054Y-98096100D01*
X154318838Y-97861789D01*
X154350500Y-97621288D01*
X154350500Y-97378712D01*
X154318838Y-97138211D01*
X154256054Y-96903900D01*
X154163224Y-96679788D01*
X154041936Y-96469711D01*
X153894265Y-96277262D01*
X153894260Y-96277256D01*
X153722743Y-96105739D01*
X153722736Y-96105733D01*
X153530293Y-95958067D01*
X153530292Y-95958066D01*
X153530289Y-95958064D01*
X153320212Y-95836776D01*
X153244862Y-95805565D01*
X153096104Y-95743947D01*
X152861785Y-95681161D01*
X152621289Y-95649500D01*
X152621288Y-95649500D01*
X152378712Y-95649500D01*
X152378711Y-95649500D01*
X152138214Y-95681161D01*
X151903895Y-95743947D01*
X151679794Y-95836773D01*
X151679785Y-95836777D01*
X151469706Y-95958067D01*
X151277263Y-96105733D01*
X151277256Y-96105739D01*
X151105739Y-96277256D01*
X151105733Y-96277263D01*
X150958067Y-96469706D01*
X150836777Y-96679785D01*
X150836773Y-96679794D01*
X150743945Y-96903901D01*
X150742643Y-96907738D01*
X150741438Y-96907329D01*
X150707905Y-96962337D01*
X150645057Y-96992863D01*
X150575682Y-96984565D01*
X150521806Y-96940077D01*
X150500535Y-96873524D01*
X150500500Y-96870579D01*
X150500500Y-95000003D01*
X157194435Y-95000003D01*
X157214630Y-95179249D01*
X157214631Y-95179254D01*
X157274211Y-95349523D01*
X157370184Y-95502262D01*
X157497738Y-95629816D01*
X157650478Y-95725789D01*
X157702368Y-95743946D01*
X157820745Y-95785368D01*
X157820750Y-95785369D01*
X157999996Y-95805565D01*
X158000000Y-95805565D01*
X158000004Y-95805565D01*
X158179249Y-95785369D01*
X158179252Y-95785368D01*
X158179255Y-95785368D01*
X158349522Y-95725789D01*
X158502262Y-95629816D01*
X158629816Y-95502262D01*
X158725789Y-95349522D01*
X158785368Y-95179255D01*
X158805565Y-95000003D01*
X159194435Y-95000003D01*
X159214630Y-95179249D01*
X159214631Y-95179254D01*
X159274211Y-95349523D01*
X159370184Y-95502262D01*
X159497738Y-95629816D01*
X159650478Y-95725789D01*
X159702368Y-95743946D01*
X159820745Y-95785368D01*
X159820750Y-95785369D01*
X159999996Y-95805565D01*
X160000000Y-95805565D01*
X160000004Y-95805565D01*
X160179249Y-95785369D01*
X160179252Y-95785368D01*
X160179255Y-95785368D01*
X160349522Y-95725789D01*
X160502262Y-95629816D01*
X160629816Y-95502262D01*
X160725789Y-95349522D01*
X160785368Y-95179255D01*
X160805565Y-95000000D01*
X160785368Y-94820745D01*
X160725789Y-94650478D01*
X160629816Y-94497738D01*
X160502262Y-94370184D01*
X160349523Y-94274211D01*
X160179254Y-94214631D01*
X160179249Y-94214630D01*
X160000004Y-94194435D01*
X159999996Y-94194435D01*
X159820750Y-94214630D01*
X159820745Y-94214631D01*
X159650476Y-94274211D01*
X159497737Y-94370184D01*
X159370184Y-94497737D01*
X159274211Y-94650476D01*
X159214631Y-94820745D01*
X159214630Y-94820750D01*
X159194435Y-94999996D01*
X159194435Y-95000003D01*
X158805565Y-95000003D01*
X158805565Y-95000000D01*
X158785368Y-94820745D01*
X158725789Y-94650478D01*
X158629816Y-94497738D01*
X158502262Y-94370184D01*
X158349523Y-94274211D01*
X158179254Y-94214631D01*
X158179249Y-94214630D01*
X158000004Y-94194435D01*
X157999996Y-94194435D01*
X157820750Y-94214630D01*
X157820745Y-94214631D01*
X157650476Y-94274211D01*
X157497737Y-94370184D01*
X157370184Y-94497737D01*
X157274211Y-94650476D01*
X157214631Y-94820745D01*
X157214630Y-94820750D01*
X157194435Y-94999996D01*
X157194435Y-95000003D01*
X150500500Y-95000003D01*
X150500500Y-93000003D01*
X151194435Y-93000003D01*
X151214630Y-93179249D01*
X151214631Y-93179254D01*
X151274211Y-93349523D01*
X151370184Y-93502262D01*
X151497738Y-93629816D01*
X151650478Y-93725789D01*
X151820745Y-93785368D01*
X151820750Y-93785369D01*
X151999996Y-93805565D01*
X152000000Y-93805565D01*
X152000004Y-93805565D01*
X152179249Y-93785369D01*
X152179252Y-93785368D01*
X152179255Y-93785368D01*
X152349522Y-93725789D01*
X152502262Y-93629816D01*
X152629816Y-93502262D01*
X152725789Y-93349522D01*
X152785368Y-93179255D01*
X152805565Y-93000003D01*
X153194435Y-93000003D01*
X153214630Y-93179249D01*
X153214631Y-93179254D01*
X153274211Y-93349523D01*
X153370184Y-93502262D01*
X153497738Y-93629816D01*
X153650478Y-93725789D01*
X153820745Y-93785368D01*
X153820750Y-93785369D01*
X153999996Y-93805565D01*
X154000000Y-93805565D01*
X154000004Y-93805565D01*
X154179249Y-93785369D01*
X154179252Y-93785368D01*
X154179255Y-93785368D01*
X154349522Y-93725789D01*
X154502262Y-93629816D01*
X154629816Y-93502262D01*
X154725789Y-93349522D01*
X154785368Y-93179255D01*
X154805565Y-93000000D01*
X154785368Y-92820745D01*
X154725789Y-92650478D01*
X154629816Y-92497738D01*
X154502262Y-92370184D01*
X154399422Y-92305565D01*
X154349523Y-92274211D01*
X154179254Y-92214631D01*
X154179249Y-92214630D01*
X154000004Y-92194435D01*
X153999996Y-92194435D01*
X153820750Y-92214630D01*
X153820745Y-92214631D01*
X153650476Y-92274211D01*
X153497737Y-92370184D01*
X153370184Y-92497737D01*
X153274211Y-92650476D01*
X153214631Y-92820745D01*
X153214630Y-92820750D01*
X153194435Y-92999996D01*
X153194435Y-93000003D01*
X152805565Y-93000003D01*
X152805565Y-93000000D01*
X152785368Y-92820745D01*
X152725789Y-92650478D01*
X152629816Y-92497738D01*
X152502262Y-92370184D01*
X152399422Y-92305565D01*
X152349523Y-92274211D01*
X152179254Y-92214631D01*
X152179249Y-92214630D01*
X152000004Y-92194435D01*
X151999996Y-92194435D01*
X151820750Y-92214630D01*
X151820745Y-92214631D01*
X151650476Y-92274211D01*
X151497737Y-92370184D01*
X151370184Y-92497737D01*
X151274211Y-92650476D01*
X151214631Y-92820745D01*
X151214630Y-92820750D01*
X151194435Y-92999996D01*
X151194435Y-93000003D01*
X150500500Y-93000003D01*
X150500500Y-91500003D01*
X154869434Y-91500003D01*
X154889629Y-91679249D01*
X154889630Y-91679254D01*
X154949210Y-91849523D01*
X154969117Y-91881204D01*
X155045183Y-92002262D01*
X155172737Y-92129816D01*
X155252111Y-92179690D01*
X155307720Y-92214632D01*
X155325477Y-92225789D01*
X155463859Y-92274211D01*
X155495744Y-92285368D01*
X155495749Y-92285369D01*
X155674995Y-92305565D01*
X155674999Y-92305565D01*
X155675003Y-92305565D01*
X155854248Y-92285369D01*
X155854251Y-92285368D01*
X155854254Y-92285368D01*
X156024521Y-92225789D01*
X156177261Y-92129816D01*
X156304815Y-92002262D01*
X156400788Y-91849522D01*
X156460367Y-91679255D01*
X156480564Y-91500000D01*
X156460367Y-91320745D01*
X156400788Y-91150478D01*
X156304815Y-90997738D01*
X156177261Y-90870184D01*
X156024522Y-90774211D01*
X155854253Y-90714631D01*
X155854248Y-90714630D01*
X155675003Y-90694435D01*
X155674995Y-90694435D01*
X155495749Y-90714630D01*
X155495744Y-90714631D01*
X155325475Y-90774211D01*
X155172736Y-90870184D01*
X155045183Y-90997737D01*
X154949210Y-91150476D01*
X154889630Y-91320745D01*
X154889629Y-91320750D01*
X154869434Y-91499996D01*
X154869434Y-91500003D01*
X150500500Y-91500003D01*
X150500500Y-90500000D01*
X152750000Y-90500000D01*
X153536392Y-90500000D01*
X153603431Y-90519685D01*
X153618615Y-90531182D01*
X153627760Y-90539283D01*
X153627765Y-90539285D01*
X153627767Y-90539287D01*
X153767634Y-90612696D01*
X153921014Y-90650500D01*
X153921015Y-90650500D01*
X154078985Y-90650500D01*
X154232365Y-90612696D01*
X154372232Y-90539287D01*
X154372231Y-90539287D01*
X154372240Y-90539283D01*
X154381383Y-90531182D01*
X154444617Y-90501463D01*
X154463608Y-90500000D01*
X154500000Y-90500000D01*
X154500000Y-90459381D01*
X154519685Y-90392342D01*
X154521933Y-90388965D01*
X154580220Y-90304523D01*
X154636237Y-90156818D01*
X154638036Y-90141994D01*
X154665654Y-90077820D01*
X154723586Y-90038761D01*
X154793439Y-90037223D01*
X154853035Y-90073694D01*
X154866123Y-90090964D01*
X154870637Y-90098148D01*
X154870641Y-90098153D01*
X154998195Y-90225707D01*
X155150935Y-90321680D01*
X155321202Y-90381259D01*
X155321207Y-90381260D01*
X155500453Y-90401456D01*
X155500457Y-90401456D01*
X155500461Y-90401456D01*
X155679706Y-90381260D01*
X155679709Y-90381259D01*
X155679712Y-90381259D01*
X155849979Y-90321680D01*
X156002719Y-90225707D01*
X156130273Y-90098153D01*
X156226246Y-89945413D01*
X156285825Y-89775146D01*
X156285826Y-89775140D01*
X156306022Y-89595894D01*
X156306022Y-89595887D01*
X156295218Y-89500000D01*
X156694435Y-89500000D01*
X156714630Y-89679249D01*
X156714631Y-89679254D01*
X156774211Y-89849523D01*
X156834463Y-89945413D01*
X156870184Y-90002262D01*
X156997738Y-90129816D01*
X157040716Y-90156821D01*
X157150345Y-90225706D01*
X157150478Y-90225789D01*
X157320745Y-90285368D01*
X157320750Y-90285369D01*
X157499996Y-90305565D01*
X157500000Y-90305565D01*
X157500004Y-90305565D01*
X157679249Y-90285369D01*
X157679252Y-90285368D01*
X157679255Y-90285368D01*
X157849522Y-90225789D01*
X158002262Y-90129816D01*
X158129816Y-90002262D01*
X158225789Y-89849522D01*
X158285368Y-89679255D01*
X158290939Y-89629816D01*
X158305565Y-89500000D01*
X158305565Y-89499996D01*
X158285369Y-89320750D01*
X158285368Y-89320745D01*
X158259342Y-89246367D01*
X158225789Y-89150478D01*
X158131239Y-89000003D01*
X160194435Y-89000003D01*
X160214630Y-89179249D01*
X160214631Y-89179254D01*
X160274211Y-89349523D01*
X160344081Y-89460719D01*
X160370184Y-89502262D01*
X160497738Y-89629816D01*
X160650478Y-89725789D01*
X160791515Y-89775140D01*
X160820745Y-89785368D01*
X160820750Y-89785369D01*
X160999996Y-89805565D01*
X161000000Y-89805565D01*
X161000004Y-89805565D01*
X161179249Y-89785369D01*
X161179252Y-89785368D01*
X161179255Y-89785368D01*
X161349522Y-89725789D01*
X161502262Y-89629816D01*
X161629816Y-89502262D01*
X161725789Y-89349522D01*
X161785368Y-89179255D01*
X161785369Y-89179249D01*
X161805565Y-89000003D01*
X161805565Y-88999996D01*
X161785369Y-88820750D01*
X161785368Y-88820745D01*
X161725788Y-88650476D01*
X161629815Y-88497737D01*
X161502262Y-88370184D01*
X161349523Y-88274211D01*
X161179254Y-88214631D01*
X161179249Y-88214630D01*
X161000004Y-88194435D01*
X160999996Y-88194435D01*
X160820750Y-88214630D01*
X160820745Y-88214631D01*
X160650476Y-88274211D01*
X160497737Y-88370184D01*
X160370184Y-88497737D01*
X160274211Y-88650476D01*
X160214631Y-88820745D01*
X160214630Y-88820750D01*
X160194435Y-88999996D01*
X160194435Y-89000003D01*
X158131239Y-89000003D01*
X158129816Y-88997738D01*
X158002262Y-88870184D01*
X158002131Y-88870102D01*
X157849523Y-88774211D01*
X157679254Y-88714631D01*
X157679249Y-88714630D01*
X157500004Y-88694435D01*
X157499996Y-88694435D01*
X157320750Y-88714630D01*
X157320745Y-88714631D01*
X157150476Y-88774211D01*
X156997737Y-88870184D01*
X156870184Y-88997737D01*
X156774211Y-89150476D01*
X156714631Y-89320745D01*
X156714630Y-89320750D01*
X156694435Y-89499996D01*
X156694435Y-89500000D01*
X156295218Y-89500000D01*
X156285826Y-89416641D01*
X156285825Y-89416636D01*
X156226245Y-89246367D01*
X156184072Y-89179249D01*
X156130273Y-89093629D01*
X156002719Y-88966075D01*
X155926670Y-88918290D01*
X155849980Y-88870102D01*
X155679711Y-88810522D01*
X155679706Y-88810521D01*
X155500461Y-88790326D01*
X155500453Y-88790326D01*
X155321207Y-88810521D01*
X155321202Y-88810522D01*
X155150933Y-88870102D01*
X154998194Y-88966075D01*
X154870641Y-89093628D01*
X154774668Y-89246367D01*
X154715088Y-89416636D01*
X154715088Y-89416638D01*
X154713695Y-89429001D01*
X154686626Y-89493414D01*
X154629030Y-89532967D01*
X154559193Y-89535102D01*
X154502794Y-89502794D01*
X154500000Y-89500000D01*
X154463608Y-89500000D01*
X154396569Y-89480315D01*
X154381383Y-89468817D01*
X154372240Y-89460717D01*
X154372235Y-89460714D01*
X154372232Y-89460712D01*
X154232365Y-89387303D01*
X154078986Y-89349500D01*
X154078985Y-89349500D01*
X153921015Y-89349500D01*
X153921014Y-89349500D01*
X153767634Y-89387303D01*
X153627767Y-89460712D01*
X153627761Y-89460716D01*
X153627760Y-89460717D01*
X153627758Y-89460719D01*
X153618617Y-89468817D01*
X153555383Y-89498537D01*
X153536392Y-89500000D01*
X152750000Y-89500000D01*
X152750000Y-90500000D01*
X150500500Y-90500000D01*
X150500500Y-86624500D01*
X150520185Y-86557461D01*
X150572989Y-86511706D01*
X150624500Y-86500500D01*
X156415098Y-86500500D01*
X156482137Y-86520185D01*
G37*
%TD.AperFunction*%
%TD*%
M02*
