%TF.GenerationSoftware,KiCad,Pcbnew,8.0.1-rc1*%
%TF.CreationDate,2024-05-21T21:17:26-06:00*%
%TF.ProjectId,screamer,73637265-616d-4657-922e-6b696361645f,V0.1.1*%
%TF.SameCoordinates,Original*%
%TF.FileFunction,Copper,L4,Bot*%
%TF.FilePolarity,Positive*%
%FSLAX46Y46*%
G04 Gerber Fmt 4.6, Leading zero omitted, Abs format (unit mm)*
G04 Created by KiCad (PCBNEW 8.0.1-rc1) date 2024-05-21 21:17:26*
%MOMM*%
%LPD*%
G01*
G04 APERTURE LIST*
G04 Aperture macros list*
%AMRoundRect*
0 Rectangle with rounded corners*
0 $1 Rounding radius*
0 $2 $3 $4 $5 $6 $7 $8 $9 X,Y pos of 4 corners*
0 Add a 4 corners polygon primitive as box body*
4,1,4,$2,$3,$4,$5,$6,$7,$8,$9,$2,$3,0*
0 Add four circle primitives for the rounded corners*
1,1,$1+$1,$2,$3*
1,1,$1+$1,$4,$5*
1,1,$1+$1,$6,$7*
1,1,$1+$1,$8,$9*
0 Add four rect primitives between the rounded corners*
20,1,$1+$1,$2,$3,$4,$5,0*
20,1,$1+$1,$4,$5,$6,$7,0*
20,1,$1+$1,$6,$7,$8,$9,0*
20,1,$1+$1,$8,$9,$2,$3,0*%
G04 Aperture macros list end*
%TA.AperFunction,ComponentPad*%
%ADD10RoundRect,0.250001X-1.131369X0.000000X0.000000X-1.131369X1.131369X0.000000X0.000000X1.131369X0*%
%TD*%
%TA.AperFunction,SMDPad,CuDef*%
%ADD11RoundRect,0.100000X0.100000X-0.712500X0.100000X0.712500X-0.100000X0.712500X-0.100000X-0.712500X0*%
%TD*%
%TA.AperFunction,SMDPad,CuDef*%
%ADD12RoundRect,0.150000X0.150000X-0.512500X0.150000X0.512500X-0.150000X0.512500X-0.150000X-0.512500X0*%
%TD*%
%TA.AperFunction,ComponentPad*%
%ADD13R,1.350000X1.350000*%
%TD*%
%TA.AperFunction,ComponentPad*%
%ADD14O,1.350000X1.350000*%
%TD*%
%TA.AperFunction,SMDPad,CuDef*%
%ADD15RoundRect,0.200000X0.200000X-0.300000X0.200000X0.300000X-0.200000X0.300000X-0.200000X-0.300000X0*%
%TD*%
%TA.AperFunction,ViaPad*%
%ADD16C,0.600000*%
%TD*%
%TA.AperFunction,Conductor*%
%ADD17C,0.500000*%
%TD*%
%TA.AperFunction,Conductor*%
%ADD18C,0.250000*%
%TD*%
%TA.AperFunction,Conductor*%
%ADD19C,0.280000*%
%TD*%
%TA.AperFunction,Conductor*%
%ADD20C,0.750000*%
%TD*%
G04 APERTURE END LIST*
D10*
%TO.P,AE1,1,A*%
%TO.N,RF_OUT*%
X166000000Y-88000000D03*
%TD*%
D11*
%TO.P,U2,1,NC*%
%TO.N,unconnected-(U2-NC-Pad1)*%
X154975000Y-91612500D03*
%TO.P,U2,2,TUNE*%
%TO.N,V_{TUNE}*%
X154325000Y-91612500D03*
%TO.P,U2,3,GND*%
%TO.N,GND*%
X153675000Y-91612500D03*
%TO.P,U2,4,\u002ASHDN*%
%TO.N,VCC*%
X153025000Y-91612500D03*
%TO.P,U2,5,VCC*%
X153025000Y-87387500D03*
%TO.P,U2,6,VCC*%
X153675000Y-87387500D03*
%TO.P,U2,7,OUT*%
%TO.N,RF_OUT*%
X154325000Y-87387500D03*
%TO.P,U2,8,GND*%
%TO.N,GND*%
X154975000Y-87387500D03*
%TD*%
D12*
%TO.P,U1,1,VIN*%
%TO.N,V_{B}*%
X159862500Y-90637500D03*
%TO.P,U1,2,GND*%
%TO.N,GND*%
X158912500Y-90637500D03*
%TO.P,U1,3,ON/~{OFF}*%
%TO.N,V_{B}*%
X157962500Y-90637500D03*
%TO.P,U1,4,BP*%
%TO.N,Net-(U1-BP)*%
X157962500Y-88362500D03*
%TO.P,U1,5,VOUT*%
%TO.N,VCC*%
X159862500Y-88362500D03*
%TD*%
D13*
%TO.P,J1,1,Pin_1*%
%TO.N,/BT+*%
X166500000Y-93000000D03*
D14*
%TO.P,J1,2,Pin_2*%
%TO.N,/BT-*%
X164500000Y-93000000D03*
%TD*%
D15*
%TO.P,D1,1*%
%TO.N,/BT-*%
X160265000Y-98580000D03*
%TO.P,D1,2*%
%TO.N,/BT+*%
X157725000Y-98580000D03*
%TO.P,D1,3,+*%
%TO.N,V_{B}*%
X157725000Y-92430000D03*
%TO.P,D1,4,-*%
%TO.N,GND*%
X160265000Y-92430000D03*
%TD*%
D16*
%TO.N,V_{B}*%
X157500000Y-89500000D03*
%TO.N,GND*%
X152000000Y-93000000D03*
X154000000Y-93000000D03*
X161000000Y-89000000D03*
%TO.N,Net-(U1-BP)*%
X157225000Y-87073226D03*
%TO.N,V_{TUNE}*%
X155674999Y-91500000D03*
%TO.N,RF_OUT*%
X155500457Y-89595891D03*
%TO.N,VCC*%
X160725000Y-86971612D03*
X153250000Y-90000000D03*
X152000000Y-88250000D03*
X154000000Y-90000000D03*
%TO.N,/BT+*%
X158000000Y-95000000D03*
%TO.N,/BT-*%
X160000000Y-95000000D03*
%TD*%
D17*
%TO.N,V_{B}*%
X157500000Y-89500000D02*
X158000000Y-89500000D01*
X157962500Y-90637500D02*
X157962500Y-90072316D01*
X157962500Y-92192500D02*
X157725000Y-92430000D01*
X159862500Y-89975001D02*
X159862500Y-90637500D01*
X157962500Y-90072316D02*
X158267408Y-89767408D01*
X159412499Y-89525000D02*
X159862500Y-89975001D01*
X158000000Y-89500000D02*
X158267408Y-89767408D01*
X158267408Y-89767408D02*
X158509816Y-89525000D01*
X157962500Y-90637500D02*
X157962500Y-92192500D01*
X158509816Y-89525000D02*
X159412499Y-89525000D01*
D18*
%TO.N,GND*%
X154975000Y-87387500D02*
X155887500Y-87387500D01*
D17*
X157579780Y-94000000D02*
X156500000Y-94000000D01*
X160265000Y-92430000D02*
X161320000Y-92430000D01*
X161750000Y-89750000D02*
X161000000Y-89000000D01*
X158912500Y-92667280D02*
X159417280Y-92667280D01*
X158912500Y-92667280D02*
X157579780Y-94000000D01*
D18*
X153675000Y-92675000D02*
X154000000Y-93000000D01*
D17*
X161750000Y-92000000D02*
X161750000Y-89750000D01*
X158912500Y-91912500D02*
X158912500Y-92667280D01*
X159417280Y-92667280D02*
X159654560Y-92430000D01*
D18*
X155887500Y-87387500D02*
X156000000Y-87500000D01*
X153675000Y-91612500D02*
X153675000Y-92675000D01*
D17*
X158912500Y-90637500D02*
X158912500Y-91912500D01*
X161320000Y-92430000D02*
X161750000Y-92000000D01*
X159654560Y-92430000D02*
X160265000Y-92430000D01*
D18*
%TO.N,Net-(U1-BP)*%
X157962500Y-87810726D02*
X157225000Y-87073226D01*
X157962500Y-88362500D02*
X157962500Y-87810726D01*
%TO.N,V_{TUNE}*%
X154325000Y-91612500D02*
X154325000Y-92424999D01*
X155253812Y-92750000D02*
X155674999Y-92328813D01*
X155674999Y-92328813D02*
X155674999Y-91500000D01*
X154650001Y-92750000D02*
X155253812Y-92750000D01*
X154325000Y-92424999D02*
X154650001Y-92750000D01*
D19*
%TO.N,RF_OUT*%
X154325000Y-87387500D02*
X154325000Y-88420434D01*
X154325000Y-88420434D02*
X155500457Y-89595891D01*
D17*
%TO.N,VCC*%
X152612500Y-91612500D02*
X151750000Y-90750000D01*
X153025000Y-91612500D02*
X152612500Y-91612500D01*
X151750000Y-88500000D02*
X152000000Y-88250000D01*
D18*
X153025000Y-89775000D02*
X153250000Y-90000000D01*
D17*
X159862500Y-87834112D02*
X160725000Y-86971612D01*
D18*
X153025000Y-87387500D02*
X153025000Y-89775000D01*
D17*
X159862500Y-88362500D02*
X159862500Y-87834112D01*
D18*
X153675000Y-87387500D02*
X153675000Y-89675000D01*
D17*
X151750000Y-90750000D02*
X151750000Y-88500000D01*
D18*
X153675000Y-89675000D02*
X154000000Y-90000000D01*
D20*
%TO.N,/BT+*%
X166500000Y-93000000D02*
X165000000Y-94500000D01*
X161500000Y-94000000D02*
X159000000Y-94000000D01*
X159000000Y-94000000D02*
X158000000Y-95000000D01*
X157725000Y-95275000D02*
X158000000Y-95000000D01*
X165000000Y-94500000D02*
X162000000Y-94500000D01*
X162000000Y-94500000D02*
X161500000Y-94000000D01*
X157725000Y-98580000D02*
X157725000Y-95275000D01*
%TO.N,/BT-*%
X160265000Y-98580000D02*
X160265000Y-95265000D01*
X160265000Y-95265000D02*
X160000000Y-95000000D01*
%TD*%
%TA.AperFunction,Conductor*%
%TO.N,GND*%
G36*
X152268003Y-86520185D02*
G01*
X152313758Y-86572989D01*
X152324699Y-86632609D01*
X152324500Y-86635645D01*
X152324500Y-87342291D01*
X152304815Y-87409330D01*
X152252011Y-87455085D01*
X152186273Y-87464537D01*
X152186175Y-87465411D01*
X152000004Y-87444435D01*
X151999996Y-87444435D01*
X151820750Y-87464630D01*
X151820745Y-87464631D01*
X151650476Y-87524211D01*
X151497737Y-87620184D01*
X151370184Y-87747737D01*
X151274212Y-87900475D01*
X151271191Y-87906750D01*
X151269361Y-87905869D01*
X151246695Y-87941935D01*
X151167048Y-88021583D01*
X151144879Y-88054762D01*
X151122858Y-88087721D01*
X151103887Y-88116113D01*
X151084916Y-88144504D01*
X151084912Y-88144511D01*
X151028343Y-88281082D01*
X151028340Y-88281092D01*
X150999500Y-88426079D01*
X150999500Y-88426082D01*
X150999500Y-90823918D01*
X150999500Y-90823920D01*
X150999499Y-90823920D01*
X151028340Y-90968907D01*
X151028343Y-90968917D01*
X151084912Y-91105488D01*
X151084918Y-91105499D01*
X151099043Y-91126637D01*
X151099045Y-91126642D01*
X151167046Y-91228414D01*
X151167052Y-91228421D01*
X152029549Y-92090916D01*
X152134084Y-92195451D01*
X152134087Y-92195453D01*
X152134088Y-92195454D01*
X152257001Y-92277582D01*
X152261140Y-92279794D01*
X152310988Y-92328752D01*
X152325634Y-92372972D01*
X152339954Y-92481753D01*
X152339956Y-92481762D01*
X152399328Y-92625100D01*
X152400464Y-92627841D01*
X152496718Y-92753282D01*
X152622159Y-92849536D01*
X152768238Y-92910044D01*
X152885639Y-92925500D01*
X153164360Y-92925499D01*
X153164361Y-92925499D01*
X153178018Y-92923701D01*
X153281762Y-92910044D01*
X153303200Y-92901163D01*
X153372668Y-92893694D01*
X153398106Y-92901163D01*
X153418365Y-92909554D01*
X153418377Y-92909558D01*
X153474998Y-92917011D01*
X153475000Y-92917010D01*
X153475000Y-92874499D01*
X153494685Y-92807460D01*
X153523512Y-92776125D01*
X153553282Y-92753282D01*
X153575580Y-92724222D01*
X153632004Y-92683020D01*
X153701750Y-92678863D01*
X153762671Y-92713074D01*
X153777055Y-92730814D01*
X153804913Y-92772505D01*
X153804914Y-92772508D01*
X153804915Y-92772508D01*
X153839141Y-92823732D01*
X153843007Y-92828442D01*
X153841967Y-92829295D01*
X153872163Y-92884578D01*
X153875000Y-92910952D01*
X153875000Y-92917010D01*
X153878942Y-92920468D01*
X153934150Y-92929078D01*
X153968981Y-92953570D01*
X154161017Y-93145606D01*
X154161046Y-93145637D01*
X154251265Y-93235856D01*
X154251268Y-93235858D01*
X154328191Y-93287256D01*
X154353711Y-93304309D01*
X154353713Y-93304310D01*
X154353716Y-93304312D01*
X154420397Y-93331931D01*
X154420399Y-93331933D01*
X154460641Y-93348601D01*
X154467549Y-93351463D01*
X154527972Y-93363481D01*
X154588394Y-93375500D01*
X155315419Y-93375500D01*
X155375841Y-93363481D01*
X155436264Y-93351463D01*
X155436267Y-93351461D01*
X155436270Y-93351461D01*
X155469599Y-93337654D01*
X155469598Y-93337654D01*
X155469604Y-93337652D01*
X155550098Y-93304312D01*
X155623337Y-93255374D01*
X155652545Y-93235858D01*
X155739670Y-93148733D01*
X155739671Y-93148730D01*
X156160856Y-92727547D01*
X156187018Y-92688394D01*
X156192627Y-92680000D01*
X156229309Y-92625101D01*
X156229309Y-92625100D01*
X156229310Y-92625099D01*
X156276462Y-92511265D01*
X156300499Y-92390419D01*
X156300499Y-92044854D01*
X156319506Y-91978881D01*
X156326688Y-91967452D01*
X156400788Y-91849522D01*
X156460367Y-91679255D01*
X156472122Y-91574927D01*
X156480564Y-91500003D01*
X156480564Y-91499996D01*
X156460368Y-91320750D01*
X156460367Y-91320745D01*
X156400788Y-91150478D01*
X156304815Y-90997738D01*
X156177261Y-90870184D01*
X156024522Y-90774211D01*
X155854253Y-90714631D01*
X155854249Y-90714630D01*
X155710792Y-90698467D01*
X155646378Y-90671400D01*
X155610115Y-90622699D01*
X155599536Y-90597159D01*
X155587047Y-90580883D01*
X155561854Y-90515719D01*
X155575891Y-90447274D01*
X155624705Y-90397284D01*
X155671541Y-90382179D01*
X155679712Y-90381259D01*
X155849979Y-90321680D01*
X156002719Y-90225707D01*
X156130273Y-90098153D01*
X156226246Y-89945413D01*
X156285825Y-89775146D01*
X156285826Y-89775140D01*
X156306022Y-89595894D01*
X156306022Y-89595887D01*
X156285826Y-89416641D01*
X156285825Y-89416636D01*
X156226245Y-89246367D01*
X156187039Y-89183971D01*
X156130273Y-89093629D01*
X156002719Y-88966075D01*
X155962337Y-88940701D01*
X155849978Y-88870101D01*
X155679706Y-88810521D01*
X155656538Y-88807911D01*
X155592124Y-88780844D01*
X155582742Y-88772372D01*
X155508291Y-88697921D01*
X155474806Y-88636598D01*
X155479790Y-88566906D01*
X155499799Y-88535770D01*
X155497977Y-88534372D01*
X155599100Y-88402586D01*
X155659554Y-88256634D01*
X155659555Y-88256630D01*
X155674999Y-88139330D01*
X155675000Y-88139316D01*
X155675000Y-87587500D01*
X155149500Y-87587500D01*
X155082461Y-87567815D01*
X155036706Y-87515011D01*
X155025500Y-87463501D01*
X155025499Y-87311501D01*
X155045183Y-87244461D01*
X155097987Y-87198706D01*
X155149499Y-87187500D01*
X155674999Y-87187500D01*
X155674999Y-86635681D01*
X155674798Y-86632617D01*
X155674999Y-86631718D01*
X155674999Y-86631619D01*
X155675021Y-86631619D01*
X155690052Y-86564433D01*
X155739748Y-86515319D01*
X155798532Y-86500500D01*
X156415098Y-86500500D01*
X156482137Y-86520185D01*
X156527892Y-86572989D01*
X156537836Y-86642147D01*
X156520092Y-86690472D01*
X156499211Y-86723703D01*
X156439631Y-86893971D01*
X156439630Y-86893976D01*
X156419435Y-87073222D01*
X156419435Y-87073229D01*
X156439630Y-87252475D01*
X156439631Y-87252480D01*
X156499211Y-87422749D01*
X156562964Y-87524211D01*
X156595184Y-87575488D01*
X156722738Y-87703042D01*
X156875478Y-87799015D01*
X157045745Y-87858594D01*
X157051882Y-87859285D01*
X157116295Y-87886351D01*
X157155852Y-87943945D01*
X157162000Y-87982506D01*
X157162000Y-88698439D01*
X157142315Y-88765478D01*
X157103972Y-88803433D01*
X156997737Y-88870184D01*
X156870184Y-88997737D01*
X156774211Y-89150476D01*
X156714631Y-89320745D01*
X156714630Y-89320750D01*
X156694435Y-89499996D01*
X156694435Y-89500003D01*
X156714630Y-89679249D01*
X156714631Y-89679254D01*
X156774211Y-89849523D01*
X156834463Y-89945413D01*
X156870184Y-90002262D01*
X156997738Y-90129816D01*
X157076420Y-90179255D01*
X157103972Y-90196567D01*
X157150263Y-90248902D01*
X157162000Y-90301561D01*
X157162000Y-91215701D01*
X157164901Y-91252567D01*
X157164902Y-91252573D01*
X157206680Y-91396372D01*
X157206481Y-91466242D01*
X157168539Y-91524912D01*
X157151755Y-91537083D01*
X157089814Y-91574528D01*
X157089810Y-91574531D01*
X156969530Y-91694811D01*
X156881522Y-91840393D01*
X156830913Y-92002807D01*
X156824500Y-92073386D01*
X156824500Y-92786613D01*
X156830913Y-92857192D01*
X156830913Y-92857194D01*
X156830914Y-92857196D01*
X156881522Y-93019606D01*
X156965273Y-93158147D01*
X156969530Y-93165188D01*
X157089811Y-93285469D01*
X157089813Y-93285470D01*
X157089815Y-93285472D01*
X157235394Y-93373478D01*
X157397804Y-93424086D01*
X157468384Y-93430500D01*
X157468387Y-93430500D01*
X157981609Y-93430500D01*
X157981616Y-93430500D01*
X158025247Y-93426535D01*
X158093788Y-93440069D01*
X158144135Y-93488515D01*
X158160298Y-93556489D01*
X158137146Y-93622411D01*
X158124148Y-93637706D01*
X157611296Y-94150560D01*
X157441901Y-94319955D01*
X157166901Y-94594955D01*
X157105927Y-94655929D01*
X157044953Y-94716902D01*
X156949145Y-94860288D01*
X156949138Y-94860301D01*
X156883146Y-95019621D01*
X156883143Y-95019633D01*
X156849500Y-95188766D01*
X156849500Y-98074285D01*
X156843886Y-98111173D01*
X156830914Y-98152803D01*
X156824500Y-98223386D01*
X156824500Y-98936613D01*
X156830913Y-99007192D01*
X156830913Y-99007194D01*
X156830914Y-99007196D01*
X156881522Y-99169606D01*
X156934065Y-99256523D01*
X156967210Y-99311350D01*
X156985046Y-99378905D01*
X156963528Y-99445378D01*
X156909488Y-99489666D01*
X156861093Y-99499500D01*
X153129420Y-99499500D01*
X153062381Y-99479815D01*
X153016626Y-99427011D01*
X153006682Y-99357853D01*
X153035707Y-99294297D01*
X153092427Y-99257845D01*
X153092262Y-99257357D01*
X153094222Y-99256691D01*
X153094485Y-99256523D01*
X153095838Y-99256143D01*
X153096090Y-99256056D01*
X153096100Y-99256054D01*
X153320212Y-99163224D01*
X153530289Y-99041936D01*
X153722738Y-98894265D01*
X153894265Y-98722738D01*
X154041936Y-98530289D01*
X154163224Y-98320212D01*
X154256054Y-98096100D01*
X154318838Y-97861789D01*
X154350500Y-97621288D01*
X154350500Y-97378712D01*
X154318838Y-97138211D01*
X154256054Y-96903900D01*
X154163224Y-96679788D01*
X154041936Y-96469711D01*
X153894265Y-96277262D01*
X153894260Y-96277256D01*
X153722743Y-96105739D01*
X153722736Y-96105733D01*
X153530293Y-95958067D01*
X153530292Y-95958066D01*
X153530289Y-95958064D01*
X153320212Y-95836776D01*
X153320205Y-95836773D01*
X153096104Y-95743947D01*
X152861785Y-95681161D01*
X152621289Y-95649500D01*
X152621288Y-95649500D01*
X152378712Y-95649500D01*
X152378711Y-95649500D01*
X152138214Y-95681161D01*
X151903895Y-95743947D01*
X151679794Y-95836773D01*
X151679785Y-95836777D01*
X151469706Y-95958067D01*
X151277263Y-96105733D01*
X151277256Y-96105739D01*
X151105739Y-96277256D01*
X151105733Y-96277263D01*
X150958067Y-96469706D01*
X150836777Y-96679785D01*
X150836773Y-96679794D01*
X150743945Y-96903901D01*
X150742643Y-96907738D01*
X150741438Y-96907329D01*
X150707905Y-96962337D01*
X150645057Y-96992863D01*
X150575682Y-96984565D01*
X150521806Y-96940077D01*
X150500535Y-96873524D01*
X150500500Y-96870579D01*
X150500500Y-86624500D01*
X150520185Y-86557461D01*
X150572989Y-86511706D01*
X150624500Y-86500500D01*
X152200964Y-86500500D01*
X152268003Y-86520185D01*
G37*
%TD.AperFunction*%
%TA.AperFunction,Conductor*%
G36*
X165074439Y-86520185D02*
G01*
X165120194Y-86572989D01*
X165130138Y-86642147D01*
X165101113Y-86705703D01*
X165095081Y-86712181D01*
X164302592Y-87504669D01*
X164302576Y-87504687D01*
X164237328Y-87584782D01*
X164158589Y-87741565D01*
X164148458Y-87784313D01*
X164118130Y-87912279D01*
X164118130Y-88087721D01*
X164132023Y-88146340D01*
X164158589Y-88258434D01*
X164237328Y-88415217D01*
X164302576Y-88495312D01*
X164302585Y-88495323D01*
X165504677Y-89697415D01*
X165504687Y-89697423D01*
X165584782Y-89762671D01*
X165584783Y-89762671D01*
X165584785Y-89762673D01*
X165741567Y-89841411D01*
X165912279Y-89881870D01*
X165912281Y-89881870D01*
X166087719Y-89881870D01*
X166087721Y-89881870D01*
X166258433Y-89841411D01*
X166415215Y-89762673D01*
X166495323Y-89697415D01*
X167287819Y-88904919D01*
X167349142Y-88871434D01*
X167418834Y-88876418D01*
X167474767Y-88918290D01*
X167499184Y-88983754D01*
X167499500Y-88992600D01*
X167499500Y-91733257D01*
X167479815Y-91800296D01*
X167427011Y-91846051D01*
X167357853Y-91855995D01*
X167332168Y-91849439D01*
X167282485Y-91830909D01*
X167282483Y-91830908D01*
X167222883Y-91824501D01*
X167222881Y-91824500D01*
X167222873Y-91824500D01*
X167222864Y-91824500D01*
X165777129Y-91824500D01*
X165777123Y-91824501D01*
X165717516Y-91830908D01*
X165582671Y-91881202D01*
X165582664Y-91881206D01*
X165467455Y-91967452D01*
X165405214Y-92050594D01*
X165349279Y-92092465D01*
X165279588Y-92097448D01*
X165222411Y-92067920D01*
X165211434Y-92057913D01*
X165211429Y-92057910D01*
X165026213Y-91943229D01*
X165026207Y-91943226D01*
X164941113Y-91910260D01*
X164823069Y-91864530D01*
X164608926Y-91824500D01*
X164391074Y-91824500D01*
X164176931Y-91864530D01*
X164145135Y-91876848D01*
X163973792Y-91943226D01*
X163973786Y-91943229D01*
X163788576Y-92057906D01*
X163788566Y-92057913D01*
X163627574Y-92204676D01*
X163496288Y-92378527D01*
X163399184Y-92573537D01*
X163339564Y-92783081D01*
X163319464Y-92999999D01*
X163319464Y-93000000D01*
X163339564Y-93216918D01*
X163339564Y-93216920D01*
X163339565Y-93216923D01*
X163384109Y-93373478D01*
X163399184Y-93426462D01*
X163408529Y-93445230D01*
X163420789Y-93514015D01*
X163393915Y-93578510D01*
X163336439Y-93618237D01*
X163297528Y-93624500D01*
X162414006Y-93624500D01*
X162346967Y-93604815D01*
X162326325Y-93588181D01*
X162058102Y-93319957D01*
X162058098Y-93319954D01*
X161914711Y-93224145D01*
X161914698Y-93224138D01*
X161755378Y-93158146D01*
X161755366Y-93158143D01*
X161586232Y-93124500D01*
X161586229Y-93124500D01*
X161243788Y-93124500D01*
X161176749Y-93104815D01*
X161130994Y-93052011D01*
X161121050Y-92982853D01*
X161125403Y-92963610D01*
X161158590Y-92857106D01*
X161165000Y-92786572D01*
X161165000Y-92680000D01*
X159365001Y-92680000D01*
X159365001Y-92786582D01*
X159371408Y-92857102D01*
X159371409Y-92857107D01*
X159404597Y-92963609D01*
X159405749Y-93033469D01*
X159368948Y-93092862D01*
X159305880Y-93122930D01*
X159286212Y-93124500D01*
X158913768Y-93124500D01*
X158744633Y-93158143D01*
X158744618Y-93158147D01*
X158737400Y-93161137D01*
X158667930Y-93168601D01*
X158605453Y-93137322D01*
X158569805Y-93077231D01*
X158571568Y-93009686D01*
X158619086Y-92857196D01*
X158625500Y-92786616D01*
X158625500Y-92577691D01*
X158634939Y-92530238D01*
X158666636Y-92453716D01*
X158672830Y-92438759D01*
X158684159Y-92411412D01*
X158707263Y-92295259D01*
X158713000Y-92266418D01*
X158713000Y-91432328D01*
X158717924Y-91397733D01*
X158760097Y-91252573D01*
X158760097Y-91252571D01*
X158760098Y-91252569D01*
X158763000Y-91215694D01*
X158763000Y-90511500D01*
X158782685Y-90444461D01*
X158835489Y-90398706D01*
X158887000Y-90387500D01*
X158938000Y-90387500D01*
X159005039Y-90407185D01*
X159050794Y-90459989D01*
X159062000Y-90511500D01*
X159062000Y-91215701D01*
X159064901Y-91252567D01*
X159064902Y-91252573D01*
X159110754Y-91410393D01*
X159110755Y-91410396D01*
X159110756Y-91410398D01*
X159145232Y-91468694D01*
X159162500Y-91531814D01*
X159162500Y-91797295D01*
X159162501Y-91797295D01*
X159164988Y-91797100D01*
X159164991Y-91797099D01*
X159240820Y-91775069D01*
X159310690Y-91775268D01*
X159369360Y-91813210D01*
X159398204Y-91876848D01*
X159393802Y-91931035D01*
X159371408Y-92002898D01*
X159365000Y-92073427D01*
X159365000Y-92180000D01*
X161164999Y-92180000D01*
X161164999Y-92073417D01*
X161158591Y-92002897D01*
X161158590Y-92002892D01*
X161108018Y-91840603D01*
X161020072Y-91695122D01*
X160899877Y-91574927D01*
X160754396Y-91486981D01*
X160754395Y-91486980D01*
X160721594Y-91476759D01*
X160663447Y-91438021D01*
X160635473Y-91373996D01*
X160639408Y-91323781D01*
X160660098Y-91252569D01*
X160663000Y-91215694D01*
X160663000Y-90059306D01*
X160660098Y-90022431D01*
X160654238Y-90002262D01*
X160614246Y-89864608D01*
X160614245Y-89864607D01*
X160614244Y-89864602D01*
X160612195Y-89861137D01*
X160597311Y-89822214D01*
X160584159Y-89756089D01*
X160551018Y-89676081D01*
X160527584Y-89619506D01*
X160448077Y-89500514D01*
X160427200Y-89433841D01*
X160445684Y-89366461D01*
X160463496Y-89343949D01*
X160530581Y-89276865D01*
X160614244Y-89135398D01*
X160660098Y-88977569D01*
X160663000Y-88940694D01*
X160663000Y-88146340D01*
X160682685Y-88079301D01*
X160699315Y-88058663D01*
X161033059Y-87724918D01*
X161069132Y-87702269D01*
X161068244Y-87700425D01*
X161074515Y-87697404D01*
X161074516Y-87697402D01*
X161074522Y-87697401D01*
X161227262Y-87601428D01*
X161354816Y-87473874D01*
X161450789Y-87321134D01*
X161510368Y-87150867D01*
X161516654Y-87095081D01*
X161530565Y-86971615D01*
X161530565Y-86971608D01*
X161510369Y-86792362D01*
X161510368Y-86792357D01*
X161465963Y-86665455D01*
X161462402Y-86595676D01*
X161497131Y-86535048D01*
X161559124Y-86502821D01*
X161583005Y-86500500D01*
X165007400Y-86500500D01*
X165074439Y-86520185D01*
G37*
%TD.AperFunction*%
%TD*%
M02*
