%TF.GenerationSoftware,KiCad,Pcbnew,8.0.1-rc1*%
%TF.CreationDate,2024-05-21T21:17:26-06:00*%
%TF.ProjectId,screamer,73637265-616d-4657-922e-6b696361645f,V0.1.1*%
%TF.SameCoordinates,Original*%
%TF.FileFunction,Copper,L1,Top*%
%TF.FilePolarity,Positive*%
%FSLAX46Y46*%
G04 Gerber Fmt 4.6, Leading zero omitted, Abs format (unit mm)*
G04 Created by KiCad (PCBNEW 8.0.1-rc1) date 2024-05-21 21:17:26*
%MOMM*%
%LPD*%
G01*
G04 APERTURE LIST*
G04 Aperture macros list*
%AMRoundRect*
0 Rectangle with rounded corners*
0 $1 Rounding radius*
0 $2 $3 $4 $5 $6 $7 $8 $9 X,Y pos of 4 corners*
0 Add a 4 corners polygon primitive as box body*
4,1,4,$2,$3,$4,$5,$6,$7,$8,$9,$2,$3,0*
0 Add four circle primitives for the rounded corners*
1,1,$1+$1,$2,$3*
1,1,$1+$1,$4,$5*
1,1,$1+$1,$6,$7*
1,1,$1+$1,$8,$9*
0 Add four rect primitives between the rounded corners*
20,1,$1+$1,$2,$3,$4,$5,0*
20,1,$1+$1,$4,$5,$6,$7,0*
20,1,$1+$1,$6,$7,$8,$9,0*
20,1,$1+$1,$8,$9,$2,$3,0*%
G04 Aperture macros list end*
%TA.AperFunction,SMDPad,CuDef*%
%ADD10R,0.990600X3.505200*%
%TD*%
%TA.AperFunction,SMDPad,CuDef*%
%ADD11R,1.498600X3.403600*%
%TD*%
%TA.AperFunction,SMDPad,CuDef*%
%ADD12RoundRect,0.225000X0.225000X0.250000X-0.225000X0.250000X-0.225000X-0.250000X0.225000X-0.250000X0*%
%TD*%
%TA.AperFunction,SMDPad,CuDef*%
%ADD13RoundRect,0.200000X0.200000X0.275000X-0.200000X0.275000X-0.200000X-0.275000X0.200000X-0.275000X0*%
%TD*%
%TA.AperFunction,SMDPad,CuDef*%
%ADD14RoundRect,0.225000X-0.225000X-0.250000X0.225000X-0.250000X0.225000X0.250000X-0.225000X0.250000X0*%
%TD*%
%TA.AperFunction,SMDPad,CuDef*%
%ADD15RoundRect,0.200000X-0.200000X-0.275000X0.200000X-0.275000X0.200000X0.275000X-0.200000X0.275000X0*%
%TD*%
%TA.AperFunction,ComponentPad*%
%ADD16RoundRect,0.250001X-1.131369X0.000000X0.000000X-1.131369X1.131369X0.000000X0.000000X1.131369X0*%
%TD*%
%TA.AperFunction,ComponentPad*%
%ADD17R,1.350000X1.350000*%
%TD*%
%TA.AperFunction,ComponentPad*%
%ADD18O,1.350000X1.350000*%
%TD*%
%TA.AperFunction,ViaPad*%
%ADD19C,0.600000*%
%TD*%
%TA.AperFunction,Conductor*%
%ADD20C,0.500000*%
%TD*%
%TA.AperFunction,Conductor*%
%ADD21C,0.250000*%
%TD*%
%TA.AperFunction,Conductor*%
%ADD22C,0.750000*%
%TD*%
G04 APERTURE END LIST*
D10*
%TO.P,BT1,1,1*%
%TO.N,/BT-*%
X160000001Y-92500000D03*
%TO.P,BT1,2,2*%
%TO.N,/BT+*%
X158000000Y-92500000D03*
D11*
%TO.P,BT1,3*%
%TO.N,N/C*%
X162314700Y-98062600D03*
%TO.P,BT1,4*%
X155685300Y-98062600D03*
%TD*%
D12*
%TO.P,C5,1*%
%TO.N,VCC*%
X152775000Y-91000000D03*
%TO.P,C5,2*%
%TO.N,GND*%
X151225000Y-91000000D03*
%TD*%
%TO.P,C4,1*%
%TO.N,VCC*%
X152775000Y-89000000D03*
%TO.P,C4,2*%
%TO.N,GND*%
X151225000Y-89000000D03*
%TD*%
D13*
%TO.P,R2,1*%
%TO.N,V_{TUNE}*%
X156325000Y-89000000D03*
%TO.P,R2,2*%
%TO.N,GND*%
X154675000Y-89000000D03*
%TD*%
D14*
%TO.P,C1,1*%
%TO.N,V_{B}*%
X158225000Y-89000000D03*
%TO.P,C1,2*%
%TO.N,GND*%
X159775000Y-89000000D03*
%TD*%
%TO.P,C2,1*%
%TO.N,Net-(U1-BP)*%
X158225000Y-87000000D03*
%TO.P,C2,2*%
%TO.N,GND*%
X159775000Y-87000000D03*
%TD*%
D15*
%TO.P,R1,1*%
%TO.N,VCC*%
X154675000Y-87000000D03*
%TO.P,R1,2*%
%TO.N,V_{TUNE}*%
X156325000Y-87000000D03*
%TD*%
D16*
%TO.P,AE1,1,A*%
%TO.N,RF_OUT*%
X166000000Y-88000000D03*
%TD*%
D12*
%TO.P,C3,1*%
%TO.N,VCC*%
X152775000Y-87000000D03*
%TO.P,C3,2*%
%TO.N,GND*%
X151225000Y-87000000D03*
%TD*%
D17*
%TO.P,J1,1,Pin_1*%
%TO.N,/BT+*%
X166500000Y-93000000D03*
D18*
%TO.P,J1,2,Pin_2*%
%TO.N,/BT-*%
X164500000Y-93000000D03*
%TD*%
D19*
%TO.N,V_{B}*%
X157500000Y-89500000D03*
%TO.N,GND*%
X152000000Y-93000000D03*
X154000000Y-93000000D03*
X161000000Y-89000000D03*
%TO.N,Net-(U1-BP)*%
X157225000Y-87073226D03*
%TO.N,V_{TUNE}*%
X155674999Y-91500000D03*
%TO.N,RF_OUT*%
X155500457Y-89595891D03*
%TO.N,VCC*%
X160725000Y-86971612D03*
X153250000Y-90000000D03*
X152000000Y-88250000D03*
X154000000Y-90000000D03*
%TO.N,/BT+*%
X158000000Y-95000000D03*
%TO.N,/BT-*%
X160000000Y-95000000D03*
%TD*%
D20*
%TO.N,V_{B}*%
X158000000Y-89000000D02*
X157500000Y-89500000D01*
X158225000Y-89000000D02*
X158000000Y-89000000D01*
%TO.N,GND*%
X154675000Y-89000000D02*
X154750000Y-89075000D01*
X154750000Y-91000000D02*
X154000000Y-91750000D01*
X157102100Y-90250000D02*
X161000000Y-90250000D01*
X151225000Y-87000000D02*
X151225000Y-91000000D01*
X159775000Y-89000000D02*
X159775000Y-89112499D01*
X156900000Y-90452100D02*
X157102100Y-90250000D01*
X159775000Y-89000000D02*
X161000000Y-89000000D01*
X156900000Y-91600000D02*
X156750000Y-91750000D01*
X154000000Y-91750000D02*
X154000000Y-93000000D01*
X151225000Y-87000000D02*
X151225000Y-89000000D01*
X159775000Y-89000000D02*
X159775000Y-87000000D01*
X156900000Y-90452100D02*
X156900000Y-91600000D01*
X151225000Y-92225000D02*
X152000000Y-93000000D01*
X151225000Y-91000000D02*
X151225000Y-92225000D01*
X154750000Y-89075000D02*
X154750000Y-91000000D01*
D21*
%TO.N,Net-(U1-BP)*%
X158151774Y-87073226D02*
X158225000Y-87000000D01*
X157225000Y-87073226D02*
X158151774Y-87073226D01*
%TO.N,V_{TUNE}*%
X156325000Y-89000000D02*
X156325000Y-90849999D01*
X156325000Y-90849999D02*
X155674999Y-91500000D01*
X156325000Y-87000000D02*
X156325000Y-89000000D01*
D20*
%TO.N,VCC*%
X153750000Y-87000000D02*
X154675000Y-87000000D01*
X152775000Y-88000000D02*
X152250000Y-88000000D01*
D21*
X154000000Y-90000000D02*
X154000000Y-90500000D01*
X152775000Y-89525000D02*
X153250000Y-90000000D01*
X152775000Y-91000000D02*
X153500000Y-91000000D01*
D20*
X152775000Y-89000000D02*
X152750000Y-89000000D01*
D21*
X154000000Y-90500000D02*
X153500000Y-91000000D01*
D20*
X152250000Y-89500000D02*
X152250000Y-90500000D01*
X152750000Y-91000000D02*
X152250000Y-90500000D01*
X152775000Y-91000000D02*
X152750000Y-91000000D01*
X152250000Y-88000000D02*
X152000000Y-88250000D01*
X152750000Y-89000000D02*
X152250000Y-89500000D01*
X152775000Y-87000000D02*
X153750000Y-87000000D01*
X152775000Y-88000000D02*
X152775000Y-89000000D01*
X152775000Y-87000000D02*
X152775000Y-88000000D01*
D21*
X152775000Y-89000000D02*
X152775000Y-89525000D01*
D22*
%TO.N,/BT+*%
X157985650Y-92586200D02*
X157985650Y-94985650D01*
D21*
X157985650Y-94985650D02*
X158000000Y-95000000D01*
D22*
%TO.N,/BT-*%
X159985651Y-92586200D02*
X159985651Y-94985651D01*
D21*
X159985651Y-94985651D02*
X160000000Y-95000000D01*
D22*
X162000000Y-95500000D02*
X164500000Y-93000000D01*
X159985651Y-94985651D02*
X160500000Y-95500000D01*
X160500000Y-95500000D02*
X162000000Y-95500000D01*
%TD*%
%TA.AperFunction,Conductor*%
%TO.N,GND*%
G36*
X151180203Y-88380526D02*
G01*
X151216042Y-88433285D01*
X151274210Y-88599521D01*
X151370184Y-88752262D01*
X151438681Y-88820759D01*
X151472166Y-88882082D01*
X151475000Y-88908440D01*
X151475000Y-91974999D01*
X151498308Y-91974999D01*
X151498322Y-91974998D01*
X151597607Y-91964855D01*
X151758481Y-91911547D01*
X151758492Y-91911542D01*
X151902731Y-91822573D01*
X151911959Y-91813345D01*
X151973279Y-91779856D01*
X152042971Y-91784835D01*
X152087327Y-91813339D01*
X152096955Y-91822967D01*
X152096959Y-91822970D01*
X152241294Y-91911998D01*
X152241297Y-91911999D01*
X152241303Y-91912003D01*
X152402292Y-91965349D01*
X152501655Y-91975500D01*
X153048344Y-91975499D01*
X153048352Y-91975498D01*
X153048355Y-91975498D01*
X153102760Y-91969940D01*
X153147708Y-91965349D01*
X153308697Y-91912003D01*
X153453044Y-91822968D01*
X153572968Y-91703044D01*
X153600713Y-91658060D01*
X153652659Y-91611337D01*
X153676654Y-91603344D01*
X153676621Y-91603232D01*
X153680767Y-91601974D01*
X153682080Y-91601537D01*
X153682086Y-91601535D01*
X153682452Y-91601463D01*
X153727144Y-91582951D01*
X153796286Y-91554312D01*
X153847509Y-91520084D01*
X153898733Y-91485858D01*
X153985858Y-91398733D01*
X153985859Y-91398731D01*
X153992925Y-91391665D01*
X153992928Y-91391661D01*
X154398729Y-90985860D01*
X154398733Y-90985858D01*
X154485858Y-90898733D01*
X154516584Y-90852746D01*
X154537254Y-90821813D01*
X154537256Y-90821810D01*
X154554310Y-90796288D01*
X154554310Y-90796287D01*
X154554312Y-90796285D01*
X154601463Y-90682451D01*
X154625500Y-90561607D01*
X154625500Y-90544854D01*
X154644507Y-90478881D01*
X154660161Y-90453968D01*
X154725789Y-90349522D01*
X154763316Y-90242275D01*
X154804036Y-90185501D01*
X154868989Y-90159753D01*
X154937551Y-90173209D01*
X154968038Y-90195550D01*
X154998195Y-90225707D01*
X155150935Y-90321680D01*
X155321202Y-90381259D01*
X155321207Y-90381260D01*
X155500453Y-90401456D01*
X155500457Y-90401456D01*
X155500459Y-90401456D01*
X155542849Y-90396679D01*
X155561616Y-90394565D01*
X155630438Y-90406619D01*
X155681817Y-90453968D01*
X155699500Y-90517785D01*
X155699500Y-90539545D01*
X155679815Y-90606584D01*
X155663180Y-90627227D01*
X155616618Y-90673788D01*
X155555295Y-90707272D01*
X155542824Y-90709326D01*
X155495749Y-90714630D01*
X155325477Y-90774210D01*
X155172736Y-90870184D01*
X155045183Y-90997737D01*
X154949210Y-91150476D01*
X154889630Y-91320745D01*
X154889629Y-91320750D01*
X154869434Y-91499996D01*
X154869434Y-91500003D01*
X154889629Y-91679249D01*
X154889630Y-91679254D01*
X154949210Y-91849523D01*
X155028366Y-91975498D01*
X155045183Y-92002262D01*
X155172737Y-92129816D01*
X155325477Y-92225789D01*
X155495744Y-92285368D01*
X155495749Y-92285369D01*
X155674995Y-92305565D01*
X155674999Y-92305565D01*
X155675003Y-92305565D01*
X155854248Y-92285369D01*
X155854251Y-92285368D01*
X155854254Y-92285368D01*
X156024521Y-92225789D01*
X156177261Y-92129816D01*
X156304815Y-92002262D01*
X156400788Y-91849522D01*
X156460367Y-91679255D01*
X156465671Y-91632173D01*
X156492736Y-91567763D01*
X156501200Y-91558387D01*
X156716664Y-91342924D01*
X156716671Y-91342918D01*
X156723731Y-91335857D01*
X156723733Y-91335857D01*
X156792519Y-91267071D01*
X156853842Y-91233586D01*
X156923534Y-91238570D01*
X156979467Y-91280442D01*
X157003884Y-91345906D01*
X157004200Y-91354752D01*
X157004200Y-94300470D01*
X157004201Y-94300476D01*
X157010608Y-94360083D01*
X157060902Y-94494928D01*
X157060903Y-94494930D01*
X157085417Y-94527676D01*
X157109834Y-94593140D01*
X157110150Y-94601987D01*
X157110150Y-95071883D01*
X157143793Y-95241016D01*
X157143796Y-95241028D01*
X157209788Y-95400348D01*
X157209795Y-95400361D01*
X157305604Y-95543748D01*
X157305607Y-95543752D01*
X157427547Y-95665692D01*
X157427551Y-95665695D01*
X157570938Y-95761504D01*
X157570951Y-95761511D01*
X157730271Y-95827503D01*
X157730276Y-95827505D01*
X157895148Y-95860300D01*
X157899416Y-95861149D01*
X157899419Y-95861150D01*
X157899421Y-95861150D01*
X158071881Y-95861150D01*
X158071882Y-95861149D01*
X158241024Y-95827505D01*
X158400355Y-95761508D01*
X158543749Y-95665695D01*
X158665695Y-95543749D01*
X158761508Y-95400355D01*
X158827505Y-95241024D01*
X158861150Y-95071879D01*
X158861150Y-94640325D01*
X158880835Y-94573286D01*
X158885861Y-94566044D01*
X158886862Y-94564706D01*
X158942783Y-94522818D01*
X159012473Y-94517813D01*
X159073806Y-94551280D01*
X159107309Y-94612593D01*
X159110151Y-94638987D01*
X159110151Y-95071884D01*
X159143794Y-95241017D01*
X159143797Y-95241029D01*
X159209789Y-95400349D01*
X159209796Y-95400362D01*
X159305605Y-95543749D01*
X159305608Y-95543753D01*
X159819955Y-96058099D01*
X159941901Y-96180045D01*
X159941902Y-96180046D01*
X160085288Y-96275854D01*
X160085301Y-96275861D01*
X160244621Y-96341853D01*
X160244626Y-96341855D01*
X160413766Y-96375499D01*
X160413769Y-96375500D01*
X160413771Y-96375500D01*
X160940900Y-96375500D01*
X161007939Y-96395185D01*
X161053694Y-96447989D01*
X161064900Y-96499500D01*
X161064901Y-99375500D01*
X161045216Y-99442539D01*
X160992413Y-99488294D01*
X160940901Y-99499500D01*
X157059100Y-99499500D01*
X156992061Y-99479815D01*
X156946306Y-99427011D01*
X156935100Y-99375500D01*
X156935099Y-96312929D01*
X156935098Y-96312923D01*
X156935097Y-96312916D01*
X156928691Y-96253317D01*
X156901362Y-96180045D01*
X156878397Y-96118471D01*
X156878393Y-96118464D01*
X156792147Y-96003255D01*
X156792144Y-96003252D01*
X156676935Y-95917006D01*
X156676928Y-95917002D01*
X156542082Y-95866708D01*
X156542083Y-95866708D01*
X156482483Y-95860301D01*
X156482481Y-95860300D01*
X156482473Y-95860300D01*
X156482464Y-95860300D01*
X154888129Y-95860300D01*
X154888123Y-95860301D01*
X154828516Y-95866708D01*
X154693671Y-95917002D01*
X154693664Y-95917006D01*
X154578455Y-96003252D01*
X154578452Y-96003255D01*
X154492206Y-96118464D01*
X154492202Y-96118471D01*
X154441908Y-96253317D01*
X154439334Y-96277263D01*
X154435501Y-96312923D01*
X154435500Y-96312935D01*
X154435500Y-96713730D01*
X154415815Y-96780769D01*
X154363011Y-96826524D01*
X154293853Y-96836468D01*
X154230297Y-96807443D01*
X154196939Y-96761183D01*
X154188170Y-96740014D01*
X154163224Y-96679788D01*
X154041936Y-96469711D01*
X153921633Y-96312929D01*
X153894266Y-96277263D01*
X153894260Y-96277256D01*
X153722743Y-96105739D01*
X153722736Y-96105733D01*
X153530293Y-95958067D01*
X153530292Y-95958066D01*
X153530289Y-95958064D01*
X153358661Y-95858974D01*
X153320214Y-95836777D01*
X153320205Y-95836773D01*
X153096104Y-95743947D01*
X152861785Y-95681161D01*
X152621289Y-95649500D01*
X152621288Y-95649500D01*
X152378712Y-95649500D01*
X152378711Y-95649500D01*
X152138214Y-95681161D01*
X151903895Y-95743947D01*
X151679794Y-95836773D01*
X151679785Y-95836777D01*
X151469706Y-95958067D01*
X151277263Y-96105733D01*
X151277256Y-96105739D01*
X151105739Y-96277256D01*
X151105733Y-96277263D01*
X150958067Y-96469706D01*
X150836777Y-96679785D01*
X150836773Y-96679794D01*
X150743945Y-96903901D01*
X150742643Y-96907738D01*
X150741438Y-96907329D01*
X150707905Y-96962337D01*
X150645057Y-96992863D01*
X150575682Y-96984565D01*
X150521806Y-96940077D01*
X150500535Y-96873524D01*
X150500500Y-96870579D01*
X150500500Y-92015901D01*
X150520185Y-91948862D01*
X150572989Y-91903107D01*
X150642147Y-91893163D01*
X150684891Y-91908658D01*
X150684968Y-91908493D01*
X150686828Y-91909360D01*
X150689605Y-91910367D01*
X150691517Y-91911546D01*
X150691518Y-91911547D01*
X150852393Y-91964855D01*
X150951683Y-91974999D01*
X150975000Y-91974998D01*
X150975000Y-88474239D01*
X150994685Y-88407200D01*
X151047489Y-88361445D01*
X151116647Y-88351501D01*
X151180203Y-88380526D01*
G37*
%TD.AperFunction*%
%TA.AperFunction,Conductor*%
G36*
X165074439Y-86520185D02*
G01*
X165120194Y-86572989D01*
X165130138Y-86642147D01*
X165101113Y-86705703D01*
X165095081Y-86712181D01*
X164302592Y-87504669D01*
X164302576Y-87504687D01*
X164237328Y-87584782D01*
X164158589Y-87741565D01*
X164139391Y-87822572D01*
X164118130Y-87912279D01*
X164118130Y-88087721D01*
X164139391Y-88177428D01*
X164158589Y-88258434D01*
X164237328Y-88415217D01*
X164248764Y-88429255D01*
X164302585Y-88495323D01*
X165504677Y-89697415D01*
X165504687Y-89697423D01*
X165584782Y-89762671D01*
X165584783Y-89762671D01*
X165584785Y-89762673D01*
X165741567Y-89841411D01*
X165912279Y-89881870D01*
X165912281Y-89881870D01*
X166087719Y-89881870D01*
X166087721Y-89881870D01*
X166258433Y-89841411D01*
X166415215Y-89762673D01*
X166495323Y-89697415D01*
X167287819Y-88904919D01*
X167349142Y-88871434D01*
X167418834Y-88876418D01*
X167474767Y-88918290D01*
X167499184Y-88983754D01*
X167499500Y-88992600D01*
X167499500Y-91733257D01*
X167479815Y-91800296D01*
X167427011Y-91846051D01*
X167357853Y-91855995D01*
X167332168Y-91849439D01*
X167282485Y-91830909D01*
X167282483Y-91830908D01*
X167222883Y-91824501D01*
X167222881Y-91824500D01*
X167222873Y-91824500D01*
X167222864Y-91824500D01*
X165777129Y-91824500D01*
X165777123Y-91824501D01*
X165717516Y-91830908D01*
X165582671Y-91881202D01*
X165582664Y-91881206D01*
X165467455Y-91967452D01*
X165405214Y-92050594D01*
X165349279Y-92092465D01*
X165279588Y-92097448D01*
X165222411Y-92067920D01*
X165211434Y-92057913D01*
X165211429Y-92057910D01*
X165026213Y-91943229D01*
X165026207Y-91943226D01*
X164936549Y-91908493D01*
X164823069Y-91864530D01*
X164608926Y-91824500D01*
X164391074Y-91824500D01*
X164176931Y-91864530D01*
X164133896Y-91881202D01*
X163973792Y-91943226D01*
X163973786Y-91943229D01*
X163788576Y-92057906D01*
X163788566Y-92057913D01*
X163627574Y-92204676D01*
X163496288Y-92378527D01*
X163399184Y-92573537D01*
X163339564Y-92783081D01*
X163329478Y-92891927D01*
X163303691Y-92956864D01*
X163293688Y-92968166D01*
X161673675Y-94588181D01*
X161612352Y-94621666D01*
X161585994Y-94624500D01*
X161069364Y-94624500D01*
X161002325Y-94604815D01*
X160956570Y-94552011D01*
X160946626Y-94482853D01*
X160953182Y-94457167D01*
X160989392Y-94360082D01*
X160995801Y-94300473D01*
X160995800Y-90699528D01*
X160989392Y-90639917D01*
X160971113Y-90590909D01*
X160939098Y-90505071D01*
X160939094Y-90505064D01*
X160852848Y-90389855D01*
X160852845Y-90389852D01*
X160737636Y-90303606D01*
X160737629Y-90303602D01*
X160602783Y-90253308D01*
X160602784Y-90253308D01*
X160543184Y-90246901D01*
X160543182Y-90246900D01*
X160543174Y-90246900D01*
X160543165Y-90246900D01*
X159456830Y-90246900D01*
X159456824Y-90246901D01*
X159397217Y-90253308D01*
X159262372Y-90303602D01*
X159262365Y-90303606D01*
X159147156Y-90389852D01*
X159099266Y-90453824D01*
X159043331Y-90495695D01*
X158973640Y-90500678D01*
X158912317Y-90467192D01*
X158900734Y-90453823D01*
X158852847Y-90389855D01*
X158852844Y-90389852D01*
X158737635Y-90303606D01*
X158737628Y-90303602D01*
X158602782Y-90253308D01*
X158602783Y-90253308D01*
X158543183Y-90246901D01*
X158543181Y-90246900D01*
X158543173Y-90246900D01*
X158543165Y-90246900D01*
X158184540Y-90246900D01*
X158117501Y-90227215D01*
X158071746Y-90174411D01*
X158061802Y-90105253D01*
X158090827Y-90041697D01*
X158096859Y-90035219D01*
X158120260Y-90011818D01*
X158181583Y-89978333D01*
X158207941Y-89975499D01*
X158498338Y-89975499D01*
X158498344Y-89975499D01*
X158498352Y-89975498D01*
X158498355Y-89975498D01*
X158552760Y-89969940D01*
X158597708Y-89965349D01*
X158758697Y-89912003D01*
X158903044Y-89822968D01*
X158912668Y-89813343D01*
X158973987Y-89779856D01*
X159043679Y-89784835D01*
X159088034Y-89813339D01*
X159097267Y-89822572D01*
X159097271Y-89822575D01*
X159241507Y-89911542D01*
X159241518Y-89911547D01*
X159402393Y-89964855D01*
X159501683Y-89974999D01*
X159525000Y-89974998D01*
X159525000Y-89250000D01*
X160025000Y-89250000D01*
X160025000Y-89974999D01*
X160048308Y-89974999D01*
X160048322Y-89974998D01*
X160147607Y-89964855D01*
X160308481Y-89911547D01*
X160308492Y-89911542D01*
X160452728Y-89822575D01*
X160452732Y-89822572D01*
X160572572Y-89702732D01*
X160572575Y-89702728D01*
X160661542Y-89558492D01*
X160661547Y-89558481D01*
X160714855Y-89397606D01*
X160724999Y-89298322D01*
X160725000Y-89298309D01*
X160725000Y-89250000D01*
X160025000Y-89250000D01*
X159525000Y-89250000D01*
X159525000Y-86874000D01*
X159544685Y-86806961D01*
X159597489Y-86761206D01*
X159649000Y-86750000D01*
X159805648Y-86750000D01*
X159872687Y-86769685D01*
X159918442Y-86822489D01*
X159928868Y-86887883D01*
X159919435Y-86971607D01*
X159919435Y-86971615D01*
X159939630Y-87150861D01*
X159939633Y-87150874D01*
X159991236Y-87298344D01*
X159999211Y-87321134D01*
X160005992Y-87331926D01*
X160025000Y-87397900D01*
X160025000Y-88750000D01*
X160724999Y-88750000D01*
X160724999Y-88701692D01*
X160724998Y-88701677D01*
X160714855Y-88602392D01*
X160661547Y-88441518D01*
X160661542Y-88441507D01*
X160572575Y-88297271D01*
X160572572Y-88297267D01*
X160452732Y-88177427D01*
X160452728Y-88177424D01*
X160336183Y-88105538D01*
X160289458Y-88053590D01*
X160278237Y-87984628D01*
X160306080Y-87920546D01*
X160336183Y-87894462D01*
X160452731Y-87822573D01*
X160478873Y-87796431D01*
X160540195Y-87762944D01*
X160580439Y-87760889D01*
X160643827Y-87768031D01*
X160724997Y-87777177D01*
X160725000Y-87777177D01*
X160725004Y-87777177D01*
X160904249Y-87756981D01*
X160904252Y-87756980D01*
X160904255Y-87756980D01*
X161074522Y-87697401D01*
X161227262Y-87601428D01*
X161354816Y-87473874D01*
X161450789Y-87321134D01*
X161510368Y-87150867D01*
X161516654Y-87095081D01*
X161530565Y-86971615D01*
X161530565Y-86971608D01*
X161510369Y-86792362D01*
X161510368Y-86792357D01*
X161465963Y-86665455D01*
X161462402Y-86595676D01*
X161497131Y-86535048D01*
X161559124Y-86502821D01*
X161583005Y-86500500D01*
X165007400Y-86500500D01*
X165074439Y-86520185D01*
G37*
%TD.AperFunction*%
%TA.AperFunction,Conductor*%
G36*
X151418039Y-86769685D02*
G01*
X151463794Y-86822489D01*
X151475000Y-86874000D01*
X151475000Y-87591560D01*
X151455315Y-87658599D01*
X151438681Y-87679241D01*
X151370184Y-87747737D01*
X151274209Y-87900480D01*
X151216041Y-88066715D01*
X151175320Y-88123491D01*
X151110367Y-88149238D01*
X151041805Y-88135782D01*
X150991403Y-88087394D01*
X150975000Y-88025760D01*
X150975000Y-86874000D01*
X150994685Y-86806961D01*
X151047489Y-86761206D01*
X151099000Y-86750000D01*
X151351000Y-86750000D01*
X151418039Y-86769685D01*
G37*
%TD.AperFunction*%
%TD*%
M02*
