%TF.GenerationSoftware,KiCad,Pcbnew,7.0.7*%
%TF.CreationDate,2024-03-31T00:03:08-06:00*%
%TF.ProjectId,timer,74696d65-722e-46b6-9963-61645f706362,rev?*%
%TF.SameCoordinates,Original*%
%TF.FileFunction,Copper,L1,Top*%
%TF.FilePolarity,Positive*%
%FSLAX46Y46*%
G04 Gerber Fmt 4.6, Leading zero omitted, Abs format (unit mm)*
G04 Created by KiCad (PCBNEW 7.0.7) date 2024-03-31 00:03:08*
%MOMM*%
%LPD*%
G01*
G04 APERTURE LIST*
G04 Aperture macros list*
%AMRoundRect*
0 Rectangle with rounded corners*
0 $1 Rounding radius*
0 $2 $3 $4 $5 $6 $7 $8 $9 X,Y pos of 4 corners*
0 Add a 4 corners polygon primitive as box body*
4,1,4,$2,$3,$4,$5,$6,$7,$8,$9,$2,$3,0*
0 Add four circle primitives for the rounded corners*
1,1,$1+$1,$2,$3*
1,1,$1+$1,$4,$5*
1,1,$1+$1,$6,$7*
1,1,$1+$1,$8,$9*
0 Add four rect primitives between the rounded corners*
20,1,$1+$1,$2,$3,$4,$5,0*
20,1,$1+$1,$4,$5,$6,$7,0*
20,1,$1+$1,$6,$7,$8,$9,0*
20,1,$1+$1,$8,$9,$2,$3,0*%
G04 Aperture macros list end*
%TA.AperFunction,SMDPad,CuDef*%
%ADD10RoundRect,0.150000X-0.587500X-0.150000X0.587500X-0.150000X0.587500X0.150000X-0.587500X0.150000X0*%
%TD*%
%TA.AperFunction,SMDPad,CuDef*%
%ADD11RoundRect,0.150000X0.587500X0.150000X-0.587500X0.150000X-0.587500X-0.150000X0.587500X-0.150000X0*%
%TD*%
%TA.AperFunction,SMDPad,CuDef*%
%ADD12R,1.600000X0.550000*%
%TD*%
%TA.AperFunction,SMDPad,CuDef*%
%ADD13R,0.550000X1.600000*%
%TD*%
%TA.AperFunction,ComponentPad*%
%ADD14C,1.600000*%
%TD*%
%TA.AperFunction,ComponentPad*%
%ADD15R,1.600000X1.600000*%
%TD*%
%TA.AperFunction,SMDPad,CuDef*%
%ADD16R,0.250000X0.275000*%
%TD*%
%TA.AperFunction,SMDPad,CuDef*%
%ADD17R,0.275000X0.250000*%
%TD*%
%TA.AperFunction,ComponentPad*%
%ADD18R,1.000000X1.000000*%
%TD*%
%TA.AperFunction,ComponentPad*%
%ADD19O,1.000000X1.000000*%
%TD*%
%TA.AperFunction,SMDPad,CuDef*%
%ADD20RoundRect,0.100000X-0.100000X0.130000X-0.100000X-0.130000X0.100000X-0.130000X0.100000X0.130000X0*%
%TD*%
%TA.AperFunction,SMDPad,CuDef*%
%ADD21RoundRect,0.050000X0.100000X-0.285000X0.100000X0.285000X-0.100000X0.285000X-0.100000X-0.285000X0*%
%TD*%
%TA.AperFunction,SMDPad,CuDef*%
%ADD22R,1.000000X3.500000*%
%TD*%
%TA.AperFunction,ComponentPad*%
%ADD23R,0.850000X0.850000*%
%TD*%
%TA.AperFunction,ComponentPad*%
%ADD24O,0.850000X0.850000*%
%TD*%
%TA.AperFunction,SMDPad,CuDef*%
%ADD25RoundRect,0.135000X0.135000X0.185000X-0.135000X0.185000X-0.135000X-0.185000X0.135000X-0.185000X0*%
%TD*%
%TA.AperFunction,ViaPad*%
%ADD26C,0.800000*%
%TD*%
%TA.AperFunction,Conductor*%
%ADD27C,1.000000*%
%TD*%
%TA.AperFunction,Conductor*%
%ADD28C,0.250000*%
%TD*%
%TA.AperFunction,Conductor*%
%ADD29C,0.750000*%
%TD*%
G04 APERTURE END LIST*
D10*
%TO.P,Q4,1,G*%
%TO.N,t3*%
X221062500Y-86300000D03*
%TO.P,Q4,2,S*%
%TO.N,c3*%
X221062500Y-88200000D03*
%TO.P,Q4,3,D*%
%TO.N,V_{cc}*%
X222937500Y-87250000D03*
%TD*%
D11*
%TO.P,Q3,1,G*%
%TO.N,t2*%
X209000000Y-95150000D03*
%TO.P,Q3,2,S*%
%TO.N,c2*%
X209000000Y-93250000D03*
%TO.P,Q3,3,D*%
%TO.N,V_{cc}*%
X207125000Y-94200000D03*
%TD*%
D12*
%TO.P,U1,1,PD3*%
%TO.N,t3*%
X215750000Y-83050000D03*
%TO.P,U1,2,PD4*%
%TO.N,unconnected-(U1-PD4-Pad2)*%
X215750000Y-82250000D03*
%TO.P,U1,3,PA2*%
%TO.N,unconnected-(U1-PA2-Pad3)*%
X215750000Y-81450000D03*
%TO.P,U1,4,VCC*%
%TO.N,V_{reg}*%
X215750000Y-80650000D03*
%TO.P,U1,5,GND*%
%TO.N,GND*%
X215750000Y-79850000D03*
%TO.P,U1,6,PA3*%
%TO.N,unconnected-(U1-PA3-Pad6)*%
X215750000Y-79050000D03*
%TO.P,U1,7,PB6*%
%TO.N,SDA*%
X215750000Y-78250000D03*
%TO.P,U1,8,PB7*%
%TO.N,SCL*%
X215750000Y-77450000D03*
D13*
%TO.P,U1,9,PD5*%
%TO.N,unconnected-(U1-PD5-Pad9)*%
X214300000Y-76000000D03*
%TO.P,U1,10,PD6*%
%TO.N,unconnected-(U1-PD6-Pad10)*%
X213500000Y-76000000D03*
%TO.P,U1,11,PD7*%
%TO.N,unconnected-(U1-PD7-Pad11)*%
X212700000Y-76000000D03*
%TO.P,U1,12,PB0*%
%TO.N,unconnected-(U1-PB0-Pad12)*%
X211900000Y-76000000D03*
%TO.P,U1,13,PB1*%
%TO.N,unconnected-(U1-PB1-Pad13)*%
X211100000Y-76000000D03*
%TO.P,U1,14,PB2*%
%TO.N,unconnected-(U1-PB2-Pad14)*%
X210300000Y-76000000D03*
%TO.P,U1,15,PB3*%
%TO.N,MOSI*%
X209500000Y-76000000D03*
%TO.P,U1,16,PB4*%
%TO.N,MISO*%
X208700000Y-76000000D03*
D12*
%TO.P,U1,17,PB5*%
%TO.N,SCK*%
X207250000Y-77450000D03*
%TO.P,U1,18,AVCC*%
%TO.N,V_{reg}*%
X207250000Y-78250000D03*
%TO.P,U1,19,PA0*%
%TO.N,unconnected-(U1-PA0-Pad19)*%
X207250000Y-79050000D03*
%TO.P,U1,20,PC7*%
%TO.N,unconnected-(U1-PC7-Pad20)*%
X207250000Y-79850000D03*
%TO.P,U1,21,GND*%
%TO.N,GND*%
X207250000Y-80650000D03*
%TO.P,U1,22,PA1*%
%TO.N,unconnected-(U1-PA1-Pad22)*%
X207250000Y-81450000D03*
%TO.P,U1,23,PC0*%
%TO.N,unconnected-(U1-PC0-Pad23)*%
X207250000Y-82250000D03*
%TO.P,U1,24,PC1*%
%TO.N,unconnected-(U1-PC1-Pad24)*%
X207250000Y-83050000D03*
D13*
%TO.P,U1,25,PC2*%
%TO.N,unconnected-(U1-PC2-Pad25)*%
X208700000Y-84500000D03*
%TO.P,U1,26,PC3*%
%TO.N,unconnected-(U1-PC3-Pad26)*%
X209500000Y-84500000D03*
%TO.P,U1,27,PC4*%
%TO.N,unconnected-(U1-PC4-Pad27)*%
X210300000Y-84500000D03*
%TO.P,U1,28,PC5*%
%TO.N,unconnected-(U1-PC5-Pad28)*%
X211100000Y-84500000D03*
%TO.P,U1,29,~{RESET}/PC6*%
%TO.N,~{RESET}*%
X211900000Y-84500000D03*
%TO.P,U1,30,PD0*%
%TO.N,t0*%
X212700000Y-84500000D03*
%TO.P,U1,31,PD1*%
%TO.N,t1*%
X213500000Y-84500000D03*
%TO.P,U1,32,PD2*%
%TO.N,t2*%
X214300000Y-84500000D03*
%TD*%
D11*
%TO.P,Q1,1,G*%
%TO.N,t0*%
X209000000Y-88250000D03*
%TO.P,Q1,2,S*%
%TO.N,c0*%
X209000000Y-86350000D03*
%TO.P,Q1,3,D*%
%TO.N,V_{cc}*%
X207125000Y-87300000D03*
%TD*%
D14*
%TO.P,C2,2*%
%TO.N,GND*%
X221000000Y-91250000D03*
D15*
%TO.P,C2,1*%
%TO.N,V_{cc}*%
X221000000Y-93250000D03*
%TD*%
D16*
%TO.P,U3,1,V_{PP}*%
%TO.N,GND*%
X216750000Y-87737500D03*
%TO.P,U3,2,SDA*%
%TO.N,SDA*%
X216250000Y-87737500D03*
%TO.P,U3,3,V_{DD}*%
%TO.N,V_{reg}*%
X215750000Y-87737500D03*
%TO.P,U3,4,NC*%
%TO.N,unconnected-(U3-NC-Pad4)*%
X215250000Y-87737500D03*
D17*
%TO.P,U3,5,INTN*%
%TO.N,V_{reg}*%
X215237500Y-88250000D03*
%TO.P,U3,6,NC*%
%TO.N,unconnected-(U3-NC-Pad6)*%
X215237500Y-88750000D03*
D16*
%TO.P,U3,7,NC*%
%TO.N,unconnected-(U3-NC-Pad7)*%
X215250000Y-89262500D03*
%TO.P,U3,8,NC*%
%TO.N,unconnected-(U3-NC-Pad8)*%
X215750000Y-89262500D03*
%TO.P,U3,9,GND*%
%TO.N,GND*%
X216250000Y-89262500D03*
%TO.P,U3,10,NC*%
%TO.N,unconnected-(U3-NC-Pad10)*%
X216750000Y-89262500D03*
D17*
%TO.P,U3,11,NC*%
%TO.N,unconnected-(U3-NC-Pad11)*%
X216762500Y-88750000D03*
%TO.P,U3,12,SCL*%
%TO.N,SCL*%
X216762500Y-88250000D03*
%TD*%
D18*
%TO.P,J1,1,MISO*%
%TO.N,MISO*%
X221000000Y-104980000D03*
D19*
%TO.P,J1,2,VCC*%
%TO.N,GND*%
X222270000Y-104980000D03*
%TO.P,J1,3,SCK*%
%TO.N,SCK*%
X221000000Y-106250000D03*
%TO.P,J1,4,MOSI*%
%TO.N,MOSI*%
X222270000Y-106250000D03*
%TO.P,J1,5,~{RST}*%
%TO.N,~{RESET}*%
X221000000Y-107520000D03*
%TO.P,J1,6,GND*%
%TO.N,V_{cc}*%
X222270000Y-107520000D03*
%TD*%
D11*
%TO.P,Q2,1,G*%
%TO.N,t1*%
X209000000Y-91650000D03*
%TO.P,Q2,2,S*%
%TO.N,c1*%
X209000000Y-89750000D03*
%TO.P,Q2,3,D*%
%TO.N,V_{cc}*%
X207125000Y-90700000D03*
%TD*%
D20*
%TO.P,L1,1*%
%TO.N,Net-(U2-SW)*%
X211750000Y-99000000D03*
%TO.P,L1,2*%
%TO.N,V_{cc}*%
X211750000Y-99640000D03*
%TD*%
D15*
%TO.P,C1,1*%
%TO.N,V_{cc}*%
X219000000Y-101955113D03*
D14*
%TO.P,C1,2*%
%TO.N,GND*%
X219000000Y-99955113D03*
%TD*%
D21*
%TO.P,U2,1,VIN*%
%TO.N,V_{cc}*%
X212750000Y-99490000D03*
%TO.P,U2,2,EN*%
X213250000Y-99490000D03*
%TO.P,U2,3,MODE*%
X213750000Y-99490000D03*
%TO.P,U2,4,PG*%
%TO.N,Net-(U2-PG)*%
X214250000Y-99490000D03*
%TO.P,U2,5,FB*%
%TO.N,unconnected-(U2-FB-Pad5)*%
X214250000Y-98010000D03*
%TO.P,U2,6,GND*%
%TO.N,GND*%
X213750000Y-98010000D03*
%TO.P,U2,7,SW*%
%TO.N,Net-(U2-SW)*%
X213250000Y-98010000D03*
%TO.P,U2,8,VOUT*%
%TO.N,V_{reg}*%
X212750000Y-98010000D03*
%TD*%
D22*
%TO.P,BT1,1,+*%
%TO.N,V_{cc}*%
X214500000Y-106000000D03*
%TO.P,BT1,2,-*%
%TO.N,GND*%
X216500000Y-106000000D03*
%TD*%
D23*
%TO.P,J2,1,Pin_1*%
%TO.N,c0*%
X220000000Y-80000000D03*
D24*
%TO.P,J2,2,Pin_2*%
%TO.N,c1*%
X220000000Y-81000000D03*
%TO.P,J2,3,Pin_3*%
%TO.N,c2*%
X220000000Y-82000000D03*
%TO.P,J2,4,Pin_4*%
%TO.N,c3*%
X220000000Y-83000000D03*
%TO.P,J2,5,Pin_5*%
%TO.N,GND*%
X220000000Y-84000000D03*
%TD*%
D25*
%TO.P,R1,1*%
%TO.N,Net-(U2-PG)*%
X213510000Y-96750000D03*
%TO.P,R1,2*%
%TO.N,V_{reg}*%
X212490000Y-96750000D03*
%TD*%
D26*
%TO.N,V_{cc}*%
X213250000Y-107250000D03*
%TO.N,V_{reg}*%
X212500000Y-80650000D03*
X215500000Y-76250000D03*
%TO.N,GND*%
X216250000Y-90250000D03*
X222250000Y-100250000D03*
X216600500Y-86500000D03*
X210750000Y-80750000D03*
X214000000Y-79750000D03*
%TO.N,~{RESET}*%
X214750000Y-103000000D03*
%TO.N,GND*%
X214813505Y-98750012D03*
%TO.N,MISO*%
X207250000Y-75500497D03*
%TO.N,SCK*%
X207250000Y-76500000D03*
%TO.N,MOSI*%
X209500000Y-77500000D03*
%TO.N,~{RESET}*%
X210750000Y-86000000D03*
%TO.N,c0*%
X211750000Y-87000000D03*
%TO.N,c1*%
X211737701Y-88987701D03*
%TO.N,c2*%
X211750000Y-91750000D03*
%TO.N,c3*%
X222500000Y-88250000D03*
%TO.N,t3*%
X215750000Y-84250000D03*
X221062500Y-86300000D03*
%TD*%
D27*
%TO.N,V_{cc}*%
X214500000Y-106000000D02*
X213250000Y-107250000D01*
D28*
%TO.N,GND*%
X223095000Y-105805000D02*
X222270000Y-104980000D01*
X223095000Y-107861727D02*
X223095000Y-105805000D01*
X222611727Y-108345000D02*
X223095000Y-107861727D01*
X216500000Y-106000000D02*
X218845000Y-108345000D01*
X218845000Y-108345000D02*
X222611727Y-108345000D01*
%TO.N,V_{reg}*%
X212500000Y-80650000D02*
X212400000Y-80650000D01*
X215750000Y-80650000D02*
X212500000Y-80650000D01*
X216275000Y-76250000D02*
X215500000Y-76250000D01*
X215525305Y-92000000D02*
X218000000Y-89525305D01*
X214750000Y-92000000D02*
X215525305Y-92000000D01*
X214750000Y-92000000D02*
X214750000Y-94490000D01*
X218000000Y-77975000D02*
X216275000Y-76250000D01*
X214750000Y-88350000D02*
X214750000Y-92000000D01*
X218000000Y-89525305D02*
X218000000Y-77975000D01*
%TO.N,GND*%
X216250000Y-90000000D02*
X216250000Y-90250000D01*
%TO.N,Net-(U2-PG)*%
X215260000Y-99490000D02*
X214250000Y-99490000D01*
X215750000Y-99000000D02*
X215260000Y-99490000D01*
X213905330Y-96750000D02*
X215750000Y-98594670D01*
X213510000Y-96750000D02*
X213905330Y-96750000D01*
X215750000Y-98594670D02*
X215750000Y-99000000D01*
D29*
%TO.N,V_{cc}*%
X223475000Y-87787500D02*
X222937500Y-87250000D01*
X223475000Y-90775000D02*
X223475000Y-87787500D01*
X221000000Y-93250000D02*
X223475000Y-90775000D01*
D27*
X219121321Y-101955113D02*
X219000000Y-101955113D01*
X220500000Y-100576434D02*
X219121321Y-101955113D01*
X219621321Y-98455113D02*
X220500000Y-99333792D01*
X219621321Y-94628679D02*
X219621321Y-98455113D01*
X221000000Y-93250000D02*
X219621321Y-94628679D01*
X220500000Y-99333792D02*
X220500000Y-100576434D01*
D28*
%TO.N,SDA*%
X216675000Y-78250000D02*
X215750000Y-78250000D01*
X216875000Y-84150305D02*
X216875000Y-78450000D01*
X215875500Y-85149805D02*
X216875000Y-84150305D01*
X216250000Y-87174805D02*
X215875500Y-86800305D01*
X215875500Y-86800305D02*
X215875500Y-85149805D01*
X216250000Y-87737500D02*
X216250000Y-87174805D01*
X216875000Y-78450000D02*
X216675000Y-78250000D01*
%TO.N,GND*%
X216750000Y-86649500D02*
X216600500Y-86500000D01*
X216750000Y-87737500D02*
X216750000Y-86649500D01*
%TO.N,V_{reg}*%
X214750000Y-94490000D02*
X212490000Y-96750000D01*
X214850000Y-88250000D02*
X214750000Y-88350000D01*
X215237500Y-88250000D02*
X214850000Y-88250000D01*
%TO.N,GND*%
X216250000Y-89262500D02*
X216250000Y-90000000D01*
X210650000Y-80650000D02*
X210750000Y-80750000D01*
X207250000Y-80650000D02*
X210650000Y-80650000D01*
X214100000Y-79850000D02*
X214000000Y-79750000D01*
X215750000Y-79850000D02*
X214100000Y-79850000D01*
D27*
%TO.N,V_{cc}*%
X213650000Y-101600000D02*
X213650000Y-105150000D01*
X214282170Y-100967830D02*
X213650000Y-101600000D01*
X213650000Y-105150000D02*
X214500000Y-106000000D01*
X214282170Y-100967830D02*
X213244340Y-99930000D01*
X215269453Y-101955113D02*
X214282170Y-100967830D01*
D28*
%TO.N,~{RESET}*%
X215675000Y-103925000D02*
X214750000Y-103000000D01*
X217405000Y-103925000D02*
X215675000Y-103925000D01*
X221000000Y-107520000D02*
X217405000Y-103925000D01*
D27*
%TO.N,V_{cc}*%
X213244340Y-99930000D02*
X211318629Y-99930000D01*
X219000000Y-101955113D02*
X215269453Y-101955113D01*
X212475000Y-99930000D02*
X212960000Y-99930000D01*
X212960000Y-99930000D02*
X213400000Y-99490000D01*
X212475000Y-99930000D02*
X212750000Y-99655000D01*
X208060418Y-96671789D02*
X211318629Y-99930000D01*
X208060418Y-96150000D02*
X208060418Y-96671789D01*
X211318629Y-99930000D02*
X212475000Y-99930000D01*
D28*
%TO.N,GND*%
X214813493Y-98750000D02*
X214813505Y-98750012D01*
X214074670Y-98750000D02*
X214813493Y-98750000D01*
X213750000Y-98010000D02*
X213750000Y-98425330D01*
X213750000Y-98425330D02*
X214074670Y-98750000D01*
%TO.N,V_{cc}*%
X213250000Y-99490000D02*
X213750000Y-99490000D01*
X212750000Y-99490000D02*
X213250000Y-99490000D01*
X212600000Y-99640000D02*
X212750000Y-99490000D01*
X211750000Y-99640000D02*
X212600000Y-99640000D01*
%TO.N,V_{reg}*%
X212750000Y-97010000D02*
X212490000Y-96750000D01*
X212750000Y-98010000D02*
X212750000Y-97010000D01*
%TO.N,Net-(U2-SW)*%
X211920000Y-98830000D02*
X211750000Y-99000000D01*
X212845330Y-98830000D02*
X211920000Y-98830000D01*
X213250000Y-98010000D02*
X213250000Y-98425330D01*
X213250000Y-98425330D02*
X212845330Y-98830000D01*
D27*
%TO.N,V_{cc}*%
X207125000Y-90700000D02*
X207125000Y-87300000D01*
X208060418Y-96150000D02*
X207125000Y-95214582D01*
X207125000Y-95214582D02*
X207125000Y-94200000D01*
X207125000Y-94200000D02*
X207125000Y-90700000D01*
D28*
%TO.N,MISO*%
X208200497Y-75500497D02*
X207250000Y-75500497D01*
X208700000Y-76000000D02*
X208200497Y-75500497D01*
%TO.N,SCK*%
X207250000Y-77450000D02*
X207250000Y-76500000D01*
%TO.N,MOSI*%
X209500000Y-76000000D02*
X209500000Y-77500000D01*
%TO.N,~{RESET}*%
X211900000Y-84500000D02*
X211900000Y-85550000D01*
X211900000Y-85550000D02*
X211450000Y-86000000D01*
X211450000Y-86000000D02*
X210750000Y-86000000D01*
%TO.N,c0*%
X209000000Y-86350000D02*
X209650000Y-87000000D01*
X209650000Y-87000000D02*
X211750000Y-87000000D01*
%TO.N,c1*%
X209000000Y-89750000D02*
X210975402Y-89750000D01*
X210975402Y-89750000D02*
X211737701Y-88987701D01*
%TO.N,c2*%
X209000000Y-93250000D02*
X210250000Y-93250000D01*
X210250000Y-93250000D02*
X211750000Y-91750000D01*
%TO.N,c3*%
X221112500Y-88250000D02*
X221062500Y-88200000D01*
X222500000Y-88250000D02*
X221112500Y-88250000D01*
%TO.N,t0*%
X212700000Y-87550000D02*
X212000000Y-88250000D01*
X212700000Y-84500000D02*
X212700000Y-87550000D01*
X212000000Y-88250000D02*
X209000000Y-88250000D01*
%TO.N,t1*%
X213500000Y-88250000D02*
X210100000Y-91650000D01*
X210100000Y-91650000D02*
X209000000Y-91650000D01*
X213500000Y-84500000D02*
X213500000Y-88250000D01*
%TO.N,t2*%
X210386827Y-95150000D02*
X214300000Y-91236827D01*
X209000000Y-95150000D02*
X210386827Y-95150000D01*
X214300000Y-91236827D02*
X214300000Y-84500000D01*
%TO.N,t3*%
X215750000Y-83050000D02*
X215750000Y-84250000D01*
%TO.N,V_{reg}*%
X215750000Y-88150000D02*
X215650000Y-88250000D01*
X215650000Y-88250000D02*
X215237500Y-88250000D01*
X215750000Y-87737500D02*
X215750000Y-88150000D01*
X212400000Y-80650000D02*
X210000000Y-78250000D01*
X210000000Y-78250000D02*
X207250000Y-78250000D01*
%TO.N,SCL*%
X217325000Y-78263604D02*
X216511396Y-77450000D01*
X216511396Y-77450000D02*
X215750000Y-77450000D01*
X217000000Y-88250000D02*
X217325000Y-87925000D01*
X217325000Y-87925000D02*
X217325000Y-78263604D01*
X216762500Y-88250000D02*
X217000000Y-88250000D01*
%TD*%
%TA.AperFunction,Conductor*%
%TO.N,GND*%
G36*
X206205703Y-95645400D02*
G01*
X206229442Y-95675424D01*
X206230163Y-95674949D01*
X206233622Y-95680198D01*
X206233623Y-95680199D01*
X206265533Y-95728618D01*
X206267377Y-95731415D01*
X206269818Y-95735445D01*
X206299588Y-95789080D01*
X206299589Y-95789081D01*
X206299591Y-95789084D01*
X206321968Y-95815149D01*
X206326693Y-95821417D01*
X206345597Y-95850100D01*
X206388965Y-95893468D01*
X206392168Y-95896924D01*
X206432135Y-95943478D01*
X206459299Y-95964505D01*
X206465186Y-95969689D01*
X206767328Y-96271830D01*
X207023599Y-96528101D01*
X207057084Y-96589424D01*
X207059918Y-96615782D01*
X207059918Y-96659072D01*
X207057661Y-96748151D01*
X207057661Y-96748159D01*
X207068482Y-96808528D01*
X207069136Y-96813193D01*
X207075343Y-96874219D01*
X207075345Y-96874233D01*
X207085626Y-96907002D01*
X207087497Y-96914626D01*
X207093560Y-96948441D01*
X207093560Y-96948444D01*
X207116312Y-97005401D01*
X207117892Y-97009840D01*
X207136259Y-97068377D01*
X207136262Y-97068384D01*
X207152927Y-97098408D01*
X207156297Y-97105503D01*
X207169040Y-97137403D01*
X207169045Y-97137413D01*
X207202795Y-97188622D01*
X207205236Y-97192652D01*
X207235006Y-97246287D01*
X207235007Y-97246288D01*
X207235009Y-97246291D01*
X207257386Y-97272356D01*
X207262111Y-97278624D01*
X207274681Y-97297695D01*
X207281016Y-97307308D01*
X207324396Y-97350688D01*
X207327587Y-97354132D01*
X207367549Y-97400681D01*
X207367548Y-97400681D01*
X207394717Y-97421712D01*
X207400604Y-97426896D01*
X210602176Y-100628467D01*
X210663570Y-100693053D01*
X210663573Y-100693055D01*
X210663576Y-100693058D01*
X210697682Y-100716795D01*
X210713932Y-100728106D01*
X210717673Y-100730926D01*
X210765222Y-100769698D01*
X210795674Y-100785604D01*
X210802385Y-100789671D01*
X210830580Y-100809295D01*
X210886961Y-100833490D01*
X210891196Y-100835501D01*
X210945580Y-100863909D01*
X210978602Y-100873356D01*
X210985994Y-100875989D01*
X211017569Y-100889539D01*
X211017570Y-100889540D01*
X211030683Y-100892234D01*
X211077684Y-100901892D01*
X211082224Y-100903006D01*
X211141211Y-100919886D01*
X211175470Y-100922494D01*
X211183238Y-100923585D01*
X211216884Y-100930500D01*
X211216888Y-100930500D01*
X211278230Y-100930500D01*
X211282937Y-100930678D01*
X211306129Y-100932445D01*
X211344104Y-100935337D01*
X211344104Y-100935336D01*
X211344105Y-100935337D01*
X211378188Y-100930996D01*
X211386018Y-100930500D01*
X212373259Y-100930500D01*
X212462284Y-100930500D01*
X212551359Y-100932757D01*
X212551361Y-100932757D01*
X212551361Y-100932756D01*
X212551363Y-100932757D01*
X212552410Y-100932569D01*
X212553105Y-100932445D01*
X212574979Y-100930500D01*
X212660772Y-100930500D01*
X212727811Y-100950185D01*
X212773566Y-101002989D01*
X212783510Y-101072147D01*
X212772196Y-101105749D01*
X212773184Y-101106173D01*
X212746509Y-101168330D01*
X212744488Y-101172584D01*
X212716091Y-101226951D01*
X212716090Y-101226952D01*
X212706640Y-101259975D01*
X212704007Y-101267371D01*
X212690459Y-101298943D01*
X212678113Y-101359019D01*
X212676990Y-101363595D01*
X212660113Y-101422577D01*
X212660113Y-101422579D01*
X212657503Y-101456841D01*
X212656414Y-101464608D01*
X212650980Y-101491052D01*
X212649500Y-101498258D01*
X212649500Y-101559597D01*
X212649321Y-101564306D01*
X212644662Y-101625474D01*
X212646707Y-101641527D01*
X212649003Y-101659560D01*
X212649500Y-101667388D01*
X212649500Y-105137283D01*
X212647243Y-105226362D01*
X212647243Y-105226370D01*
X212658064Y-105286739D01*
X212658718Y-105291404D01*
X212664925Y-105352430D01*
X212664927Y-105352444D01*
X212675208Y-105385213D01*
X212677079Y-105392837D01*
X212683142Y-105426652D01*
X212683142Y-105426655D01*
X212705894Y-105483612D01*
X212707474Y-105488051D01*
X212725841Y-105546588D01*
X212725844Y-105546595D01*
X212742509Y-105576619D01*
X212745879Y-105583714D01*
X212758622Y-105615614D01*
X212758627Y-105615624D01*
X212792377Y-105666833D01*
X212794818Y-105670863D01*
X212824588Y-105724498D01*
X212824589Y-105724499D01*
X212824591Y-105724502D01*
X212846968Y-105750567D01*
X212851693Y-105756835D01*
X212864263Y-105775906D01*
X212870598Y-105785519D01*
X212913978Y-105828899D01*
X212917169Y-105832343D01*
X212957131Y-105878892D01*
X212957134Y-105878895D01*
X212984294Y-105899918D01*
X212990190Y-105905111D01*
X212997398Y-105912319D01*
X213030883Y-105973642D01*
X213025899Y-106043334D01*
X212997398Y-106087681D01*
X212506662Y-106578417D01*
X212451191Y-106646447D01*
X212410302Y-106696593D01*
X212349179Y-106813607D01*
X212316090Y-106876953D01*
X212260112Y-107072584D01*
X212244662Y-107275474D01*
X212244662Y-107275477D01*
X212270368Y-107477321D01*
X212270370Y-107477329D01*
X212336183Y-107669870D01*
X212336189Y-107669882D01*
X212439406Y-107845221D01*
X212439411Y-107845228D01*
X212575820Y-107996212D01*
X212739828Y-108116646D01*
X212739835Y-108116650D01*
X212907738Y-108193797D01*
X212924732Y-108201605D01*
X212990456Y-108216857D01*
X213122945Y-108247603D01*
X213326358Y-108252757D01*
X213326358Y-108252756D01*
X213326363Y-108252757D01*
X213505853Y-108220586D01*
X213526648Y-108216859D01*
X213526648Y-108216858D01*
X213526653Y-108216858D01*
X213632766Y-108174470D01*
X213702324Y-108167883D01*
X213753074Y-108190357D01*
X213757664Y-108193793D01*
X213757671Y-108193797D01*
X213892517Y-108244091D01*
X213892516Y-108244091D01*
X213899444Y-108244835D01*
X213952127Y-108250500D01*
X215047872Y-108250499D01*
X215107483Y-108244091D01*
X215242331Y-108193796D01*
X215357546Y-108107546D01*
X215401046Y-108049436D01*
X215456979Y-108007567D01*
X215526671Y-108002583D01*
X215587994Y-108036068D01*
X215599578Y-108049438D01*
X215642809Y-108107187D01*
X215642812Y-108107190D01*
X215757906Y-108193350D01*
X215757913Y-108193354D01*
X215892620Y-108243596D01*
X215892627Y-108243598D01*
X215952155Y-108249999D01*
X215952172Y-108250000D01*
X217047828Y-108250000D01*
X217047844Y-108249999D01*
X217107372Y-108243598D01*
X217107379Y-108243596D01*
X217242086Y-108193354D01*
X217242093Y-108193350D01*
X217357187Y-108107190D01*
X217357190Y-108107187D01*
X217443350Y-107992093D01*
X217443354Y-107992086D01*
X217493596Y-107857379D01*
X217493598Y-107857372D01*
X217499999Y-107797844D01*
X217500000Y-107797827D01*
X217500000Y-107353553D01*
X216234128Y-106087681D01*
X216200643Y-106026358D01*
X216205627Y-105956666D01*
X216234128Y-105912319D01*
X216412318Y-105734128D01*
X216473641Y-105700643D01*
X216543332Y-105705627D01*
X216587680Y-105734128D01*
X217499999Y-106646447D01*
X217500000Y-106646446D01*
X217500000Y-105203952D01*
X217519685Y-105136913D01*
X217572489Y-105091158D01*
X217641647Y-105081214D01*
X217705203Y-105110239D01*
X217711681Y-105116271D01*
X219964015Y-107368605D01*
X219997500Y-107429928D01*
X219999737Y-107468439D01*
X219994659Y-107519999D01*
X220013975Y-107716129D01*
X220071188Y-107904733D01*
X220164086Y-108078532D01*
X220164090Y-108078539D01*
X220289116Y-108230883D01*
X220441460Y-108355909D01*
X220441467Y-108355913D01*
X220615271Y-108448813D01*
X220615273Y-108448814D01*
X220691058Y-108471803D01*
X220806556Y-108506840D01*
X220864994Y-108545137D01*
X220893451Y-108608949D01*
X220882890Y-108678016D01*
X220836665Y-108730410D01*
X220770560Y-108749500D01*
X206124500Y-108749500D01*
X206057461Y-108729815D01*
X206011706Y-108677011D01*
X206000500Y-108625500D01*
X206000500Y-106500000D01*
X206894341Y-106500000D01*
X206914936Y-106735403D01*
X206914938Y-106735413D01*
X206976094Y-106963654D01*
X206976095Y-106963658D01*
X206976097Y-106963663D01*
X207026030Y-107070745D01*
X207075964Y-107177828D01*
X207075965Y-107177830D01*
X207211505Y-107371402D01*
X207378597Y-107538494D01*
X207572169Y-107674034D01*
X207572171Y-107674035D01*
X207786337Y-107773903D01*
X208014592Y-107835063D01*
X208191034Y-107850500D01*
X208308966Y-107850500D01*
X208485408Y-107835063D01*
X208713663Y-107773903D01*
X208927829Y-107674035D01*
X209121401Y-107538495D01*
X209288495Y-107371401D01*
X209424035Y-107177830D01*
X209523903Y-106963663D01*
X209523904Y-106963656D01*
X209523906Y-106963654D01*
X209559590Y-106830475D01*
X209585063Y-106735408D01*
X209605659Y-106500000D01*
X209585063Y-106264592D01*
X209523903Y-106036337D01*
X209424035Y-105822171D01*
X209424034Y-105822169D01*
X209288494Y-105628597D01*
X209121402Y-105461505D01*
X208927830Y-105325965D01*
X208927828Y-105325964D01*
X208794894Y-105263976D01*
X208713663Y-105226097D01*
X208713659Y-105226096D01*
X208713655Y-105226094D01*
X208485413Y-105164938D01*
X208485403Y-105164936D01*
X208308966Y-105149500D01*
X208191034Y-105149500D01*
X208014596Y-105164936D01*
X208014586Y-105164938D01*
X207786344Y-105226094D01*
X207786335Y-105226098D01*
X207572171Y-105325964D01*
X207572169Y-105325965D01*
X207378597Y-105461505D01*
X207211506Y-105628597D01*
X207211501Y-105628604D01*
X207075967Y-105822165D01*
X207075965Y-105822169D01*
X206976098Y-106036335D01*
X206976094Y-106036344D01*
X206914938Y-106264586D01*
X206914936Y-106264596D01*
X206894341Y-106499999D01*
X206894341Y-106500000D01*
X206000500Y-106500000D01*
X206000500Y-95739113D01*
X206020185Y-95672074D01*
X206072989Y-95626319D01*
X206142147Y-95616375D01*
X206205703Y-95645400D01*
G37*
%TD.AperFunction*%
%TA.AperFunction,Conductor*%
G36*
X221689507Y-108342194D02*
G01*
X221706148Y-108352888D01*
X221706393Y-108352523D01*
X221711458Y-108355907D01*
X221711462Y-108355910D01*
X221885271Y-108448813D01*
X221885273Y-108448814D01*
X222076556Y-108506840D01*
X222134994Y-108545137D01*
X222163451Y-108608949D01*
X222152890Y-108678016D01*
X222106665Y-108730410D01*
X222040560Y-108749500D01*
X221229440Y-108749500D01*
X221162401Y-108729815D01*
X221116646Y-108677011D01*
X221106702Y-108607853D01*
X221135727Y-108544297D01*
X221193444Y-108506840D01*
X221320448Y-108468312D01*
X221384727Y-108448814D01*
X221558538Y-108355910D01*
X221558544Y-108355904D01*
X221563607Y-108352523D01*
X221564703Y-108354164D01*
X221620639Y-108330405D01*
X221689507Y-108342194D01*
G37*
%TD.AperFunction*%
%TA.AperFunction,Conductor*%
G36*
X223918834Y-91671822D02*
G01*
X223974767Y-91713694D01*
X223999184Y-91779158D01*
X223999500Y-91788004D01*
X223999500Y-108625500D01*
X223979815Y-108692539D01*
X223927011Y-108738294D01*
X223875500Y-108749500D01*
X222499440Y-108749500D01*
X222432401Y-108729815D01*
X222386646Y-108677011D01*
X222376702Y-108607853D01*
X222405727Y-108544297D01*
X222463444Y-108506840D01*
X222551907Y-108480004D01*
X222654727Y-108448814D01*
X222828538Y-108355910D01*
X222980883Y-108230883D01*
X223105910Y-108078538D01*
X223198814Y-107904727D01*
X223256024Y-107716132D01*
X223275341Y-107520000D01*
X223256024Y-107323868D01*
X223198814Y-107135273D01*
X223198811Y-107135269D01*
X223198811Y-107135266D01*
X223105913Y-106961467D01*
X223102527Y-106956399D01*
X223104164Y-106955305D01*
X223080403Y-106899341D01*
X223092202Y-106830475D01*
X223102889Y-106813851D01*
X223102523Y-106813607D01*
X223105904Y-106808544D01*
X223105910Y-106808538D01*
X223198814Y-106634727D01*
X223256024Y-106446132D01*
X223275341Y-106250000D01*
X223256024Y-106053868D01*
X223198814Y-105865273D01*
X223105910Y-105691462D01*
X223105906Y-105691457D01*
X223102526Y-105686399D01*
X223104044Y-105685384D01*
X223080081Y-105628962D01*
X223091872Y-105560094D01*
X223102492Y-105543574D01*
X223102111Y-105543320D01*
X223105497Y-105538252D01*
X223198347Y-105364541D01*
X223239160Y-105230000D01*
X222701955Y-105230000D01*
X222634916Y-105210315D01*
X222589161Y-105157511D01*
X222579217Y-105088353D01*
X222585431Y-105063595D01*
X222595000Y-105037306D01*
X222595000Y-104922694D01*
X222585432Y-104896407D01*
X222581002Y-104826681D01*
X222614973Y-104765625D01*
X222676560Y-104732628D01*
X222701955Y-104730000D01*
X223239160Y-104730000D01*
X223239160Y-104729999D01*
X223198347Y-104595458D01*
X223105496Y-104421746D01*
X223105492Y-104421739D01*
X222980528Y-104269471D01*
X222828260Y-104144507D01*
X222828253Y-104144503D01*
X222654541Y-104051652D01*
X222520000Y-104010839D01*
X222520000Y-104546290D01*
X222500315Y-104613329D01*
X222447511Y-104659084D01*
X222378353Y-104669028D01*
X222374469Y-104668406D01*
X222298440Y-104655000D01*
X222298436Y-104655000D01*
X222241564Y-104655000D01*
X222241559Y-104655000D01*
X222165531Y-104668406D01*
X222096092Y-104660662D01*
X222041864Y-104616605D01*
X222020062Y-104550223D01*
X222020000Y-104546290D01*
X222020000Y-104010839D01*
X222019999Y-104010839D01*
X221885464Y-104051650D01*
X221883586Y-104052655D01*
X221882486Y-104052883D01*
X221879838Y-104053981D01*
X221879629Y-104053478D01*
X221815183Y-104066895D01*
X221750824Y-104042561D01*
X221742335Y-104036206D01*
X221742328Y-104036202D01*
X221607482Y-103985908D01*
X221607483Y-103985908D01*
X221547883Y-103979501D01*
X221547881Y-103979500D01*
X221547873Y-103979500D01*
X221547864Y-103979500D01*
X220452129Y-103979500D01*
X220452123Y-103979501D01*
X220392516Y-103985908D01*
X220257671Y-104036202D01*
X220257664Y-104036206D01*
X220142455Y-104122452D01*
X220142452Y-104122455D01*
X220056206Y-104237664D01*
X220056202Y-104237671D01*
X220005908Y-104372517D01*
X219999501Y-104432116D01*
X219999500Y-104432135D01*
X219999500Y-105335547D01*
X219979815Y-105402586D01*
X219927011Y-105448341D01*
X219857853Y-105458285D01*
X219794297Y-105429260D01*
X219787819Y-105423228D01*
X217905803Y-103541212D01*
X217895980Y-103528950D01*
X217895759Y-103529134D01*
X217890786Y-103523123D01*
X217890785Y-103523122D01*
X217840364Y-103475773D01*
X217829919Y-103465328D01*
X217819475Y-103454883D01*
X217813986Y-103450625D01*
X217809561Y-103446847D01*
X217775582Y-103414938D01*
X217775580Y-103414936D01*
X217775577Y-103414935D01*
X217758029Y-103405288D01*
X217741763Y-103394604D01*
X217725933Y-103382325D01*
X217683168Y-103363818D01*
X217677922Y-103361248D01*
X217637093Y-103338803D01*
X217637092Y-103338802D01*
X217617693Y-103333822D01*
X217599281Y-103327518D01*
X217580898Y-103319562D01*
X217580892Y-103319560D01*
X217534874Y-103312272D01*
X217529152Y-103311087D01*
X217484021Y-103299500D01*
X217484019Y-103299500D01*
X217463984Y-103299500D01*
X217444586Y-103297973D01*
X217437162Y-103296797D01*
X217424805Y-103294840D01*
X217424804Y-103294840D01*
X217378416Y-103299225D01*
X217372578Y-103299500D01*
X215985452Y-103299500D01*
X215918413Y-103279815D01*
X215897771Y-103263181D01*
X215801884Y-103167294D01*
X215768399Y-103105971D01*
X215773383Y-103036279D01*
X215815255Y-102980346D01*
X215880719Y-102955929D01*
X215889565Y-102955613D01*
X217662820Y-102955613D01*
X217729859Y-102975298D01*
X217762085Y-103005300D01*
X217842454Y-103112659D01*
X217888643Y-103147236D01*
X217957664Y-103198906D01*
X217957671Y-103198910D01*
X218092517Y-103249204D01*
X218092516Y-103249204D01*
X218099444Y-103249948D01*
X218152127Y-103255613D01*
X219847872Y-103255612D01*
X219907483Y-103249204D01*
X220042331Y-103198909D01*
X220157546Y-103112659D01*
X220243796Y-102997444D01*
X220294091Y-102862596D01*
X220300500Y-102802986D01*
X220300499Y-102242215D01*
X220320183Y-102175177D01*
X220336813Y-102154540D01*
X221198487Y-101292867D01*
X221263053Y-101231493D01*
X221298112Y-101181120D01*
X221300925Y-101177391D01*
X221339698Y-101129841D01*
X221355607Y-101099382D01*
X221359667Y-101092682D01*
X221379295Y-101064483D01*
X221403492Y-101008094D01*
X221405498Y-101003869D01*
X221433909Y-100949483D01*
X221443360Y-100916449D01*
X221445991Y-100909062D01*
X221447767Y-100904924D01*
X221459540Y-100877492D01*
X221471893Y-100817374D01*
X221473006Y-100812846D01*
X221489887Y-100753852D01*
X221492495Y-100719589D01*
X221493587Y-100711810D01*
X221493689Y-100711317D01*
X221500500Y-100678175D01*
X221500500Y-100616835D01*
X221500679Y-100612126D01*
X221505337Y-100550959D01*
X221500997Y-100516875D01*
X221500500Y-100509036D01*
X221500500Y-99346507D01*
X221502757Y-99257433D01*
X221502756Y-99257432D01*
X221502757Y-99257429D01*
X221491933Y-99197041D01*
X221491280Y-99192379D01*
X221485074Y-99131355D01*
X221485074Y-99131354D01*
X221474784Y-99098560D01*
X221472917Y-99090947D01*
X221470779Y-99079019D01*
X221466858Y-99057139D01*
X221444095Y-99000153D01*
X221442527Y-98995747D01*
X221433367Y-98966552D01*
X221424161Y-98937208D01*
X221424160Y-98937206D01*
X221407492Y-98907177D01*
X221404124Y-98900087D01*
X221391378Y-98868175D01*
X221357612Y-98816942D01*
X221355183Y-98812934D01*
X221325409Y-98759290D01*
X221303034Y-98733226D01*
X221298306Y-98726955D01*
X221279404Y-98698276D01*
X221279399Y-98698270D01*
X221251087Y-98669959D01*
X221236019Y-98654891D01*
X221232829Y-98651448D01*
X221221933Y-98638756D01*
X221193200Y-98575068D01*
X221203462Y-98505956D01*
X221249459Y-98453363D01*
X221316588Y-98433986D01*
X221368423Y-98445603D01*
X221536337Y-98523903D01*
X221764592Y-98585063D01*
X221941034Y-98600500D01*
X222058966Y-98600500D01*
X222235408Y-98585063D01*
X222463663Y-98523903D01*
X222677829Y-98424035D01*
X222871401Y-98288495D01*
X223038495Y-98121401D01*
X223174035Y-97927830D01*
X223273903Y-97713663D01*
X223335063Y-97485408D01*
X223355659Y-97250000D01*
X223355334Y-97246291D01*
X223339769Y-97068384D01*
X223335063Y-97014592D01*
X223273903Y-96786337D01*
X223174035Y-96572171D01*
X223174034Y-96572169D01*
X223038494Y-96378597D01*
X222871402Y-96211505D01*
X222677830Y-96075965D01*
X222677828Y-96075964D01*
X222509482Y-95997463D01*
X222463663Y-95976097D01*
X222463659Y-95976096D01*
X222463655Y-95976094D01*
X222235413Y-95914938D01*
X222235403Y-95914936D01*
X222058966Y-95899500D01*
X221941034Y-95899500D01*
X221764596Y-95914936D01*
X221764586Y-95914938D01*
X221536344Y-95976094D01*
X221536335Y-95976098D01*
X221322171Y-96075964D01*
X221322169Y-96075965D01*
X221128597Y-96211505D01*
X220961506Y-96378597D01*
X220961498Y-96378606D01*
X220847394Y-96541563D01*
X220792817Y-96585188D01*
X220723319Y-96592380D01*
X220660964Y-96560857D01*
X220625551Y-96500627D01*
X220621821Y-96470447D01*
X220621821Y-95094457D01*
X220641505Y-95027422D01*
X220658131Y-95006789D01*
X221078102Y-94586817D01*
X221139425Y-94553333D01*
X221165783Y-94550499D01*
X221847871Y-94550499D01*
X221847872Y-94550499D01*
X221907483Y-94544091D01*
X222042331Y-94493796D01*
X222157546Y-94407546D01*
X222243796Y-94292331D01*
X222294091Y-94157483D01*
X222300500Y-94097873D01*
X222300499Y-93239004D01*
X222320183Y-93171966D01*
X222336813Y-93151329D01*
X223787821Y-91700321D01*
X223849142Y-91666838D01*
X223918834Y-91671822D01*
G37*
%TD.AperFunction*%
%TA.AperFunction,Conductor*%
G36*
X223942539Y-74770185D02*
G01*
X223988294Y-74822989D01*
X223999500Y-74874500D01*
X223999500Y-86407480D01*
X223979815Y-86474519D01*
X223927011Y-86520274D01*
X223857853Y-86530218D01*
X223812381Y-86514213D01*
X223785398Y-86498256D01*
X223785393Y-86498254D01*
X223627573Y-86452402D01*
X223627567Y-86452401D01*
X223590696Y-86449500D01*
X223590694Y-86449500D01*
X223322961Y-86449500D01*
X223267867Y-86436588D01*
X223241195Y-86423360D01*
X223241194Y-86423359D01*
X223056391Y-86377400D01*
X222961207Y-86374821D01*
X222866027Y-86372243D01*
X222866026Y-86372243D01*
X222866025Y-86372243D01*
X222679007Y-86408128D01*
X222630603Y-86428950D01*
X222606291Y-86439408D01*
X222557294Y-86449500D01*
X222424500Y-86449500D01*
X222357461Y-86429815D01*
X222311706Y-86377011D01*
X222300500Y-86325500D01*
X222300500Y-86084304D01*
X222297598Y-86047432D01*
X222297597Y-86047426D01*
X222251745Y-85889606D01*
X222251744Y-85889603D01*
X222251744Y-85889602D01*
X222168081Y-85748135D01*
X222168079Y-85748133D01*
X222168076Y-85748129D01*
X222051870Y-85631923D01*
X222051862Y-85631917D01*
X221910396Y-85548255D01*
X221910393Y-85548254D01*
X221752573Y-85502402D01*
X221752567Y-85502401D01*
X221715696Y-85499500D01*
X221715694Y-85499500D01*
X221504867Y-85499500D01*
X221454431Y-85488779D01*
X221342307Y-85438857D01*
X221342302Y-85438855D01*
X221194703Y-85407483D01*
X221157146Y-85399500D01*
X220967854Y-85399500D01*
X220935397Y-85406398D01*
X220782697Y-85438855D01*
X220782692Y-85438857D01*
X220670569Y-85488779D01*
X220620133Y-85499500D01*
X220409304Y-85499500D01*
X220372432Y-85502401D01*
X220372426Y-85502402D01*
X220214606Y-85548254D01*
X220214603Y-85548255D01*
X220073137Y-85631917D01*
X220073129Y-85631923D01*
X219956923Y-85748129D01*
X219956917Y-85748137D01*
X219873255Y-85889603D01*
X219873254Y-85889606D01*
X219827402Y-86047426D01*
X219827401Y-86047432D01*
X219824500Y-86084304D01*
X219824500Y-86515696D01*
X219827401Y-86552567D01*
X219827402Y-86552573D01*
X219873254Y-86710393D01*
X219873255Y-86710396D01*
X219873256Y-86710398D01*
X219886743Y-86733204D01*
X219956917Y-86851862D01*
X219956923Y-86851870D01*
X220073129Y-86968076D01*
X220073133Y-86968079D01*
X220073135Y-86968081D01*
X220214602Y-87051744D01*
X220256224Y-87063836D01*
X220372426Y-87097597D01*
X220372429Y-87097597D01*
X220372431Y-87097598D01*
X220384722Y-87098565D01*
X220409304Y-87100500D01*
X220409306Y-87100500D01*
X220620133Y-87100500D01*
X220670569Y-87111221D01*
X220785115Y-87162221D01*
X220838352Y-87207471D01*
X220858673Y-87274320D01*
X220839628Y-87341544D01*
X220787261Y-87387799D01*
X220734679Y-87399500D01*
X220409304Y-87399500D01*
X220372432Y-87402401D01*
X220372426Y-87402402D01*
X220214606Y-87448254D01*
X220214603Y-87448255D01*
X220073137Y-87531917D01*
X220073129Y-87531923D01*
X219956923Y-87648129D01*
X219956917Y-87648137D01*
X219873255Y-87789603D01*
X219873254Y-87789606D01*
X219827402Y-87947426D01*
X219827401Y-87947432D01*
X219824500Y-87984304D01*
X219824500Y-88415696D01*
X219827401Y-88452567D01*
X219827402Y-88452573D01*
X219873254Y-88610393D01*
X219873255Y-88610396D01*
X219956917Y-88751862D01*
X219956923Y-88751870D01*
X220073129Y-88868076D01*
X220073133Y-88868079D01*
X220073135Y-88868081D01*
X220214602Y-88951744D01*
X220243329Y-88960090D01*
X220372426Y-88997597D01*
X220372429Y-88997597D01*
X220372431Y-88997598D01*
X220384722Y-88998565D01*
X220409304Y-89000500D01*
X220409306Y-89000500D01*
X221715696Y-89000500D01*
X221734131Y-88999049D01*
X221752569Y-88997598D01*
X221752571Y-88997597D01*
X221752573Y-88997597D01*
X221868814Y-88963826D01*
X221938683Y-88964025D01*
X221976292Y-88982582D01*
X222047269Y-89034150D01*
X222047270Y-89034151D01*
X222220192Y-89111142D01*
X222220197Y-89111144D01*
X222405354Y-89150500D01*
X222405355Y-89150500D01*
X222475500Y-89150500D01*
X222542539Y-89170185D01*
X222588294Y-89222989D01*
X222599500Y-89274500D01*
X222599500Y-90360993D01*
X222579815Y-90428032D01*
X222563181Y-90448674D01*
X222345736Y-90666118D01*
X222284413Y-90699603D01*
X222214721Y-90694619D01*
X222158788Y-90652747D01*
X222145672Y-90630841D01*
X222130130Y-90597511D01*
X222079026Y-90524526D01*
X222079025Y-90524526D01*
X221537419Y-91066132D01*
X221476096Y-91099617D01*
X221406404Y-91094633D01*
X221350471Y-91052761D01*
X221339256Y-91034751D01*
X221327641Y-91011955D01*
X221327637Y-91011951D01*
X221327636Y-91011949D01*
X221238050Y-90922363D01*
X221238044Y-90922358D01*
X221224964Y-90915694D01*
X221215250Y-90910744D01*
X221164456Y-90862773D01*
X221147660Y-90794952D01*
X221170197Y-90728817D01*
X221183865Y-90712580D01*
X221725472Y-90170973D01*
X221652483Y-90119866D01*
X221652481Y-90119865D01*
X221446326Y-90023734D01*
X221446317Y-90023730D01*
X221226610Y-89964860D01*
X221226599Y-89964858D01*
X221000002Y-89945034D01*
X220999998Y-89945034D01*
X220773400Y-89964858D01*
X220773389Y-89964860D01*
X220553682Y-90023730D01*
X220553673Y-90023734D01*
X220347513Y-90119868D01*
X220274526Y-90170973D01*
X220816133Y-90712580D01*
X220849618Y-90773903D01*
X220844634Y-90843595D01*
X220802762Y-90899528D01*
X220784748Y-90910745D01*
X220761956Y-90922358D01*
X220761949Y-90922363D01*
X220672363Y-91011949D01*
X220672358Y-91011956D01*
X220660745Y-91034748D01*
X220612770Y-91085544D01*
X220544949Y-91102338D01*
X220478814Y-91079800D01*
X220462580Y-91066133D01*
X219920973Y-90524526D01*
X219869868Y-90597513D01*
X219773734Y-90803673D01*
X219773730Y-90803682D01*
X219714860Y-91023389D01*
X219714858Y-91023400D01*
X219695034Y-91249997D01*
X219695034Y-91250002D01*
X219714858Y-91476599D01*
X219714860Y-91476610D01*
X219773730Y-91696317D01*
X219773734Y-91696326D01*
X219869865Y-91902481D01*
X219869868Y-91902485D01*
X219878812Y-91915260D01*
X219901138Y-91981467D01*
X219884125Y-92049234D01*
X219851549Y-92085645D01*
X219842456Y-92092452D01*
X219842451Y-92092457D01*
X219756206Y-92207664D01*
X219756202Y-92207671D01*
X219705908Y-92342517D01*
X219699501Y-92402116D01*
X219699500Y-92402135D01*
X219699500Y-93084216D01*
X219679815Y-93151255D01*
X219663181Y-93171897D01*
X218922853Y-93912225D01*
X218858267Y-93973621D01*
X218823220Y-94023973D01*
X218820383Y-94027735D01*
X218781623Y-94075271D01*
X218781620Y-94075276D01*
X218765713Y-94105726D01*
X218761645Y-94112440D01*
X218742023Y-94140633D01*
X218717830Y-94197009D01*
X218715809Y-94201263D01*
X218687412Y-94255630D01*
X218687411Y-94255631D01*
X218677961Y-94288654D01*
X218675328Y-94296050D01*
X218661780Y-94327622D01*
X218649434Y-94387698D01*
X218648311Y-94392274D01*
X218631434Y-94451256D01*
X218631434Y-94451258D01*
X218628824Y-94485520D01*
X218627735Y-94493287D01*
X218624342Y-94509804D01*
X218620821Y-94526937D01*
X218620821Y-94588276D01*
X218620642Y-94592985D01*
X218615984Y-94654155D01*
X218620323Y-94688232D01*
X218620820Y-94696071D01*
X218620821Y-98442396D01*
X218618564Y-98531475D01*
X218618564Y-98531483D01*
X218629385Y-98591852D01*
X218630039Y-98596519D01*
X218630523Y-98601272D01*
X218617722Y-98669959D01*
X218569819Y-98720822D01*
X218558409Y-98726188D01*
X218558582Y-98726558D01*
X218347513Y-98824981D01*
X218274526Y-98876086D01*
X218816133Y-99417693D01*
X218849618Y-99479016D01*
X218844634Y-99548708D01*
X218802762Y-99604641D01*
X218784748Y-99615858D01*
X218761956Y-99627471D01*
X218761949Y-99627476D01*
X218672363Y-99717062D01*
X218672358Y-99717069D01*
X218660745Y-99739861D01*
X218612770Y-99790657D01*
X218544949Y-99807451D01*
X218478814Y-99784913D01*
X218462580Y-99771246D01*
X217920973Y-99229639D01*
X217869868Y-99302626D01*
X217773734Y-99508786D01*
X217773730Y-99508795D01*
X217714860Y-99728502D01*
X217714858Y-99728513D01*
X217695034Y-99955110D01*
X217695034Y-99955115D01*
X217714858Y-100181712D01*
X217714860Y-100181723D01*
X217773730Y-100401430D01*
X217773734Y-100401439D01*
X217869865Y-100607594D01*
X217869868Y-100607598D01*
X217878812Y-100620373D01*
X217901138Y-100686580D01*
X217884125Y-100754347D01*
X217851549Y-100790758D01*
X217842456Y-100797565D01*
X217842455Y-100797566D01*
X217842454Y-100797567D01*
X217764360Y-100901888D01*
X217762087Y-100904924D01*
X217706153Y-100946795D01*
X217662820Y-100954613D01*
X215735236Y-100954613D01*
X215668197Y-100934928D01*
X215647555Y-100918294D01*
X215068642Y-100339382D01*
X215068640Y-100339379D01*
X215056442Y-100327181D01*
X215022957Y-100265858D01*
X215027941Y-100196166D01*
X215069813Y-100140233D01*
X215135277Y-100115816D01*
X215144123Y-100115500D01*
X215177257Y-100115500D01*
X215192877Y-100117224D01*
X215192904Y-100116939D01*
X215200660Y-100117671D01*
X215200667Y-100117673D01*
X215269814Y-100115500D01*
X215299350Y-100115500D01*
X215306228Y-100114630D01*
X215312041Y-100114172D01*
X215358627Y-100112709D01*
X215377869Y-100107117D01*
X215396912Y-100103174D01*
X215416792Y-100100664D01*
X215460122Y-100083507D01*
X215465646Y-100081617D01*
X215470313Y-100080261D01*
X215510390Y-100068618D01*
X215527629Y-100058422D01*
X215545103Y-100049862D01*
X215563727Y-100042488D01*
X215563727Y-100042487D01*
X215563732Y-100042486D01*
X215601449Y-100015082D01*
X215606305Y-100011892D01*
X215646420Y-99988170D01*
X215660589Y-99973999D01*
X215675379Y-99961368D01*
X215691587Y-99949594D01*
X215721299Y-99913676D01*
X215725212Y-99909376D01*
X216133786Y-99500802D01*
X216146048Y-99490980D01*
X216145865Y-99490759D01*
X216151867Y-99485792D01*
X216151877Y-99485786D01*
X216199241Y-99435348D01*
X216220120Y-99414470D01*
X216224373Y-99408986D01*
X216228150Y-99404563D01*
X216260062Y-99370582D01*
X216269714Y-99353023D01*
X216280389Y-99336772D01*
X216292674Y-99320936D01*
X216311186Y-99278152D01*
X216313742Y-99272935D01*
X216336197Y-99232092D01*
X216341180Y-99212680D01*
X216347477Y-99194291D01*
X216355438Y-99175895D01*
X216362729Y-99129853D01*
X216363908Y-99124162D01*
X216375500Y-99079019D01*
X216375500Y-99058974D01*
X216377025Y-99039591D01*
X216380160Y-99019804D01*
X216375775Y-98973415D01*
X216375500Y-98967577D01*
X216375500Y-98677407D01*
X216377224Y-98661793D01*
X216376938Y-98661766D01*
X216377672Y-98654003D01*
X216375500Y-98584873D01*
X216375500Y-98555321D01*
X216375500Y-98555320D01*
X216374629Y-98548429D01*
X216374172Y-98542615D01*
X216373020Y-98505956D01*
X216372709Y-98496043D01*
X216367121Y-98476809D01*
X216363174Y-98457751D01*
X216362620Y-98453363D01*
X216360664Y-98437878D01*
X216343507Y-98394545D01*
X216341614Y-98389016D01*
X216328618Y-98344284D01*
X216328617Y-98344280D01*
X216318420Y-98327038D01*
X216309863Y-98309572D01*
X216302486Y-98290938D01*
X216275083Y-98253220D01*
X216271900Y-98248375D01*
X216248170Y-98208249D01*
X216248165Y-98208243D01*
X216234005Y-98194083D01*
X216221370Y-98179290D01*
X216209593Y-98163082D01*
X216173693Y-98133383D01*
X216169381Y-98129460D01*
X214406132Y-96366211D01*
X214396310Y-96353950D01*
X214396089Y-96354134D01*
X214391116Y-96348123D01*
X214391115Y-96348122D01*
X214340694Y-96300773D01*
X214330248Y-96290328D01*
X214319805Y-96279883D01*
X214314316Y-96275625D01*
X214309891Y-96271847D01*
X214275912Y-96239938D01*
X214275910Y-96239936D01*
X214275907Y-96239935D01*
X214258359Y-96230288D01*
X214242093Y-96219604D01*
X214226263Y-96207325D01*
X214183502Y-96188820D01*
X214178261Y-96186253D01*
X214173055Y-96183392D01*
X214168180Y-96180712D01*
X214118912Y-96131174D01*
X214104247Y-96062861D01*
X214128842Y-95997463D01*
X214140218Y-95984370D01*
X215133786Y-94990802D01*
X215146048Y-94980980D01*
X215145865Y-94980759D01*
X215151867Y-94975792D01*
X215151877Y-94975786D01*
X215199241Y-94925348D01*
X215220120Y-94904470D01*
X215224373Y-94898986D01*
X215228150Y-94894563D01*
X215260062Y-94860582D01*
X215269714Y-94843023D01*
X215280389Y-94826772D01*
X215292674Y-94810936D01*
X215311186Y-94768152D01*
X215313742Y-94762935D01*
X215336197Y-94722092D01*
X215341180Y-94702680D01*
X215347477Y-94684291D01*
X215355438Y-94665895D01*
X215362729Y-94619853D01*
X215363908Y-94614162D01*
X215375500Y-94569019D01*
X215375500Y-94548974D01*
X215377025Y-94529591D01*
X215380160Y-94509804D01*
X215378647Y-94493796D01*
X215375775Y-94463415D01*
X215375500Y-94457577D01*
X215375500Y-92750680D01*
X215395185Y-92683641D01*
X215447989Y-92637886D01*
X215495603Y-92626741D01*
X215533413Y-92625553D01*
X215535120Y-92625500D01*
X215564652Y-92625500D01*
X215564655Y-92625500D01*
X215571533Y-92624630D01*
X215577346Y-92624172D01*
X215623932Y-92622709D01*
X215643174Y-92617117D01*
X215662217Y-92613174D01*
X215682097Y-92610664D01*
X215725427Y-92593507D01*
X215730951Y-92591617D01*
X215734701Y-92590527D01*
X215775695Y-92578618D01*
X215792934Y-92568422D01*
X215810408Y-92559862D01*
X215829032Y-92552488D01*
X215829032Y-92552487D01*
X215829037Y-92552486D01*
X215866754Y-92525082D01*
X215871610Y-92521892D01*
X215911725Y-92498170D01*
X215925894Y-92483999D01*
X215940684Y-92471368D01*
X215956892Y-92459594D01*
X215986604Y-92423676D01*
X215990517Y-92419376D01*
X218383788Y-90026106D01*
X218396042Y-90016291D01*
X218395859Y-90016069D01*
X218401866Y-90011097D01*
X218401877Y-90011091D01*
X218432775Y-89978187D01*
X218449227Y-89960669D01*
X218459671Y-89950223D01*
X218470120Y-89939776D01*
X218474379Y-89934283D01*
X218478152Y-89929866D01*
X218510062Y-89895887D01*
X218519713Y-89878329D01*
X218530396Y-89862066D01*
X218542673Y-89846241D01*
X218561185Y-89803458D01*
X218563738Y-89798246D01*
X218586197Y-89757397D01*
X218591180Y-89737985D01*
X218597481Y-89719585D01*
X218605437Y-89701201D01*
X218612729Y-89655157D01*
X218613906Y-89649476D01*
X218625500Y-89604324D01*
X218625500Y-89584288D01*
X218627027Y-89564887D01*
X218630160Y-89545109D01*
X218625775Y-89498720D01*
X218625500Y-89492882D01*
X218625500Y-83000000D01*
X219069402Y-83000000D01*
X219089738Y-83193483D01*
X219149856Y-83378510D01*
X219149857Y-83378511D01*
X219184492Y-83438500D01*
X219200965Y-83506400D01*
X219184492Y-83562500D01*
X219150317Y-83621692D01*
X219150316Y-83621693D01*
X219108628Y-83749999D01*
X219108628Y-83750000D01*
X219417441Y-83750000D01*
X219484480Y-83769685D01*
X219490327Y-83773682D01*
X219534702Y-83805923D01*
X219672937Y-83867468D01*
X219726174Y-83912718D01*
X219746496Y-83979567D01*
X219745102Y-83994451D01*
X219745102Y-83999997D01*
X219745102Y-83999998D01*
X219745102Y-84000000D01*
X219760937Y-84079608D01*
X219765353Y-84101809D01*
X219759125Y-84171401D01*
X219716261Y-84226578D01*
X219650371Y-84249822D01*
X219643735Y-84250000D01*
X219108628Y-84250000D01*
X219150316Y-84378306D01*
X219150317Y-84378307D01*
X219247536Y-84546694D01*
X219247535Y-84546694D01*
X219377639Y-84691190D01*
X219377642Y-84691192D01*
X219534950Y-84805484D01*
X219712587Y-84884573D01*
X219749999Y-84892524D01*
X219750000Y-84892524D01*
X219750000Y-84356264D01*
X219769685Y-84289225D01*
X219822489Y-84243470D01*
X219891647Y-84233526D01*
X219898192Y-84234647D01*
X219975373Y-84250000D01*
X219975376Y-84250000D01*
X220024626Y-84250000D01*
X220101808Y-84234647D01*
X220171400Y-84240874D01*
X220226577Y-84283736D01*
X220249822Y-84349626D01*
X220250000Y-84356264D01*
X220250000Y-84892524D01*
X220287412Y-84884573D01*
X220465049Y-84805484D01*
X220622357Y-84691192D01*
X220622360Y-84691190D01*
X220752463Y-84546694D01*
X220849682Y-84378307D01*
X220849683Y-84378306D01*
X220891372Y-84250000D01*
X220356265Y-84250000D01*
X220289226Y-84230315D01*
X220243471Y-84177511D01*
X220233527Y-84108353D01*
X220234647Y-84101809D01*
X220239062Y-84079608D01*
X220254898Y-84000000D01*
X220254897Y-83999998D01*
X220254898Y-83999997D01*
X220254898Y-83987787D01*
X220257416Y-83987787D01*
X220262102Y-83935361D01*
X220304958Y-83880179D01*
X220327063Y-83867468D01*
X220465295Y-83805924D01*
X220465295Y-83805923D01*
X220465299Y-83805922D01*
X220509673Y-83773681D01*
X220575480Y-83750202D01*
X220582559Y-83750000D01*
X220891372Y-83750000D01*
X220891371Y-83749999D01*
X220849684Y-83621697D01*
X220815507Y-83562500D01*
X220799034Y-83494600D01*
X220815506Y-83438502D01*
X220850144Y-83378508D01*
X220910262Y-83193482D01*
X220930598Y-83000000D01*
X220910262Y-82806518D01*
X220850144Y-82621492D01*
X220815795Y-82561999D01*
X220799322Y-82494101D01*
X220815796Y-82438000D01*
X220850144Y-82378508D01*
X220910262Y-82193482D01*
X220930598Y-82000000D01*
X220910262Y-81806518D01*
X220850144Y-81621492D01*
X220815794Y-81561997D01*
X220799323Y-81494098D01*
X220815797Y-81437998D01*
X220850143Y-81378509D01*
X220850144Y-81378508D01*
X220910262Y-81193482D01*
X220930598Y-81000000D01*
X220910262Y-80806518D01*
X220880150Y-80713844D01*
X220878156Y-80644006D01*
X220881895Y-80632210D01*
X220919091Y-80532483D01*
X220925500Y-80472873D01*
X220925499Y-79527128D01*
X220919091Y-79467517D01*
X220917501Y-79463255D01*
X220868797Y-79332671D01*
X220868793Y-79332664D01*
X220782547Y-79217455D01*
X220782544Y-79217452D01*
X220667335Y-79131206D01*
X220667328Y-79131202D01*
X220532482Y-79080908D01*
X220532483Y-79080908D01*
X220472883Y-79074501D01*
X220472881Y-79074500D01*
X220472873Y-79074500D01*
X220472864Y-79074500D01*
X219527129Y-79074500D01*
X219527123Y-79074501D01*
X219467516Y-79080908D01*
X219332671Y-79131202D01*
X219332664Y-79131206D01*
X219217455Y-79217452D01*
X219217452Y-79217455D01*
X219131206Y-79332664D01*
X219131202Y-79332671D01*
X219080908Y-79467517D01*
X219074501Y-79527116D01*
X219074501Y-79527123D01*
X219074500Y-79527135D01*
X219074500Y-80472870D01*
X219074501Y-80472876D01*
X219080908Y-80532483D01*
X219118099Y-80632195D01*
X219123083Y-80701887D01*
X219119848Y-80713845D01*
X219089740Y-80806511D01*
X219089738Y-80806516D01*
X219069402Y-81000000D01*
X219089738Y-81193483D01*
X219149856Y-81378509D01*
X219184203Y-81438000D01*
X219200676Y-81505900D01*
X219184204Y-81561998D01*
X219149855Y-81621492D01*
X219089738Y-81806516D01*
X219069402Y-81999999D01*
X219089738Y-82193483D01*
X219149856Y-82378510D01*
X219149857Y-82378511D01*
X219184203Y-82438000D01*
X219200676Y-82505900D01*
X219184203Y-82562000D01*
X219149857Y-82621488D01*
X219149856Y-82621489D01*
X219089738Y-82806516D01*
X219069402Y-83000000D01*
X218625500Y-83000000D01*
X218625500Y-78057737D01*
X218627224Y-78042123D01*
X218626938Y-78042096D01*
X218627672Y-78034333D01*
X218625500Y-77965202D01*
X218625500Y-77935651D01*
X218625500Y-77935650D01*
X218624629Y-77928759D01*
X218624172Y-77922945D01*
X218622709Y-77876374D01*
X218622709Y-77876372D01*
X218617120Y-77857137D01*
X218613174Y-77838084D01*
X218613006Y-77836751D01*
X218610664Y-77818208D01*
X218593501Y-77774859D01*
X218591614Y-77769346D01*
X218578617Y-77724610D01*
X218578616Y-77724608D01*
X218568421Y-77707369D01*
X218559860Y-77689893D01*
X218552486Y-77671269D01*
X218552486Y-77671267D01*
X218542474Y-77657488D01*
X218525083Y-77633550D01*
X218521900Y-77628705D01*
X218498170Y-77588579D01*
X218498165Y-77588573D01*
X218484005Y-77574413D01*
X218471370Y-77559620D01*
X218459593Y-77543412D01*
X218423693Y-77513713D01*
X218419381Y-77509790D01*
X217659591Y-76750000D01*
X220644341Y-76750000D01*
X220664936Y-76985403D01*
X220664938Y-76985413D01*
X220726094Y-77213655D01*
X220726096Y-77213659D01*
X220726097Y-77213663D01*
X220766589Y-77300498D01*
X220825964Y-77427828D01*
X220825965Y-77427830D01*
X220961505Y-77621402D01*
X221128597Y-77788494D01*
X221322169Y-77924034D01*
X221322171Y-77924035D01*
X221536337Y-78023903D01*
X221764592Y-78085063D01*
X221941034Y-78100500D01*
X222058966Y-78100500D01*
X222235408Y-78085063D01*
X222463663Y-78023903D01*
X222677829Y-77924035D01*
X222871401Y-77788495D01*
X223038495Y-77621401D01*
X223174035Y-77427830D01*
X223273903Y-77213663D01*
X223335063Y-76985408D01*
X223355659Y-76750000D01*
X223335063Y-76514592D01*
X223273903Y-76286337D01*
X223174035Y-76072171D01*
X223174034Y-76072169D01*
X223038494Y-75878597D01*
X222871402Y-75711505D01*
X222677830Y-75575965D01*
X222677828Y-75575964D01*
X222570745Y-75526031D01*
X222463663Y-75476097D01*
X222463659Y-75476096D01*
X222463655Y-75476094D01*
X222235413Y-75414938D01*
X222235403Y-75414936D01*
X222058966Y-75399500D01*
X221941034Y-75399500D01*
X221764596Y-75414936D01*
X221764586Y-75414938D01*
X221536344Y-75476094D01*
X221536335Y-75476098D01*
X221322171Y-75575964D01*
X221322169Y-75575965D01*
X221128597Y-75711505D01*
X220961506Y-75878597D01*
X220961501Y-75878604D01*
X220825967Y-76072165D01*
X220825965Y-76072169D01*
X220726098Y-76286335D01*
X220726094Y-76286344D01*
X220664938Y-76514586D01*
X220664936Y-76514596D01*
X220644341Y-76749999D01*
X220644341Y-76750000D01*
X217659591Y-76750000D01*
X216775803Y-75866211D01*
X216765980Y-75853950D01*
X216765759Y-75854134D01*
X216760786Y-75848123D01*
X216760785Y-75848123D01*
X216710364Y-75800773D01*
X216699919Y-75790328D01*
X216689475Y-75779883D01*
X216683986Y-75775625D01*
X216679561Y-75771847D01*
X216645582Y-75739938D01*
X216645580Y-75739936D01*
X216645577Y-75739935D01*
X216628029Y-75730288D01*
X216611763Y-75719604D01*
X216595933Y-75707325D01*
X216553168Y-75688818D01*
X216547922Y-75686248D01*
X216507093Y-75663803D01*
X216507092Y-75663802D01*
X216487693Y-75658822D01*
X216469281Y-75652518D01*
X216450898Y-75644562D01*
X216450892Y-75644560D01*
X216404874Y-75637272D01*
X216399152Y-75636087D01*
X216354021Y-75624500D01*
X216354019Y-75624500D01*
X216333984Y-75624500D01*
X216314586Y-75622973D01*
X216307162Y-75621797D01*
X216294805Y-75619840D01*
X216294804Y-75619840D01*
X216248416Y-75624225D01*
X216242578Y-75624500D01*
X216203748Y-75624500D01*
X216136709Y-75604815D01*
X216111600Y-75583474D01*
X216105873Y-75577114D01*
X216105869Y-75577110D01*
X215952734Y-75465851D01*
X215952729Y-75465848D01*
X215779807Y-75388857D01*
X215779802Y-75388855D01*
X215634000Y-75357865D01*
X215594646Y-75349500D01*
X215405354Y-75349500D01*
X215405353Y-75349500D01*
X215225279Y-75387775D01*
X215155612Y-75382459D01*
X215099879Y-75340322D01*
X215075774Y-75274742D01*
X215075499Y-75266485D01*
X215075499Y-75152129D01*
X215075498Y-75152123D01*
X215069091Y-75092516D01*
X215018797Y-74957671D01*
X215018793Y-74957665D01*
X215012165Y-74948810D01*
X214987748Y-74883346D01*
X215002600Y-74815073D01*
X215052005Y-74765668D01*
X215111432Y-74750500D01*
X223875500Y-74750500D01*
X223942539Y-74770185D01*
G37*
%TD.AperFunction*%
%TA.AperFunction,Conductor*%
G36*
X216309345Y-89790498D02*
G01*
X216324279Y-89800085D01*
X216325291Y-89800842D01*
X216367172Y-89856764D01*
X216374972Y-89899972D01*
X216375000Y-89900000D01*
X216422828Y-89900000D01*
X216422837Y-89899999D01*
X216429515Y-89899281D01*
X216498276Y-89911680D01*
X216549417Y-89959286D01*
X216566702Y-90026984D01*
X216544643Y-90093280D01*
X216530462Y-90110250D01*
X215587181Y-91053532D01*
X215525858Y-91087017D01*
X215456167Y-91082033D01*
X215400233Y-91040161D01*
X215375816Y-90974697D01*
X215375500Y-90965851D01*
X215375500Y-90016975D01*
X215395185Y-89949936D01*
X215447989Y-89904181D01*
X215486403Y-89893669D01*
X215486902Y-89893616D01*
X215513254Y-89893632D01*
X215517514Y-89894089D01*
X215517517Y-89894091D01*
X215577127Y-89900500D01*
X215922872Y-89900499D01*
X215982483Y-89894091D01*
X215982483Y-89894090D01*
X215989096Y-89893380D01*
X216015607Y-89893381D01*
X216077157Y-89899999D01*
X216077172Y-89900000D01*
X216125000Y-89900000D01*
X216125051Y-89899948D01*
X216144685Y-89833084D01*
X216174611Y-89800915D01*
X216175621Y-89800159D01*
X216241061Y-89775697D01*
X216309345Y-89790498D01*
G37*
%TD.AperFunction*%
%TA.AperFunction,Conductor*%
G36*
X209756587Y-78895185D02*
G01*
X209777229Y-78911819D01*
X211572783Y-80707373D01*
X211606268Y-80768696D01*
X211608422Y-80782086D01*
X211614326Y-80838256D01*
X211614327Y-80838258D01*
X211614327Y-80838260D01*
X211672818Y-81018277D01*
X211672821Y-81018284D01*
X211767467Y-81182216D01*
X211869185Y-81295185D01*
X211894129Y-81322888D01*
X212047265Y-81434148D01*
X212047270Y-81434151D01*
X212220192Y-81511142D01*
X212220197Y-81511144D01*
X212405354Y-81550500D01*
X212405355Y-81550500D01*
X212594644Y-81550500D01*
X212594646Y-81550500D01*
X212779803Y-81511144D01*
X212952730Y-81434151D01*
X213105871Y-81322888D01*
X213108788Y-81319647D01*
X213111600Y-81316526D01*
X213171087Y-81279879D01*
X213203748Y-81275500D01*
X214325500Y-81275500D01*
X214392539Y-81295185D01*
X214438294Y-81347989D01*
X214449500Y-81399500D01*
X214449500Y-81772869D01*
X214449501Y-81772879D01*
X214456367Y-81836751D01*
X214456367Y-81863257D01*
X214455909Y-81867516D01*
X214455909Y-81867517D01*
X214449500Y-81927127D01*
X214449500Y-81927129D01*
X214449500Y-81927133D01*
X214449500Y-82572870D01*
X214449501Y-82572879D01*
X214456367Y-82636751D01*
X214456367Y-82663257D01*
X214455909Y-82667516D01*
X214455909Y-82667517D01*
X214449500Y-82727127D01*
X214449500Y-82727128D01*
X214449500Y-82727132D01*
X214449499Y-82727135D01*
X214449499Y-83075500D01*
X214429814Y-83142540D01*
X214377010Y-83188295D01*
X214325499Y-83199500D01*
X213977130Y-83199500D01*
X213977120Y-83199501D01*
X213913248Y-83206367D01*
X213886742Y-83206367D01*
X213882483Y-83205909D01*
X213822873Y-83199500D01*
X213822864Y-83199500D01*
X213177129Y-83199500D01*
X213177120Y-83199501D01*
X213113248Y-83206367D01*
X213086742Y-83206367D01*
X213082483Y-83205909D01*
X213022873Y-83199500D01*
X213022864Y-83199500D01*
X212377129Y-83199500D01*
X212377120Y-83199501D01*
X212313248Y-83206367D01*
X212286742Y-83206367D01*
X212282483Y-83205909D01*
X212222873Y-83199500D01*
X212222864Y-83199500D01*
X211577129Y-83199500D01*
X211577120Y-83199501D01*
X211513248Y-83206367D01*
X211486742Y-83206367D01*
X211482483Y-83205909D01*
X211422873Y-83199500D01*
X211422864Y-83199500D01*
X210777129Y-83199500D01*
X210777120Y-83199501D01*
X210713248Y-83206367D01*
X210686742Y-83206367D01*
X210682483Y-83205909D01*
X210622873Y-83199500D01*
X210622864Y-83199500D01*
X209977129Y-83199500D01*
X209977120Y-83199501D01*
X209913248Y-83206367D01*
X209886742Y-83206367D01*
X209882483Y-83205909D01*
X209822873Y-83199500D01*
X209822864Y-83199500D01*
X209177129Y-83199500D01*
X209177120Y-83199501D01*
X209113248Y-83206367D01*
X209086742Y-83206367D01*
X209082483Y-83205909D01*
X209022873Y-83199500D01*
X209022867Y-83199500D01*
X208674499Y-83199500D01*
X208607460Y-83179815D01*
X208561705Y-83127011D01*
X208550499Y-83075500D01*
X208550499Y-82727129D01*
X208550499Y-82727128D01*
X208544091Y-82667517D01*
X208544089Y-82667513D01*
X208543632Y-82663255D01*
X208543632Y-82636745D01*
X208544089Y-82632486D01*
X208544091Y-82632483D01*
X208550500Y-82572873D01*
X208550499Y-81927128D01*
X208544091Y-81867517D01*
X208544089Y-81867513D01*
X208543632Y-81863255D01*
X208543632Y-81836745D01*
X208544089Y-81832486D01*
X208544091Y-81832483D01*
X208550500Y-81772873D01*
X208550499Y-81127128D01*
X208544091Y-81067517D01*
X208544090Y-81067516D01*
X208543380Y-81060904D01*
X208543381Y-81034393D01*
X208549999Y-80972842D01*
X208550000Y-80972827D01*
X208550000Y-80900000D01*
X208531409Y-80900000D01*
X208464370Y-80880315D01*
X208432144Y-80850313D01*
X208407546Y-80817454D01*
X208316457Y-80749265D01*
X208274588Y-80693333D01*
X208269604Y-80623641D01*
X208303089Y-80562318D01*
X208316452Y-80550738D01*
X208407546Y-80482546D01*
X208432143Y-80449687D01*
X208488076Y-80407818D01*
X208531409Y-80400000D01*
X208550000Y-80400000D01*
X208550000Y-80327172D01*
X208549999Y-80327160D01*
X208543380Y-80265604D01*
X208543380Y-80239090D01*
X208544090Y-80232485D01*
X208544091Y-80232483D01*
X208550500Y-80172873D01*
X208550499Y-79527128D01*
X208544091Y-79467517D01*
X208544089Y-79467513D01*
X208543632Y-79463255D01*
X208543632Y-79436745D01*
X208544089Y-79432486D01*
X208544091Y-79432483D01*
X208550500Y-79372873D01*
X208550499Y-78999499D01*
X208570183Y-78932461D01*
X208622987Y-78886706D01*
X208674499Y-78875500D01*
X209689548Y-78875500D01*
X209756587Y-78895185D01*
G37*
%TD.AperFunction*%
%TA.AperFunction,Conductor*%
G36*
X210717514Y-77294089D02*
G01*
X210717517Y-77294091D01*
X210777127Y-77300500D01*
X211422872Y-77300499D01*
X211482483Y-77294091D01*
X211482486Y-77294089D01*
X211486744Y-77293632D01*
X211513254Y-77293632D01*
X211517514Y-77294089D01*
X211517517Y-77294091D01*
X211577127Y-77300500D01*
X212222872Y-77300499D01*
X212282483Y-77294091D01*
X212282486Y-77294089D01*
X212286744Y-77293632D01*
X212313254Y-77293632D01*
X212317514Y-77294089D01*
X212317517Y-77294091D01*
X212377127Y-77300500D01*
X213022872Y-77300499D01*
X213082483Y-77294091D01*
X213082486Y-77294089D01*
X213086744Y-77293632D01*
X213113254Y-77293632D01*
X213117514Y-77294089D01*
X213117517Y-77294091D01*
X213177127Y-77300500D01*
X213822872Y-77300499D01*
X213882483Y-77294091D01*
X213882486Y-77294089D01*
X213886744Y-77293632D01*
X213913254Y-77293632D01*
X213917514Y-77294089D01*
X213917517Y-77294091D01*
X213977127Y-77300500D01*
X214325500Y-77300499D01*
X214392539Y-77320183D01*
X214438294Y-77372987D01*
X214449500Y-77424499D01*
X214449500Y-77772869D01*
X214449501Y-77772879D01*
X214456367Y-77836751D01*
X214456367Y-77863257D01*
X214455909Y-77867516D01*
X214455909Y-77867517D01*
X214449500Y-77927127D01*
X214449500Y-77927132D01*
X214449500Y-77927133D01*
X214449500Y-78572870D01*
X214449501Y-78572879D01*
X214456367Y-78636751D01*
X214456367Y-78663257D01*
X214455909Y-78667516D01*
X214455909Y-78667517D01*
X214449500Y-78727127D01*
X214449500Y-78727132D01*
X214449500Y-78727133D01*
X214449500Y-79372870D01*
X214449501Y-79372876D01*
X214456619Y-79439092D01*
X214456619Y-79465599D01*
X214450000Y-79527169D01*
X214450000Y-79600000D01*
X214468591Y-79600000D01*
X214535630Y-79619685D01*
X214567855Y-79649686D01*
X214592454Y-79682546D01*
X214683541Y-79750734D01*
X214725411Y-79806666D01*
X214730395Y-79876358D01*
X214696910Y-79937681D01*
X214683540Y-79949265D01*
X214616080Y-79999766D01*
X214550616Y-80024184D01*
X214541769Y-80024500D01*
X213203748Y-80024500D01*
X213136709Y-80004815D01*
X213111600Y-79983474D01*
X213105873Y-79977114D01*
X213105869Y-79977110D01*
X212952734Y-79865851D01*
X212952729Y-79865848D01*
X212779807Y-79788857D01*
X212779802Y-79788855D01*
X212612180Y-79753227D01*
X212594646Y-79749500D01*
X212435452Y-79749500D01*
X212368413Y-79729815D01*
X212347771Y-79713181D01*
X210500803Y-77866212D01*
X210490980Y-77853950D01*
X210490759Y-77854134D01*
X210485786Y-77848123D01*
X210485405Y-77847765D01*
X210435364Y-77800773D01*
X210421516Y-77786925D01*
X210388034Y-77725600D01*
X210385880Y-77686292D01*
X210405460Y-77500000D01*
X210398886Y-77437460D01*
X210411457Y-77368730D01*
X210459189Y-77317706D01*
X210522208Y-77300499D01*
X210622871Y-77300499D01*
X210622872Y-77300499D01*
X210682483Y-77294091D01*
X210682486Y-77294089D01*
X210686744Y-77293632D01*
X210713254Y-77293632D01*
X210717514Y-77294089D01*
G37*
%TD.AperFunction*%
%TD*%
M02*
