%TF.GenerationSoftware,KiCad,Pcbnew,7.0.7*%
%TF.CreationDate,2024-03-31T00:03:08-06:00*%
%TF.ProjectId,timer,74696d65-722e-46b6-9963-61645f706362,rev?*%
%TF.SameCoordinates,Original*%
%TF.FileFunction,Copper,L2,Bot*%
%TF.FilePolarity,Positive*%
%FSLAX46Y46*%
G04 Gerber Fmt 4.6, Leading zero omitted, Abs format (unit mm)*
G04 Created by KiCad (PCBNEW 7.0.7) date 2024-03-31 00:03:08*
%MOMM*%
%LPD*%
G01*
G04 APERTURE LIST*
%TA.AperFunction,ComponentPad*%
%ADD10C,1.600000*%
%TD*%
%TA.AperFunction,ComponentPad*%
%ADD11R,1.600000X1.600000*%
%TD*%
%TA.AperFunction,ComponentPad*%
%ADD12R,1.000000X1.000000*%
%TD*%
%TA.AperFunction,ComponentPad*%
%ADD13O,1.000000X1.000000*%
%TD*%
%TA.AperFunction,ComponentPad*%
%ADD14R,0.850000X0.850000*%
%TD*%
%TA.AperFunction,ComponentPad*%
%ADD15O,0.850000X0.850000*%
%TD*%
%TA.AperFunction,ViaPad*%
%ADD16C,0.800000*%
%TD*%
%TA.AperFunction,Conductor*%
%ADD17C,0.250000*%
%TD*%
G04 APERTURE END LIST*
D10*
%TO.P,C2,2*%
%TO.N,GND*%
X221000000Y-91250000D03*
D11*
%TO.P,C2,1*%
%TO.N,V_{cc}*%
X221000000Y-93250000D03*
%TD*%
D12*
%TO.P,J1,1,MISO*%
%TO.N,MISO*%
X221000000Y-104980000D03*
D13*
%TO.P,J1,2,VCC*%
%TO.N,GND*%
X222270000Y-104980000D03*
%TO.P,J1,3,SCK*%
%TO.N,SCK*%
X221000000Y-106250000D03*
%TO.P,J1,4,MOSI*%
%TO.N,MOSI*%
X222270000Y-106250000D03*
%TO.P,J1,5,~{RST}*%
%TO.N,~{RESET}*%
X221000000Y-107520000D03*
%TO.P,J1,6,GND*%
%TO.N,V_{cc}*%
X222270000Y-107520000D03*
%TD*%
D11*
%TO.P,C1,1*%
%TO.N,V_{cc}*%
X219000000Y-101955113D03*
D10*
%TO.P,C1,2*%
%TO.N,GND*%
X219000000Y-99955113D03*
%TD*%
D14*
%TO.P,J2,1,Pin_1*%
%TO.N,c0*%
X220000000Y-80000000D03*
D15*
%TO.P,J2,2,Pin_2*%
%TO.N,c1*%
X220000000Y-81000000D03*
%TO.P,J2,3,Pin_3*%
%TO.N,c2*%
X220000000Y-82000000D03*
%TO.P,J2,4,Pin_4*%
%TO.N,c3*%
X220000000Y-83000000D03*
%TO.P,J2,5,Pin_5*%
%TO.N,GND*%
X220000000Y-84000000D03*
%TD*%
D16*
%TO.N,V_{cc}*%
X213250000Y-107250000D03*
%TO.N,V_{reg}*%
X212500000Y-80650000D03*
X215500000Y-76250000D03*
%TO.N,GND*%
X216250000Y-90250000D03*
X222250000Y-100250000D03*
X216600500Y-86500000D03*
X210750000Y-80750000D03*
X214000000Y-79750000D03*
%TO.N,~{RESET}*%
X214750000Y-103000000D03*
%TO.N,GND*%
X214813505Y-98750012D03*
%TO.N,MISO*%
X207250000Y-75500497D03*
%TO.N,SCK*%
X207250000Y-76500000D03*
%TO.N,MOSI*%
X209500000Y-77500000D03*
%TO.N,~{RESET}*%
X210750000Y-86000000D03*
%TO.N,c0*%
X211750000Y-87000000D03*
%TO.N,c1*%
X211737701Y-88987701D03*
%TO.N,c2*%
X211750000Y-91750000D03*
%TO.N,c3*%
X222500000Y-88250000D03*
%TO.N,t3*%
X215750000Y-84250000D03*
X221062500Y-86300000D03*
%TD*%
D17*
%TO.N,V_{cc}*%
X214345000Y-108345000D02*
X213250000Y-107250000D01*
X221445000Y-108345000D02*
X214345000Y-108345000D01*
X222270000Y-107520000D02*
X221445000Y-108345000D01*
%TO.N,V_{reg}*%
X212500000Y-79250000D02*
X212500000Y-80650000D01*
X215500000Y-76250000D02*
X212500000Y-79250000D01*
%TO.N,GND*%
X221955113Y-99955113D02*
X222250000Y-100250000D01*
X219000000Y-99955113D02*
X221955113Y-99955113D01*
%TO.N,~{RESET}*%
X212500000Y-103000000D02*
X210750000Y-101250000D01*
X210750000Y-101250000D02*
X210750000Y-86000000D01*
X214750000Y-103000000D02*
X212500000Y-103000000D01*
%TO.N,MISO*%
X207250000Y-75500497D02*
X207275802Y-75500497D01*
X207275802Y-75500497D02*
X208000000Y-76224695D01*
X211730000Y-104980000D02*
X221000000Y-104980000D01*
X208000000Y-76224695D02*
X208000000Y-101250000D01*
X208000000Y-101250000D02*
X211730000Y-104980000D01*
%TO.N,SCK*%
X206775000Y-76975000D02*
X206775000Y-102025000D01*
X207250000Y-76500000D02*
X206775000Y-76975000D01*
X206775000Y-102025000D02*
X211000000Y-106250000D01*
X211000000Y-106250000D02*
X221000000Y-106250000D01*
%TO.N,MOSI*%
X222500000Y-103750000D02*
X223500000Y-104750000D01*
X209500000Y-77500000D02*
X209500000Y-101500000D01*
X209500000Y-101500000D02*
X211750000Y-103750000D01*
X211750000Y-103750000D02*
X222500000Y-103750000D01*
X223500000Y-104750000D02*
X223500000Y-106250000D01*
X223500000Y-106250000D02*
X222270000Y-106250000D01*
%TO.N,c0*%
X211750000Y-87000000D02*
X211750000Y-85689339D01*
X211750000Y-85689339D02*
X217439339Y-80000000D01*
X217439339Y-80000000D02*
X220000000Y-80000000D01*
%TO.N,c1*%
X220000000Y-81000000D02*
X217075735Y-81000000D01*
X217075735Y-81000000D02*
X212475000Y-85600735D01*
X211737701Y-88987701D02*
X212475000Y-88250402D01*
X212475000Y-88250402D02*
X212475000Y-85600735D01*
%TO.N,c2*%
X211750000Y-91750000D02*
X213000000Y-90500000D01*
X216898960Y-82000000D02*
X220000000Y-82000000D01*
X213000000Y-90500000D02*
X213000000Y-85898960D01*
X213000000Y-85898960D02*
X216898960Y-82000000D01*
%TO.N,c3*%
X222500000Y-84898960D02*
X222500000Y-88250000D01*
X220601040Y-83000000D02*
X222500000Y-84898960D01*
X220000000Y-83000000D02*
X220601040Y-83000000D01*
%TO.N,t3*%
X217800000Y-86300000D02*
X221062500Y-86300000D01*
X215750000Y-84250000D02*
X217800000Y-86300000D01*
%TD*%
%TA.AperFunction,Conductor*%
%TO.N,GND*%
G36*
X223942539Y-74770185D02*
G01*
X223988294Y-74822989D01*
X223999500Y-74874500D01*
X223999500Y-104065547D01*
X223979815Y-104132586D01*
X223927011Y-104178341D01*
X223857853Y-104188285D01*
X223794297Y-104159260D01*
X223787819Y-104153228D01*
X223000803Y-103366212D01*
X222990980Y-103353950D01*
X222990759Y-103354134D01*
X222985786Y-103348123D01*
X222935364Y-103300773D01*
X222924919Y-103290328D01*
X222914475Y-103279883D01*
X222908986Y-103275625D01*
X222904561Y-103271847D01*
X222870582Y-103239938D01*
X222870580Y-103239936D01*
X222870577Y-103239935D01*
X222853029Y-103230288D01*
X222836763Y-103219604D01*
X222820933Y-103207325D01*
X222778168Y-103188818D01*
X222772922Y-103186248D01*
X222732093Y-103163803D01*
X222732092Y-103163802D01*
X222712693Y-103158822D01*
X222694281Y-103152518D01*
X222675898Y-103144562D01*
X222675892Y-103144560D01*
X222629874Y-103137272D01*
X222624152Y-103136087D01*
X222579021Y-103124500D01*
X222579019Y-103124500D01*
X222558984Y-103124500D01*
X222539586Y-103122973D01*
X222531333Y-103121666D01*
X222519805Y-103119840D01*
X222519804Y-103119840D01*
X222473416Y-103124225D01*
X222467578Y-103124500D01*
X220375001Y-103124500D01*
X220307962Y-103104815D01*
X220262207Y-103052011D01*
X220252263Y-102982853D01*
X220258819Y-102957167D01*
X220294091Y-102862595D01*
X220299558Y-102811744D01*
X220300500Y-102802986D01*
X220300499Y-101107241D01*
X220294091Y-101047630D01*
X220286854Y-101028227D01*
X220243797Y-100912784D01*
X220243793Y-100912777D01*
X220157547Y-100797569D01*
X220157548Y-100797569D01*
X220157546Y-100797567D01*
X220148449Y-100790757D01*
X220106581Y-100734823D01*
X220101599Y-100665131D01*
X220121191Y-100620366D01*
X220130134Y-100607594D01*
X220226265Y-100401439D01*
X220226269Y-100401430D01*
X220285139Y-100181723D01*
X220285141Y-100181712D01*
X220304966Y-99955115D01*
X220304966Y-99955110D01*
X220285141Y-99728513D01*
X220285139Y-99728502D01*
X220226269Y-99508795D01*
X220226265Y-99508786D01*
X220130133Y-99302629D01*
X220130131Y-99302625D01*
X220079026Y-99229639D01*
X220079025Y-99229639D01*
X219537419Y-99771245D01*
X219476096Y-99804730D01*
X219406404Y-99799746D01*
X219350471Y-99757874D01*
X219339256Y-99739864D01*
X219327641Y-99717068D01*
X219327637Y-99717064D01*
X219327636Y-99717062D01*
X219238050Y-99627476D01*
X219238044Y-99627471D01*
X219228109Y-99622409D01*
X219215250Y-99615857D01*
X219164456Y-99567886D01*
X219147660Y-99500065D01*
X219170197Y-99433930D01*
X219183865Y-99417693D01*
X219725472Y-98876086D01*
X219652483Y-98824979D01*
X219652481Y-98824978D01*
X219446326Y-98728847D01*
X219446317Y-98728843D01*
X219226610Y-98669973D01*
X219226599Y-98669971D01*
X219000002Y-98650147D01*
X218999998Y-98650147D01*
X218773400Y-98669971D01*
X218773389Y-98669973D01*
X218553682Y-98728843D01*
X218553673Y-98728847D01*
X218347513Y-98824981D01*
X218274526Y-98876086D01*
X218816133Y-99417693D01*
X218849618Y-99479016D01*
X218844634Y-99548708D01*
X218802762Y-99604641D01*
X218784748Y-99615858D01*
X218761956Y-99627471D01*
X218761949Y-99627476D01*
X218672363Y-99717062D01*
X218672358Y-99717069D01*
X218660745Y-99739861D01*
X218612770Y-99790657D01*
X218544949Y-99807451D01*
X218478814Y-99784913D01*
X218462580Y-99771246D01*
X217920973Y-99229639D01*
X217869868Y-99302626D01*
X217773734Y-99508786D01*
X217773730Y-99508795D01*
X217714860Y-99728502D01*
X217714858Y-99728513D01*
X217695034Y-99955110D01*
X217695034Y-99955115D01*
X217714858Y-100181712D01*
X217714860Y-100181723D01*
X217773730Y-100401430D01*
X217773734Y-100401439D01*
X217869865Y-100607594D01*
X217869868Y-100607598D01*
X217878812Y-100620373D01*
X217901138Y-100686580D01*
X217884125Y-100754347D01*
X217851549Y-100790758D01*
X217842456Y-100797565D01*
X217842451Y-100797570D01*
X217756206Y-100912777D01*
X217756202Y-100912784D01*
X217705908Y-101047630D01*
X217699501Y-101107229D01*
X217699501Y-101107236D01*
X217699500Y-101107248D01*
X217699500Y-102802983D01*
X217699501Y-102802989D01*
X217705908Y-102862596D01*
X217741181Y-102957167D01*
X217746165Y-103026859D01*
X217712679Y-103088182D01*
X217651356Y-103121666D01*
X217624999Y-103124500D01*
X215779460Y-103124500D01*
X215712421Y-103104815D01*
X215666666Y-103052011D01*
X215656743Y-103006399D01*
X215656139Y-103006463D01*
X215655561Y-103000964D01*
X215655460Y-103000500D01*
X215655460Y-103000002D01*
X215655191Y-102997444D01*
X215635674Y-102811744D01*
X215577179Y-102631716D01*
X215482533Y-102467784D01*
X215355871Y-102327112D01*
X215355870Y-102327111D01*
X215202734Y-102215851D01*
X215202729Y-102215848D01*
X215029807Y-102138857D01*
X215029802Y-102138855D01*
X214884000Y-102107865D01*
X214844646Y-102099500D01*
X214655354Y-102099500D01*
X214622897Y-102106398D01*
X214470197Y-102138855D01*
X214470192Y-102138857D01*
X214297270Y-102215848D01*
X214297265Y-102215851D01*
X214144130Y-102327110D01*
X214144126Y-102327114D01*
X214138400Y-102333474D01*
X214078913Y-102370121D01*
X214046252Y-102374500D01*
X212810452Y-102374500D01*
X212743413Y-102354815D01*
X212722771Y-102338181D01*
X211411819Y-101027228D01*
X211378334Y-100965905D01*
X211375500Y-100939547D01*
X211375500Y-97250000D01*
X220644341Y-97250000D01*
X220664936Y-97485403D01*
X220664938Y-97485413D01*
X220726094Y-97713655D01*
X220726096Y-97713659D01*
X220726097Y-97713663D01*
X220776031Y-97820746D01*
X220825964Y-97927828D01*
X220825965Y-97927830D01*
X220961505Y-98121402D01*
X221128597Y-98288494D01*
X221322169Y-98424034D01*
X221322171Y-98424035D01*
X221536337Y-98523903D01*
X221764592Y-98585063D01*
X221941034Y-98600500D01*
X222058966Y-98600500D01*
X222235408Y-98585063D01*
X222463663Y-98523903D01*
X222677829Y-98424035D01*
X222871401Y-98288495D01*
X223038495Y-98121401D01*
X223174035Y-97927830D01*
X223273903Y-97713663D01*
X223335063Y-97485408D01*
X223355659Y-97250000D01*
X223335063Y-97014592D01*
X223273903Y-96786337D01*
X223174035Y-96572171D01*
X223174034Y-96572169D01*
X223038494Y-96378597D01*
X222871402Y-96211505D01*
X222677830Y-96075965D01*
X222677828Y-96075964D01*
X222570745Y-96026030D01*
X222463663Y-95976097D01*
X222463659Y-95976096D01*
X222463655Y-95976094D01*
X222235413Y-95914938D01*
X222235403Y-95914936D01*
X222058966Y-95899500D01*
X221941034Y-95899500D01*
X221764596Y-95914936D01*
X221764586Y-95914938D01*
X221536344Y-95976094D01*
X221536335Y-95976098D01*
X221322171Y-96075964D01*
X221322169Y-96075965D01*
X221128597Y-96211505D01*
X220961506Y-96378597D01*
X220961501Y-96378604D01*
X220825967Y-96572165D01*
X220825965Y-96572169D01*
X220726098Y-96786335D01*
X220726094Y-96786344D01*
X220664938Y-97014586D01*
X220664936Y-97014596D01*
X220644341Y-97249999D01*
X220644341Y-97250000D01*
X211375500Y-97250000D01*
X211375500Y-92744142D01*
X211395185Y-92677103D01*
X211447989Y-92631348D01*
X211517147Y-92621404D01*
X211525270Y-92622850D01*
X211655354Y-92650500D01*
X211655355Y-92650500D01*
X211844644Y-92650500D01*
X211844646Y-92650500D01*
X212029803Y-92611144D01*
X212202730Y-92534151D01*
X212355871Y-92422888D01*
X212482533Y-92282216D01*
X212577179Y-92118284D01*
X212635674Y-91938256D01*
X212653321Y-91770344D01*
X212679904Y-91705734D01*
X212688951Y-91695638D01*
X213134587Y-91250002D01*
X219695034Y-91250002D01*
X219714858Y-91476599D01*
X219714860Y-91476610D01*
X219773730Y-91696317D01*
X219773734Y-91696326D01*
X219869865Y-91902481D01*
X219869868Y-91902485D01*
X219878812Y-91915260D01*
X219901138Y-91981467D01*
X219884125Y-92049234D01*
X219851549Y-92085645D01*
X219842456Y-92092452D01*
X219842451Y-92092457D01*
X219756206Y-92207664D01*
X219756202Y-92207671D01*
X219705908Y-92342517D01*
X219699501Y-92402116D01*
X219699501Y-92402123D01*
X219699500Y-92402135D01*
X219699500Y-94097870D01*
X219699501Y-94097876D01*
X219705908Y-94157483D01*
X219756202Y-94292328D01*
X219756206Y-94292335D01*
X219842452Y-94407544D01*
X219842455Y-94407547D01*
X219957664Y-94493793D01*
X219957671Y-94493797D01*
X220092517Y-94544091D01*
X220092516Y-94544091D01*
X220099444Y-94544835D01*
X220152127Y-94550500D01*
X221847872Y-94550499D01*
X221907483Y-94544091D01*
X222042331Y-94493796D01*
X222157546Y-94407546D01*
X222243796Y-94292331D01*
X222294091Y-94157483D01*
X222300500Y-94097873D01*
X222300499Y-92402128D01*
X222294091Y-92342517D01*
X222271600Y-92282216D01*
X222243797Y-92207671D01*
X222243793Y-92207664D01*
X222157547Y-92092456D01*
X222157548Y-92092456D01*
X222157546Y-92092454D01*
X222148449Y-92085644D01*
X222106581Y-92029710D01*
X222101599Y-91960018D01*
X222121191Y-91915253D01*
X222130134Y-91902481D01*
X222226265Y-91696326D01*
X222226269Y-91696317D01*
X222285139Y-91476610D01*
X222285141Y-91476599D01*
X222304966Y-91250002D01*
X222304966Y-91249997D01*
X222285141Y-91023400D01*
X222285139Y-91023389D01*
X222226269Y-90803682D01*
X222226265Y-90803673D01*
X222130133Y-90597516D01*
X222130131Y-90597512D01*
X222079026Y-90524526D01*
X222079025Y-90524526D01*
X221537419Y-91066132D01*
X221476096Y-91099617D01*
X221406404Y-91094633D01*
X221350471Y-91052761D01*
X221339256Y-91034751D01*
X221327641Y-91011955D01*
X221327637Y-91011951D01*
X221327636Y-91011949D01*
X221238050Y-90922363D01*
X221238044Y-90922358D01*
X221228109Y-90917296D01*
X221215250Y-90910744D01*
X221164456Y-90862773D01*
X221147660Y-90794952D01*
X221170197Y-90728817D01*
X221183865Y-90712580D01*
X221725472Y-90170973D01*
X221652483Y-90119866D01*
X221652481Y-90119865D01*
X221446326Y-90023734D01*
X221446317Y-90023730D01*
X221226610Y-89964860D01*
X221226599Y-89964858D01*
X221000002Y-89945034D01*
X220999998Y-89945034D01*
X220773400Y-89964858D01*
X220773389Y-89964860D01*
X220553682Y-90023730D01*
X220553673Y-90023734D01*
X220347513Y-90119868D01*
X220274526Y-90170973D01*
X220816133Y-90712580D01*
X220849618Y-90773903D01*
X220844634Y-90843595D01*
X220802762Y-90899528D01*
X220784748Y-90910745D01*
X220761956Y-90922358D01*
X220761949Y-90922363D01*
X220672363Y-91011949D01*
X220672358Y-91011956D01*
X220660745Y-91034748D01*
X220612770Y-91085544D01*
X220544949Y-91102338D01*
X220478814Y-91079800D01*
X220462580Y-91066133D01*
X219920973Y-90524526D01*
X219869868Y-90597513D01*
X219773734Y-90803673D01*
X219773730Y-90803682D01*
X219714860Y-91023389D01*
X219714858Y-91023400D01*
X219695034Y-91249997D01*
X219695034Y-91250002D01*
X213134587Y-91250002D01*
X213383788Y-91000801D01*
X213396042Y-90990986D01*
X213395859Y-90990764D01*
X213401866Y-90985792D01*
X213401877Y-90985786D01*
X213432775Y-90952882D01*
X213449227Y-90935364D01*
X213459671Y-90924918D01*
X213470120Y-90914471D01*
X213474379Y-90908978D01*
X213478152Y-90904561D01*
X213510062Y-90870582D01*
X213519715Y-90853020D01*
X213530389Y-90836770D01*
X213542673Y-90820936D01*
X213561180Y-90778167D01*
X213563749Y-90772924D01*
X213586196Y-90732093D01*
X213586197Y-90732092D01*
X213591177Y-90712691D01*
X213597478Y-90694288D01*
X213605438Y-90675896D01*
X213612730Y-90629849D01*
X213613911Y-90624152D01*
X213625500Y-90579019D01*
X213625500Y-90558974D01*
X213627025Y-90539591D01*
X213630160Y-90519804D01*
X213625775Y-90473415D01*
X213625500Y-90467577D01*
X213625500Y-86209411D01*
X213645185Y-86142372D01*
X213661814Y-86121735D01*
X214917428Y-84866121D01*
X214978749Y-84832638D01*
X215048441Y-84837622D01*
X215097256Y-84870831D01*
X215144128Y-84922887D01*
X215144129Y-84922888D01*
X215297265Y-85034148D01*
X215297270Y-85034151D01*
X215470192Y-85111142D01*
X215470197Y-85111144D01*
X215655354Y-85150500D01*
X215714548Y-85150500D01*
X215781587Y-85170185D01*
X215802229Y-85186819D01*
X217299197Y-86683788D01*
X217309022Y-86696051D01*
X217309243Y-86695869D01*
X217314214Y-86701878D01*
X217340217Y-86726295D01*
X217364635Y-86749226D01*
X217385529Y-86770120D01*
X217391011Y-86774373D01*
X217395443Y-86778157D01*
X217429418Y-86810062D01*
X217446976Y-86819714D01*
X217463233Y-86830393D01*
X217479064Y-86842673D01*
X217498737Y-86851186D01*
X217521833Y-86861182D01*
X217527077Y-86863750D01*
X217567908Y-86886197D01*
X217580523Y-86889435D01*
X217587305Y-86891177D01*
X217605719Y-86897481D01*
X217624104Y-86905438D01*
X217670157Y-86912732D01*
X217675826Y-86913906D01*
X217720981Y-86925500D01*
X217741016Y-86925500D01*
X217760413Y-86927026D01*
X217780196Y-86930160D01*
X217826583Y-86925775D01*
X217832422Y-86925500D01*
X220358752Y-86925500D01*
X220425791Y-86945185D01*
X220450900Y-86966526D01*
X220456626Y-86972885D01*
X220456630Y-86972889D01*
X220609765Y-87084148D01*
X220609770Y-87084151D01*
X220782692Y-87161142D01*
X220782697Y-87161144D01*
X220967854Y-87200500D01*
X220967855Y-87200500D01*
X221157144Y-87200500D01*
X221157146Y-87200500D01*
X221342303Y-87161144D01*
X221515230Y-87084151D01*
X221668371Y-86972888D01*
X221668370Y-86972888D01*
X221673629Y-86969068D01*
X221674519Y-86970294D01*
X221730503Y-86943420D01*
X221799840Y-86952036D01*
X221853511Y-86996771D01*
X221874476Y-87063421D01*
X221874499Y-87065797D01*
X221874499Y-87551312D01*
X221854814Y-87618351D01*
X221842649Y-87634284D01*
X221767470Y-87717778D01*
X221767465Y-87717785D01*
X221672821Y-87881715D01*
X221672818Y-87881722D01*
X221637211Y-87991311D01*
X221614326Y-88061744D01*
X221594540Y-88250000D01*
X221614326Y-88438256D01*
X221614327Y-88438259D01*
X221672818Y-88618277D01*
X221672821Y-88618284D01*
X221767467Y-88782216D01*
X221894128Y-88922888D01*
X221894129Y-88922888D01*
X222047265Y-89034148D01*
X222047270Y-89034151D01*
X222220192Y-89111142D01*
X222220197Y-89111144D01*
X222405354Y-89150500D01*
X222405355Y-89150500D01*
X222594644Y-89150500D01*
X222594646Y-89150500D01*
X222779803Y-89111144D01*
X222952730Y-89034151D01*
X223105871Y-88922888D01*
X223232533Y-88782216D01*
X223327179Y-88618284D01*
X223385674Y-88438256D01*
X223405460Y-88250000D01*
X223385674Y-88061744D01*
X223327179Y-87881716D01*
X223232533Y-87717784D01*
X223232528Y-87717778D01*
X223157349Y-87634283D01*
X223127119Y-87571291D01*
X223125499Y-87551311D01*
X223125499Y-86683788D01*
X223125499Y-84981692D01*
X223127225Y-84966083D01*
X223126939Y-84966056D01*
X223127671Y-84958300D01*
X223127673Y-84958293D01*
X223125500Y-84889145D01*
X223125500Y-84859610D01*
X223124631Y-84852732D01*
X223124172Y-84846903D01*
X223122709Y-84800332D01*
X223117122Y-84781104D01*
X223113174Y-84762044D01*
X223110663Y-84742164D01*
X223093512Y-84698847D01*
X223091619Y-84693318D01*
X223078618Y-84648569D01*
X223078616Y-84648566D01*
X223068423Y-84631331D01*
X223059861Y-84613854D01*
X223052487Y-84595230D01*
X223052486Y-84595228D01*
X223025079Y-84557505D01*
X223021888Y-84552646D01*
X222998172Y-84512543D01*
X222998165Y-84512534D01*
X222984006Y-84498375D01*
X222971368Y-84483579D01*
X222959594Y-84467373D01*
X222923688Y-84437669D01*
X222919376Y-84433746D01*
X221101843Y-82616212D01*
X221092020Y-82603950D01*
X221091799Y-82604134D01*
X221086826Y-82598123D01*
X221086826Y-82598122D01*
X221036404Y-82550773D01*
X221025959Y-82540328D01*
X221015515Y-82529883D01*
X221010026Y-82525625D01*
X221005601Y-82521847D01*
X220971622Y-82489938D01*
X220971620Y-82489936D01*
X220971617Y-82489935D01*
X220954069Y-82480288D01*
X220937803Y-82469604D01*
X220915812Y-82452546D01*
X220917350Y-82450563D01*
X220878066Y-82408491D01*
X220865560Y-82339749D01*
X220870936Y-82314513D01*
X220910262Y-82193482D01*
X220930598Y-82000000D01*
X220910262Y-81806518D01*
X220850144Y-81621492D01*
X220815794Y-81561997D01*
X220799323Y-81494098D01*
X220815797Y-81437998D01*
X220821908Y-81427412D01*
X220850144Y-81378508D01*
X220910262Y-81193482D01*
X220930598Y-81000000D01*
X220910262Y-80806518D01*
X220880150Y-80713844D01*
X220878156Y-80644006D01*
X220881895Y-80632210D01*
X220919091Y-80532483D01*
X220925500Y-80472873D01*
X220925499Y-79527128D01*
X220919091Y-79467517D01*
X220911630Y-79447514D01*
X220868797Y-79332671D01*
X220868793Y-79332664D01*
X220782547Y-79217455D01*
X220782544Y-79217452D01*
X220667335Y-79131206D01*
X220667328Y-79131202D01*
X220532482Y-79080908D01*
X220532483Y-79080908D01*
X220472883Y-79074501D01*
X220472881Y-79074500D01*
X220472873Y-79074500D01*
X220472864Y-79074500D01*
X219527129Y-79074500D01*
X219527123Y-79074501D01*
X219467516Y-79080908D01*
X219332671Y-79131202D01*
X219332664Y-79131206D01*
X219217456Y-79217452D01*
X219217455Y-79217453D01*
X219217454Y-79217454D01*
X219168823Y-79282417D01*
X219137087Y-79324811D01*
X219081153Y-79366682D01*
X219037820Y-79374500D01*
X217522076Y-79374500D01*
X217506459Y-79372776D01*
X217506432Y-79373062D01*
X217498670Y-79372327D01*
X217429542Y-79374500D01*
X217399989Y-79374500D01*
X217399268Y-79374590D01*
X217393096Y-79375369D01*
X217387284Y-79375826D01*
X217340711Y-79377290D01*
X217340708Y-79377291D01*
X217321465Y-79382881D01*
X217302422Y-79386825D01*
X217282543Y-79389336D01*
X217282542Y-79389337D01*
X217239217Y-79406490D01*
X217233691Y-79408382D01*
X217188947Y-79421383D01*
X217188943Y-79421385D01*
X217171704Y-79431580D01*
X217154237Y-79440137D01*
X217135608Y-79447512D01*
X217135606Y-79447513D01*
X217097903Y-79474906D01*
X217093021Y-79478112D01*
X217052919Y-79501828D01*
X217038747Y-79516000D01*
X217023962Y-79528628D01*
X217007751Y-79540407D01*
X216978048Y-79576310D01*
X216974116Y-79580631D01*
X211366208Y-85188538D01*
X211353948Y-85198361D01*
X211354131Y-85198582D01*
X211346013Y-85205298D01*
X211344031Y-85206148D01*
X211341557Y-85207720D01*
X211341303Y-85207320D01*
X211281811Y-85232865D01*
X211212898Y-85221345D01*
X211204973Y-85217144D01*
X211202730Y-85215849D01*
X211029807Y-85138857D01*
X211029802Y-85138855D01*
X210884000Y-85107865D01*
X210844646Y-85099500D01*
X210655354Y-85099500D01*
X210622897Y-85106398D01*
X210470197Y-85138855D01*
X210470192Y-85138857D01*
X210299936Y-85214662D01*
X210230686Y-85223947D01*
X210167410Y-85194319D01*
X210130196Y-85135185D01*
X210125500Y-85101383D01*
X210125500Y-80650000D01*
X211594540Y-80650000D01*
X211614326Y-80838256D01*
X211614327Y-80838259D01*
X211672818Y-81018277D01*
X211672821Y-81018284D01*
X211767467Y-81182216D01*
X211777614Y-81193485D01*
X211894129Y-81322888D01*
X212047265Y-81434148D01*
X212047270Y-81434151D01*
X212220192Y-81511142D01*
X212220197Y-81511144D01*
X212405354Y-81550500D01*
X212405355Y-81550500D01*
X212594644Y-81550500D01*
X212594646Y-81550500D01*
X212779803Y-81511144D01*
X212952730Y-81434151D01*
X213105871Y-81322888D01*
X213232533Y-81182216D01*
X213327179Y-81018284D01*
X213385674Y-80838256D01*
X213405460Y-80650000D01*
X213385674Y-80461744D01*
X213327179Y-80281716D01*
X213232533Y-80117784D01*
X213157350Y-80034284D01*
X213127120Y-79971292D01*
X213125500Y-79951312D01*
X213125500Y-79560451D01*
X213145185Y-79493412D01*
X213161819Y-79472770D01*
X215447771Y-77186819D01*
X215509094Y-77153334D01*
X215535452Y-77150500D01*
X215594644Y-77150500D01*
X215594646Y-77150500D01*
X215779803Y-77111144D01*
X215952730Y-77034151D01*
X216105871Y-76922888D01*
X216232533Y-76782216D01*
X216251133Y-76750000D01*
X220644341Y-76750000D01*
X220664936Y-76985403D01*
X220664938Y-76985413D01*
X220726094Y-77213655D01*
X220726096Y-77213659D01*
X220726097Y-77213663D01*
X220755797Y-77277354D01*
X220825964Y-77427828D01*
X220825965Y-77427830D01*
X220961505Y-77621402D01*
X221128597Y-77788494D01*
X221322169Y-77924034D01*
X221322171Y-77924035D01*
X221536337Y-78023903D01*
X221764592Y-78085063D01*
X221941034Y-78100500D01*
X222058966Y-78100500D01*
X222235408Y-78085063D01*
X222463663Y-78023903D01*
X222677829Y-77924035D01*
X222871401Y-77788495D01*
X223038495Y-77621401D01*
X223174035Y-77427830D01*
X223273903Y-77213663D01*
X223335063Y-76985408D01*
X223355659Y-76750000D01*
X223335063Y-76514592D01*
X223273903Y-76286337D01*
X223174035Y-76072171D01*
X223174034Y-76072169D01*
X223038494Y-75878597D01*
X222871402Y-75711505D01*
X222677830Y-75575965D01*
X222677828Y-75575964D01*
X222570745Y-75526031D01*
X222463663Y-75476097D01*
X222463659Y-75476096D01*
X222463655Y-75476094D01*
X222235413Y-75414938D01*
X222235403Y-75414936D01*
X222058966Y-75399500D01*
X221941034Y-75399500D01*
X221764596Y-75414936D01*
X221764586Y-75414938D01*
X221536344Y-75476094D01*
X221536335Y-75476098D01*
X221322171Y-75575964D01*
X221322169Y-75575965D01*
X221128597Y-75711505D01*
X220961506Y-75878597D01*
X220961501Y-75878604D01*
X220825967Y-76072165D01*
X220825965Y-76072169D01*
X220759424Y-76214867D01*
X220734236Y-76268884D01*
X220726098Y-76286335D01*
X220726094Y-76286344D01*
X220664938Y-76514586D01*
X220664936Y-76514596D01*
X220644341Y-76749999D01*
X220644341Y-76750000D01*
X216251133Y-76750000D01*
X216327179Y-76618284D01*
X216385674Y-76438256D01*
X216405460Y-76250000D01*
X216385674Y-76061744D01*
X216327179Y-75881716D01*
X216232533Y-75717784D01*
X216105871Y-75577112D01*
X216105870Y-75577111D01*
X215952734Y-75465851D01*
X215952729Y-75465848D01*
X215779807Y-75388857D01*
X215779802Y-75388855D01*
X215634000Y-75357865D01*
X215594646Y-75349500D01*
X215405354Y-75349500D01*
X215372897Y-75356398D01*
X215220197Y-75388855D01*
X215220192Y-75388857D01*
X215047270Y-75465848D01*
X215047265Y-75465851D01*
X214894129Y-75577111D01*
X214767466Y-75717785D01*
X214672821Y-75881715D01*
X214672818Y-75881722D01*
X214627285Y-76021860D01*
X214614326Y-76061744D01*
X214601335Y-76185351D01*
X214596679Y-76229649D01*
X214570094Y-76294263D01*
X214561039Y-76304368D01*
X212116208Y-78749199D01*
X212103951Y-78759020D01*
X212104134Y-78759241D01*
X212098123Y-78764213D01*
X212050772Y-78814636D01*
X212029889Y-78835518D01*
X212029877Y-78835532D01*
X212025621Y-78841017D01*
X212021837Y-78845447D01*
X211989937Y-78879418D01*
X211989936Y-78879420D01*
X211980284Y-78896976D01*
X211969610Y-78913226D01*
X211957329Y-78929061D01*
X211957324Y-78929068D01*
X211938815Y-78971838D01*
X211936245Y-78977084D01*
X211913803Y-79017906D01*
X211908822Y-79037307D01*
X211902521Y-79055710D01*
X211894562Y-79074102D01*
X211894561Y-79074105D01*
X211887271Y-79120127D01*
X211886087Y-79125846D01*
X211874501Y-79170972D01*
X211874499Y-79170984D01*
X211874499Y-79191020D01*
X211872973Y-79210412D01*
X211869840Y-79230195D01*
X211874224Y-79276580D01*
X211874499Y-79282417D01*
X211874499Y-79951313D01*
X211854814Y-80018352D01*
X211842649Y-80034285D01*
X211767466Y-80117784D01*
X211672821Y-80281715D01*
X211672818Y-80281722D01*
X211614327Y-80461740D01*
X211614326Y-80461744D01*
X211594540Y-80650000D01*
X210125500Y-80650000D01*
X210125500Y-78198687D01*
X210145185Y-78131648D01*
X210157350Y-78115715D01*
X210184949Y-78085063D01*
X210232533Y-78032216D01*
X210327179Y-77868284D01*
X210385674Y-77688256D01*
X210405460Y-77500000D01*
X210385674Y-77311744D01*
X210327179Y-77131716D01*
X210232533Y-76967784D01*
X210105871Y-76827112D01*
X210105870Y-76827111D01*
X209952734Y-76715851D01*
X209952729Y-76715848D01*
X209779807Y-76638857D01*
X209779802Y-76638855D01*
X209617793Y-76604420D01*
X209594646Y-76599500D01*
X209405354Y-76599500D01*
X209382207Y-76604420D01*
X209220197Y-76638855D01*
X209220192Y-76638857D01*
X209047270Y-76715848D01*
X209047265Y-76715851D01*
X208894129Y-76827111D01*
X208894128Y-76827112D01*
X208841649Y-76885396D01*
X208782162Y-76922044D01*
X208712305Y-76920713D01*
X208654257Y-76881826D01*
X208626448Y-76817729D01*
X208625500Y-76802423D01*
X208625500Y-76307437D01*
X208627224Y-76291817D01*
X208626939Y-76291790D01*
X208627673Y-76284028D01*
X208625500Y-76214867D01*
X208625500Y-76185351D01*
X208625500Y-76185345D01*
X208624631Y-76178474D01*
X208624173Y-76172647D01*
X208622887Y-76131716D01*
X208622710Y-76126068D01*
X208617119Y-76106825D01*
X208613173Y-76087773D01*
X208610664Y-76067903D01*
X208593504Y-76024562D01*
X208591624Y-76019074D01*
X208578618Y-75974305D01*
X208568422Y-75957065D01*
X208559861Y-75939589D01*
X208552487Y-75920965D01*
X208552486Y-75920963D01*
X208525079Y-75883240D01*
X208521888Y-75878381D01*
X208516211Y-75868782D01*
X208498170Y-75838275D01*
X208498168Y-75838273D01*
X208498165Y-75838269D01*
X208484006Y-75824110D01*
X208471368Y-75809314D01*
X208459594Y-75793108D01*
X208423688Y-75763404D01*
X208419376Y-75759481D01*
X208185930Y-75526035D01*
X208152445Y-75464712D01*
X208150290Y-75451314D01*
X208135674Y-75312242D01*
X208135672Y-75312237D01*
X208077179Y-75132213D01*
X207982533Y-74968281D01*
X207972799Y-74957470D01*
X207942571Y-74894483D01*
X207951195Y-74825147D01*
X207995935Y-74771481D01*
X208062587Y-74750523D01*
X208064950Y-74750500D01*
X223875500Y-74750500D01*
X223942539Y-74770185D01*
G37*
%TD.AperFunction*%
%TA.AperFunction,Conductor*%
G36*
X219044922Y-82645185D02*
G01*
X219090677Y-82697989D01*
X219100621Y-82767147D01*
X219095814Y-82787817D01*
X219089738Y-82806518D01*
X219069402Y-83000000D01*
X219089738Y-83193483D01*
X219149856Y-83378510D01*
X219149857Y-83378511D01*
X219184492Y-83438500D01*
X219200965Y-83506400D01*
X219184492Y-83562500D01*
X219150317Y-83621692D01*
X219150316Y-83621693D01*
X219108628Y-83749999D01*
X219108628Y-83750000D01*
X219417441Y-83750000D01*
X219484480Y-83769685D01*
X219490327Y-83773682D01*
X219534702Y-83805923D01*
X219672937Y-83867468D01*
X219726174Y-83912718D01*
X219746496Y-83979567D01*
X219745102Y-83994451D01*
X219745102Y-83999997D01*
X219745102Y-83999998D01*
X219745102Y-84000000D01*
X219757383Y-84061740D01*
X219765353Y-84101809D01*
X219759125Y-84171401D01*
X219716261Y-84226578D01*
X219650371Y-84249822D01*
X219643735Y-84250000D01*
X219108628Y-84250000D01*
X219150316Y-84378306D01*
X219150317Y-84378307D01*
X219247536Y-84546694D01*
X219247535Y-84546694D01*
X219377639Y-84691190D01*
X219377642Y-84691192D01*
X219534950Y-84805484D01*
X219712587Y-84884573D01*
X219749999Y-84892524D01*
X219750000Y-84892524D01*
X219750000Y-84356264D01*
X219769685Y-84289225D01*
X219822489Y-84243470D01*
X219891647Y-84233526D01*
X219898192Y-84234647D01*
X219975373Y-84250000D01*
X219975376Y-84250000D01*
X220024625Y-84250000D01*
X220070503Y-84240874D01*
X220097545Y-84235495D01*
X220097545Y-84235494D01*
X220101807Y-84234647D01*
X220171398Y-84240874D01*
X220226576Y-84283736D01*
X220249821Y-84349626D01*
X220249999Y-84356264D01*
X220249999Y-84892524D01*
X220250000Y-84892524D01*
X220287412Y-84884573D01*
X220465049Y-84805484D01*
X220622357Y-84691192D01*
X220622360Y-84691190D01*
X220752463Y-84546694D01*
X220849681Y-84378308D01*
X220851799Y-84373552D01*
X220897051Y-84320316D01*
X220963900Y-84299996D01*
X221031124Y-84319043D01*
X221052759Y-84336309D01*
X221838181Y-85121731D01*
X221871666Y-85183054D01*
X221874500Y-85209412D01*
X221874500Y-85534202D01*
X221854815Y-85601241D01*
X221802011Y-85646996D01*
X221732853Y-85656940D01*
X221674195Y-85630152D01*
X221673629Y-85630932D01*
X221669780Y-85628135D01*
X221669297Y-85627915D01*
X221668465Y-85627180D01*
X221515234Y-85515851D01*
X221515229Y-85515848D01*
X221342307Y-85438857D01*
X221342302Y-85438855D01*
X221196501Y-85407865D01*
X221157146Y-85399500D01*
X220967854Y-85399500D01*
X220935397Y-85406398D01*
X220782697Y-85438855D01*
X220782692Y-85438857D01*
X220609770Y-85515848D01*
X220609765Y-85515851D01*
X220456630Y-85627110D01*
X220456626Y-85627114D01*
X220450900Y-85633474D01*
X220391413Y-85670121D01*
X220358752Y-85674500D01*
X218110452Y-85674500D01*
X218043413Y-85654815D01*
X218022771Y-85638181D01*
X216688960Y-84304369D01*
X216655475Y-84243046D01*
X216653323Y-84229668D01*
X216635674Y-84061744D01*
X216577179Y-83881716D01*
X216482533Y-83717784D01*
X216363806Y-83585925D01*
X216333577Y-83522935D01*
X216342202Y-83453600D01*
X216368276Y-83415273D01*
X217121732Y-82661819D01*
X217183055Y-82628334D01*
X217209413Y-82625500D01*
X218977883Y-82625500D01*
X219044922Y-82645185D01*
G37*
%TD.AperFunction*%
%TD*%
M02*
