%TF.GenerationSoftware,KiCad,Pcbnew,7.0.7*%
%TF.CreationDate,2024-03-31T00:03:08-06:00*%
%TF.ProjectId,timer,74696d65-722e-46b6-9963-61645f706362,rev?*%
%TF.SameCoordinates,Original*%
%TF.FileFunction,Soldermask,Top*%
%TF.FilePolarity,Negative*%
%FSLAX46Y46*%
G04 Gerber Fmt 4.6, Leading zero omitted, Abs format (unit mm)*
G04 Created by KiCad (PCBNEW 7.0.7) date 2024-03-31 00:03:08*
%MOMM*%
%LPD*%
G01*
G04 APERTURE LIST*
G04 Aperture macros list*
%AMRoundRect*
0 Rectangle with rounded corners*
0 $1 Rounding radius*
0 $2 $3 $4 $5 $6 $7 $8 $9 X,Y pos of 4 corners*
0 Add a 4 corners polygon primitive as box body*
4,1,4,$2,$3,$4,$5,$6,$7,$8,$9,$2,$3,0*
0 Add four circle primitives for the rounded corners*
1,1,$1+$1,$2,$3*
1,1,$1+$1,$4,$5*
1,1,$1+$1,$6,$7*
1,1,$1+$1,$8,$9*
0 Add four rect primitives between the rounded corners*
20,1,$1+$1,$2,$3,$4,$5,0*
20,1,$1+$1,$4,$5,$6,$7,0*
20,1,$1+$1,$6,$7,$8,$9,0*
20,1,$1+$1,$8,$9,$2,$3,0*%
G04 Aperture macros list end*
%ADD10RoundRect,0.150000X-0.587500X-0.150000X0.587500X-0.150000X0.587500X0.150000X-0.587500X0.150000X0*%
%ADD11C,2.200000*%
%ADD12RoundRect,0.150000X0.587500X0.150000X-0.587500X0.150000X-0.587500X-0.150000X0.587500X-0.150000X0*%
%ADD13R,1.600000X0.550000*%
%ADD14R,0.550000X1.600000*%
%ADD15C,1.600000*%
%ADD16R,1.600000X1.600000*%
%ADD17R,0.250000X0.275000*%
%ADD18R,0.275000X0.250000*%
%ADD19R,1.000000X1.000000*%
%ADD20O,1.000000X1.000000*%
%ADD21RoundRect,0.100000X-0.100000X0.130000X-0.100000X-0.130000X0.100000X-0.130000X0.100000X0.130000X0*%
%ADD22RoundRect,0.050000X0.100000X-0.285000X0.100000X0.285000X-0.100000X0.285000X-0.100000X-0.285000X0*%
%ADD23R,1.000000X3.500000*%
%ADD24R,0.850000X0.850000*%
%ADD25O,0.850000X0.850000*%
%ADD26RoundRect,0.135000X0.135000X0.185000X-0.135000X0.185000X-0.135000X-0.185000X0.135000X-0.185000X0*%
G04 APERTURE END LIST*
D10*
%TO.C,Q4*%
X221062500Y-86300000D03*
X221062500Y-88200000D03*
X222937500Y-87250000D03*
%TD*%
D11*
%TO.C,REF\u002A\u002A*%
X222000000Y-76750000D03*
%TD*%
D12*
%TO.C,Q3*%
X209000000Y-95150000D03*
X209000000Y-93250000D03*
X207125000Y-94200000D03*
%TD*%
D13*
%TO.C,U1*%
X215750000Y-83050000D03*
X215750000Y-82250000D03*
X215750000Y-81450000D03*
X215750000Y-80650000D03*
X215750000Y-79850000D03*
X215750000Y-79050000D03*
X215750000Y-78250000D03*
X215750000Y-77450000D03*
D14*
X214300000Y-76000000D03*
X213500000Y-76000000D03*
X212700000Y-76000000D03*
X211900000Y-76000000D03*
X211100000Y-76000000D03*
X210300000Y-76000000D03*
X209500000Y-76000000D03*
X208700000Y-76000000D03*
D13*
X207250000Y-77450000D03*
X207250000Y-78250000D03*
X207250000Y-79050000D03*
X207250000Y-79850000D03*
X207250000Y-80650000D03*
X207250000Y-81450000D03*
X207250000Y-82250000D03*
X207250000Y-83050000D03*
D14*
X208700000Y-84500000D03*
X209500000Y-84500000D03*
X210300000Y-84500000D03*
X211100000Y-84500000D03*
X211900000Y-84500000D03*
X212700000Y-84500000D03*
X213500000Y-84500000D03*
X214300000Y-84500000D03*
%TD*%
D11*
%TO.C,REF\u002A\u002A*%
X208250000Y-106500000D03*
%TD*%
D12*
%TO.C,Q1*%
X209000000Y-88250000D03*
X209000000Y-86350000D03*
X207125000Y-87300000D03*
%TD*%
D15*
%TO.C,C2*%
X221000000Y-91250000D03*
D16*
X221000000Y-93250000D03*
%TD*%
D17*
%TO.C,U3*%
X216750000Y-87737500D03*
X216250000Y-87737500D03*
X215750000Y-87737500D03*
X215250000Y-87737500D03*
D18*
X215237500Y-88250000D03*
X215237500Y-88750000D03*
D17*
X215250000Y-89262500D03*
X215750000Y-89262500D03*
X216250000Y-89262500D03*
X216750000Y-89262500D03*
D18*
X216762500Y-88750000D03*
X216762500Y-88250000D03*
%TD*%
D19*
%TO.C,J1*%
X221000000Y-104980000D03*
D20*
X222270000Y-104980000D03*
X221000000Y-106250000D03*
X222270000Y-106250000D03*
X221000000Y-107520000D03*
X222270000Y-107520000D03*
%TD*%
D12*
%TO.C,Q2*%
X209000000Y-91650000D03*
X209000000Y-89750000D03*
X207125000Y-90700000D03*
%TD*%
D21*
%TO.C,L1*%
X211750000Y-99000000D03*
X211750000Y-99640000D03*
%TD*%
D16*
%TO.C,C1*%
X219000000Y-101955113D03*
D15*
X219000000Y-99955113D03*
%TD*%
D22*
%TO.C,U2*%
X212750000Y-99490000D03*
X213250000Y-99490000D03*
X213750000Y-99490000D03*
X214250000Y-99490000D03*
X214250000Y-98010000D03*
X213750000Y-98010000D03*
X213250000Y-98010000D03*
X212750000Y-98010000D03*
%TD*%
D23*
%TO.C,BT1*%
X214500000Y-106000000D03*
X216500000Y-106000000D03*
%TD*%
D24*
%TO.C,J2*%
X220000000Y-80000000D03*
D25*
X220000000Y-81000000D03*
X220000000Y-82000000D03*
X220000000Y-83000000D03*
X220000000Y-84000000D03*
%TD*%
D26*
%TO.C,R1*%
X213510000Y-96750000D03*
X212490000Y-96750000D03*
%TD*%
D11*
%TO.C,REF\u002A\u002A*%
X222000000Y-97250000D03*
%TD*%
M02*
