%TF.GenerationSoftware,KiCad,Pcbnew,7.0.7*%
%TF.CreationDate,2024-03-31T00:03:08-06:00*%
%TF.ProjectId,timer,74696d65-722e-46b6-9963-61645f706362,rev?*%
%TF.SameCoordinates,Original*%
%TF.FileFunction,Paste,Top*%
%TF.FilePolarity,Positive*%
%FSLAX46Y46*%
G04 Gerber Fmt 4.6, Leading zero omitted, Abs format (unit mm)*
G04 Created by KiCad (PCBNEW 7.0.7) date 2024-03-31 00:03:08*
%MOMM*%
%LPD*%
G01*
G04 APERTURE LIST*
G04 Aperture macros list*
%AMRoundRect*
0 Rectangle with rounded corners*
0 $1 Rounding radius*
0 $2 $3 $4 $5 $6 $7 $8 $9 X,Y pos of 4 corners*
0 Add a 4 corners polygon primitive as box body*
4,1,4,$2,$3,$4,$5,$6,$7,$8,$9,$2,$3,0*
0 Add four circle primitives for the rounded corners*
1,1,$1+$1,$2,$3*
1,1,$1+$1,$4,$5*
1,1,$1+$1,$6,$7*
1,1,$1+$1,$8,$9*
0 Add four rect primitives between the rounded corners*
20,1,$1+$1,$2,$3,$4,$5,0*
20,1,$1+$1,$4,$5,$6,$7,0*
20,1,$1+$1,$6,$7,$8,$9,0*
20,1,$1+$1,$8,$9,$2,$3,0*%
G04 Aperture macros list end*
%ADD10RoundRect,0.150000X-0.587500X-0.150000X0.587500X-0.150000X0.587500X0.150000X-0.587500X0.150000X0*%
%ADD11RoundRect,0.150000X0.587500X0.150000X-0.587500X0.150000X-0.587500X-0.150000X0.587500X-0.150000X0*%
%ADD12R,1.600000X0.550000*%
%ADD13R,0.550000X1.600000*%
%ADD14R,0.250000X0.275000*%
%ADD15R,0.275000X0.250000*%
%ADD16RoundRect,0.079500X-0.100500X0.079500X-0.100500X-0.079500X0.100500X-0.079500X0.100500X0.079500X0*%
%ADD17RoundRect,0.050000X0.100000X-0.285000X0.100000X0.285000X-0.100000X0.285000X-0.100000X-0.285000X0*%
%ADD18R,1.000000X3.500000*%
%ADD19RoundRect,0.135000X0.135000X0.185000X-0.135000X0.185000X-0.135000X-0.185000X0.135000X-0.185000X0*%
G04 APERTURE END LIST*
D10*
%TO.C,Q4*%
X221062500Y-86300000D03*
X221062500Y-88200000D03*
X222937500Y-87250000D03*
%TD*%
D11*
%TO.C,Q3*%
X209000000Y-95150000D03*
X209000000Y-93250000D03*
X207125000Y-94200000D03*
%TD*%
D12*
%TO.C,U1*%
X215750000Y-83050000D03*
X215750000Y-82250000D03*
X215750000Y-81450000D03*
X215750000Y-80650000D03*
X215750000Y-79850000D03*
X215750000Y-79050000D03*
X215750000Y-78250000D03*
X215750000Y-77450000D03*
D13*
X214300000Y-76000000D03*
X213500000Y-76000000D03*
X212700000Y-76000000D03*
X211900000Y-76000000D03*
X211100000Y-76000000D03*
X210300000Y-76000000D03*
X209500000Y-76000000D03*
X208700000Y-76000000D03*
D12*
X207250000Y-77450000D03*
X207250000Y-78250000D03*
X207250000Y-79050000D03*
X207250000Y-79850000D03*
X207250000Y-80650000D03*
X207250000Y-81450000D03*
X207250000Y-82250000D03*
X207250000Y-83050000D03*
D13*
X208700000Y-84500000D03*
X209500000Y-84500000D03*
X210300000Y-84500000D03*
X211100000Y-84500000D03*
X211900000Y-84500000D03*
X212700000Y-84500000D03*
X213500000Y-84500000D03*
X214300000Y-84500000D03*
%TD*%
D11*
%TO.C,Q1*%
X209000000Y-88250000D03*
X209000000Y-86350000D03*
X207125000Y-87300000D03*
%TD*%
D14*
%TO.C,U3*%
X216750000Y-87737500D03*
X216250000Y-87737500D03*
X215750000Y-87737500D03*
X215250000Y-87737500D03*
D15*
X215237500Y-88250000D03*
X215237500Y-88750000D03*
D14*
X215250000Y-89262500D03*
X215750000Y-89262500D03*
X216250000Y-89262500D03*
X216750000Y-89262500D03*
D15*
X216762500Y-88750000D03*
X216762500Y-88250000D03*
%TD*%
D11*
%TO.C,Q2*%
X209000000Y-91650000D03*
X209000000Y-89750000D03*
X207125000Y-90700000D03*
%TD*%
D16*
%TO.C,L1*%
X211750000Y-98975000D03*
X211750000Y-99665000D03*
%TD*%
D17*
%TO.C,U2*%
X212750000Y-99490000D03*
X213250000Y-99490000D03*
X213750000Y-99490000D03*
X214250000Y-99490000D03*
X214250000Y-98010000D03*
X213750000Y-98010000D03*
X213250000Y-98010000D03*
X212750000Y-98010000D03*
%TD*%
D18*
%TO.C,BT1*%
X214500000Y-106000000D03*
X216500000Y-106000000D03*
%TD*%
D19*
%TO.C,R1*%
X213510000Y-96750000D03*
X212490000Y-96750000D03*
%TD*%
M02*
