M48
; DRILL file {KiCad 7.0.7} date Sun Mar 31 00:03:11 2024
; FORMAT={-:-/ absolute / inch / decimal}
; #@! TF.CreationDate,2024-03-31T00:03:11-06:00
; #@! TF.GenerationSoftware,Kicad,Pcbnew,7.0.7
; #@! TF.FileFunction,Plated,1,2,PTH
FMAT,2
INCH
; #@! TA.AperFunction,Plated,PTH,ViaDrill
T1C0.0157
; #@! TA.AperFunction,Plated,PTH,ComponentDrill
T2C0.0197
; #@! TA.AperFunction,Plated,PTH,ComponentDrill
T3C0.0256
; #@! TA.AperFunction,Plated,PTH,ComponentDrill
T4C0.0315
%
G90
G05
T1
X8.1594Y-2.9725
X8.1594Y-3.0118
X8.248Y-3.0512
X8.2972Y-3.1791
X8.2972Y-3.3858
X8.3361Y-3.5035
X8.3366Y-3.4252
X8.3366Y-3.6122
X8.3661Y-3.1752
X8.3957Y-4.2224
X8.4252Y-3.1398
X8.4547Y-4.0551
X8.4572Y-3.8878
X8.4843Y-3.002
X8.4941Y-3.3169
X8.5138Y-3.5531
X8.5276Y-3.4055
X8.7032Y-3.3976
X8.75Y-3.9469
X8.7598Y-3.4744
T2
X8.6614Y-3.1496
X8.6614Y-3.189
X8.6614Y-3.2283
X8.6614Y-3.2677
X8.6614Y-3.3071
T3
X8.7008Y-4.1331
X8.7008Y-4.1831
X8.7008Y-4.2331
X8.7508Y-4.1331
X8.7508Y-4.1831
X8.7508Y-4.2331
T4
X8.622Y-3.9352
X8.622Y-4.014
X8.7008Y-3.5925
X8.7008Y-3.6713
T0
M30
